STARTFONT 2.1
COMMENT
COMMENT Converted from OpenType font "NotoSansMono-Regular.ttf" by "otf2bdf 3.0".
COMMENT
FONT -FreeType-Noto Sans Mono-Medium-R-Normal--70-700-72-72-P-329-ISO10646-1
SIZE 70 72 72
FONTBOUNDINGBOX 169 113 -43 -27
STARTPROPERTIES 19
FOUNDRY "FreeType"
FAMILY_NAME "Noto Sans Mono"
WEIGHT_NAME "Medium"
SLANT "R"
SETWIDTH_NAME "Normal"
ADD_STYLE_NAME ""
PIXEL_SIZE 70
POINT_SIZE 700
RESOLUTION_X 72
RESOLUTION_Y 72
SPACING "P"
AVERAGE_WIDTH 329
CHARSET_REGISTRY "ISO10646"
CHARSET_ENCODING "1"
FONT_ASCENT 74
FONT_DESCENT 20
COPYRIGHT "Copyright 2015 Google LLC. All Rights Reserved."
_OTF_FONTFILE "NotoSansMono-Regular.ttf"
_OTF_PSNAME "NotoSansMono-Regular"
ENDPROPERTIES
CHARS 3363
STARTCHAR 0000
ENCODING 0
SWIDTH 0 0
DWIDTH 0 0
BBX 0 0 0 0
BITMAP
ENDCHAR
STARTCHAR 000D
ENCODING 13
SWIDTH 600 0
DWIDTH 42 0
BBX 0 0 0 0
BITMAP
ENDCHAR
STARTCHAR 0020
ENCODING 32
SWIDTH 600 0
DWIDTH 42 0
BBX 0 0 0 0
BITMAP
ENDCHAR
STARTCHAR 0021
ENCODING 33
SWIDTH 600 0
DWIDTH 42 0
BBX 8 51 17 -1
BITMAP
FF
FF
FF
FF
FF
FF
FF
FF
FF
7F
7F
7F
7E
7E
7E
7E
7E
7E
7E
7E
7E
7E
7E
7E
7E
7E
7E
7E
7E
7E
7E
7E
7E
7E
7E
7E
00
00
00
00
00
10
7E
FF
FF
FF
FF
FF
FF
7E
10
ENDCHAR
STARTCHAR 0022
ENCODING 34
SWIDTH 600 0
DWIDTH 42 0
BBX 20 18 11 32
BITMAP
FE07F0
FE07F0
FE07F0
FE07F0
7E03E0
7C03E0
7C03E0
7C03E0
7C03E0
7C03E0
7C03E0
7C03E0
7C03E0
7C03E0
7C03E0
7C03E0
7C03E0
3C01C0
ENDCHAR
STARTCHAR 0023
ENCODING 35
SWIDTH 600 0
DWIDTH 42 0
BBX 40 50 1 0
BITMAP
0001F807C0
0001F007C0
0001F007C0
0001F00780
0001F00F80
0003F00F80
0003E00F80
0003E00F80
0003E00F00
0003E01F00
0003E01F00
0007C01F00
0007C01F00
0007C01F00
0007C01E00
1FFFFFFFFF
1FFFFFFFFF
1FFFFFFFFF
1FFFFFFFFF
1FFFFFFFFF
000F807C00
000F807C00
001F007C00
001F007C00
001F00F800
001F00F800
001F00F800
003E00F800
003E00F800
003E01F800
003E01F000
FFFFFFFFF8
FFFFFFFFF8
FFFFFFFFF8
FFFFFFFFF8
FFFFFFFFF8
007C03E000
00F803E000
00F803E000
00F803E000
00F807C000
00F807C000
01F007C000
01F007C000
01F007C000
01F00F8000
01F00F8000
01E00F8000
03E00F8000
03E01F8000
ENDCHAR
STARTCHAR 0024
ENCODING 36
SWIDTH 600 0
DWIDTH 42 0
BBX 30 57 6 -4
BITMAP
000F8000
000F8000
000F8000
000F8000
000F8000
007FFC00
03FFFF80
0FFFFFE0
1FFFFFF8
3FFFFFF0
7FFFFFF0
7FCF87E0
FF0F8060
FE0F8000
FC0F8000
FC0F8000
FC0F8000
FC0F8000
FC0F8000
FC0F8000
FC0F8000
FE0F8000
7F0F8000
7FEF8000
3FFF8000
1FFF8000
0FFFF000
03FFFE00
00FFFF80
003FFFC0
000FFFF0
000FFFF0
000F8FF8
000F83FC
000F81FC
000F80FC
000F80FC
000F80FC
000F80FC
000F80FC
000F80FC
000F81FC
800F81F8
F00F87F8
FE0FBFF0
FFFFFFE0
FFFFFFC0
FFFFFF80
3FFFFE00
07FFE000
000F8000
000F8000
000F8000
000F8000
000F8000
000F8000
000F8000
ENDCHAR
STARTCHAR 0025
ENCODING 37
SWIDTH 600 0
DWIDTH 42 0
BBX 42 52 0 -1
BITMAP
01F800000000
07FE0003F000
1FFF8003E000
3FFFC007E000
3F0FC007C000
7E07E00FC000
7C03E00F8000
FC03E01F8000
F801F01F0000
F801F03F0000
F801F03E0000
F801F07E0000
F801F07C0000
F801F0FC0000
F801F0F80000
F803F1F80000
7C03E1F00000
7C03E3F00000
7E07E3E00000
3F0FC7E00000
3FFFC7C00000
1FFF87C00000
07FE0F800000
01F80F800000
00001F000000
00001F000000
00003E000000
00003E000000
00007C07E000
00007C3FF800
0000F87FFE00
0000F8FFFF00
0001F0FC3F00
0001F1F81F80
0003E1F00F80
0003E3F00FC0
0007C3E007C0
0007C3E007C0
000F83E007C0
000F83E007C0
001F03E007C0
001F03E007C0
003E03E007C0
003E03F00FC0
007C01F00F80
007C01F00F80
00F801F81F80
00F800FFFF00
01F0007FFE00
01F0003FFC00
03E0001FF800
000000018000
ENDCHAR
STARTCHAR 0026
ENCODING 38
SWIDTH 600 0
DWIDTH 42 0
BBX 38 52 3 -1
BITMAP
001FC00000
00FFF00000
01FFFC0000
03FFFE0000
07FFFE0000
07F0FF0000
07E03F0000
0FC01F8000
0FC01F8000
0FC01F8000
0FC01F8000
0FC01F8000
0FC01F8000
0FC01F8000
0FC03F0000
07C03F0000
07E07F0000
07E0FE0000
03F1FC0000
03F3FC0000
01FFF80000
01FFF00000
00FFE00000
007FC00000
00FF800000
01FF800000
03FFC00000
07FFC007E0
0FFFE007E0
1FE7F007E0
3FC3F807E0
3F81FC0FC0
7F00FE0FC0
7E00FE0FC0
FE007F1F80
FC003F9F80
FC001FFF00
FC001FFF00
FC000FFE00
FC0007FE00
FC0003FC00
FC0001FC00
FE0003FE00
FE0007FF00
7F001FFF00
7F803FFF80
3FFFFFDFC0
1FFFFF1FE0
0FFFFE0FF0
07FFF807F0
01FFE003FC
0008000000
ENDCHAR
STARTCHAR 0027
ENCODING 39
SWIDTH 600 0
DWIDTH 42 0
BBX 6 18 18 32
BITMAP
FC
FC
FC
FC
FC
FC
FC
FC
FC
FC
F8
78
78
78
78
78
78
78
ENDCHAR
STARTCHAR 0028
ENCODING 40
SWIDTH 600 0
DWIDTH 42 0
BBX 16 60 14 -10
BITMAP
003F
007E
00FC
00FC
01F8
03F8
03F0
07E0
07E0
0FE0
0FC0
1FC0
1F80
1F80
3F80
3F00
3F00
3F00
7F00
7E00
7E00
7E00
7E00
FE00
FE00
FC00
FC00
FC00
FC00
FC00
FC00
FC00
FC00
FC00
FC00
FC00
FE00
FE00
7E00
7E00
7E00
7E00
7F00
3F00
3F00
3F00
3F80
1F80
1F80
1FC0
0FC0
0FE0
07E0
07F0
03F0
01F8
01F8
00FC
007E
007F
ENDCHAR
STARTCHAR 0029
ENCODING 41
SWIDTH 600 0
DWIDTH 42 0
BBX 16 60 12 -11
BITMAP
FE00
7E00
3F00
1F80
1F80
0FC0
0FE0
07E0
07F0
03F0
03F0
03F8
01F8
01FC
01FC
00FC
00FC
00FE
007E
007E
007E
007E
007F
007F
007F
003F
003F
003F
003F
003F
003F
003F
003F
003F
003F
007F
007F
007E
007E
007E
007E
00FE
00FC
00FC
00FC
01FC
01F8
01F8
03F8
03F0
07F0
07E0
0FE0
0FC0
1FC0
1F80
3F00
3F00
7E00
FC00
ENDCHAR
STARTCHAR 002A
ENCODING 42
SWIDTH 600 0
DWIDTH 42 0
BBX 30 29 6 23
BITMAP
000FC000
000FC000
000FC000
000FC000
00078000
00078000
00078000
00078000
00078000
40078018
7C0781F8
7FC78FF8
7FFFFFF8
FFFFFFFC
FFFFFFFC
00FFFF00
001FE000
003FF000
003FF800
007CF800
00FCFC00
01F87E00
03F87F00
03F03F80
07F03F80
0FE01FC0
03E00F00
00C00E00
00400800
ENDCHAR
STARTCHAR 002B
ENCODING 43
SWIDTH 600 0
DWIDTH 42 0
BBX 30 32 6 8
BITMAP
0007C000
0007C000
0007C000
0007C000
0007C000
0007C000
0007C000
0007C000
0007C000
0007C000
0007C000
0007C000
0007C000
FFFFFFFC
FFFFFFFC
FFFFFFFC
FFFFFFFC
FFFFFFFC
0007C000
0007C000
0007C000
0007C000
0007C000
0007C000
0007C000
0007C000
0007C000
0007C000
0007C000
0007C000
0007C000
0007C000
ENDCHAR
STARTCHAR 002C
ENCODING 44
SWIDTH 600 0
DWIDTH 42 0
BBX 12 19 15 -10
BITMAP
1FF0
1FE0
1FE0
1FE0
1FE0
1FC0
3FC0
3FC0
3F80
3F80
3F00
7F00
7F00
7E00
7E00
7C00
FC00
FC00
F800
ENDCHAR
STARTCHAR 002D
ENCODING 45
SWIDTH 600 0
DWIDTH 42 0
BBX 22 5 10 16
BITMAP
FFFFFC
FFFFFC
FFFFFC
FFFFFC
FFFFFC
ENDCHAR
STARTCHAR 002E
ENCODING 46
SWIDTH 600 0
DWIDTH 42 0
BBX 8 10 17 -1
BITMAP
10
7E
FF
FF
FF
FF
FF
FF
7E
10
ENDCHAR
STARTCHAR 002F
ENCODING 47
SWIDTH 600 0
DWIDTH 42 0
BBX 26 50 8 0
BITMAP
00001FC0
00001F80
00001F80
00003F00
00003F00
00007F00
00007E00
00007E00
0000FC00
0000FC00
0000FC00
0001F800
0001F800
0003F000
0003F000
0003F000
0007E000
0007E000
000FE000
000FC000
000FC000
001F8000
001F8000
001F8000
003F0000
003F0000
007E0000
007E0000
007E0000
00FC0000
00FC0000
01FC0000
01F80000
01F80000
03F00000
03F00000
03F00000
07E00000
07E00000
0FC00000
0FC00000
0FC00000
1F800000
1F800000
3F800000
3F000000
3F000000
7E000000
7E000000
FE000000
ENDCHAR
STARTCHAR 0030
ENCODING 48
SWIDTH 600 0
DWIDTH 42 0
BBX 34 52 4 -1
BITMAP
000FF80000
003FFF0000
00FFFFC000
01FFFFE000
03FFFFF000
07FC0FF800
0FF003FC00
0FE001FC00
1FC000FE00
1F8001FE00
3F8003FF00
3F0003FF00
3F0007FF00
7E0007FF00
7E000FDF80
7E001FDF80
7E001F9F80
7E003F9F80
7C003F0F80
FC007F0F80
FC007E0FC0
FC00FC0FC0
FC01FC0FC0
FC01F80FC0
FC03F80FC0
FC03F00FC0
FC07E00FC0
FC0FE00FC0
FC0FC00FC0
FC1FC00FC0
FC1F800FC0
FC3F000FC0
7C3F000F80
7E7E000F80
7EFE000F80
7EFC001F80
7FFC001F80
7FF8001F80
3FF0001F00
3FF0003F00
3FE0003F00
1FE0007E00
1FC0007E00
0FC000FE00
0FE001FC00
07F807F800
07FFFFF800
03FFFFF000
01FFFFE000
007FFF8000
001FFE0000
0000C00000
ENDCHAR
STARTCHAR 0031
ENCODING 49
SWIDTH 600 0
DWIDTH 42 0
BBX 29 50 7 0
BITMAP
0007E000
001FE000
007FE000
01FFE000
07FFE000
1FFFE000
7FFFE000
FFF7E000
FF87E000
7E07E000
3C07E000
3007E000
0007E000
0007E000
0007E000
0007E000
0007E000
0007E000
0007E000
0007E000
0007E000
0007E000
0007E000
0007E000
0007E000
0007E000
0007E000
0007E000
0007E000
0007E000
0007E000
0007E000
0007E000
0007E000
0007E000
0007E000
0007E000
0007E000
0007E000
0007E000
0007E000
0007E000
0007E000
0007E000
0007E000
3FFFFFF8
3FFFFFF8
3FFFFFF8
3FFFFFF8
3FFFFFF8
ENDCHAR
STARTCHAR 0032
ENCODING 50
SWIDTH 600 0
DWIDTH 42 0
BBX 33 51 5 0
BITMAP
001FF00000
00FFFE0000
07FFFF8000
0FFFFFC000
3FFFFFE000
FFF03FF000
7FC007F800
3F0003F800
3C0001FC00
180001FC00
000000FC00
000000FC00
000000FC00
000000FC00
000000FC00
000000FC00
000000FC00
000000FC00
000001FC00
000001FC00
000001F800
000003F800
000003F800
000007F000
00000FF000
00001FE000
00001FC000
00003FC000
00007F8000
0000FF0000
0001FE0000
0003FE0000
0007FC0000
000FF80000
001FF00000
003FE00000
003FC00000
007F800000
00FF000000
01FE000000
03FC000000
07F8000000
0FF0000000
1FE0000000
3FC0000000
7F80000000
FFFFFFFF80
FFFFFFFF80
FFFFFFFF80
FFFFFFFF80
FFFFFFFF80
ENDCHAR
STARTCHAR 0033
ENCODING 51
SWIDTH 600 0
DWIDTH 42 0
BBX 32 52 5 -1
BITMAP
003FF800
01FFFE00
0FFFFF80
3FFFFFC0
FFFFFFE0
7FF03FF0
3F0007F8
3C0003F8
180001FC
000001FC
000000FC
000000FC
000000FC
000000FC
000000FC
000000FC
000001FC
000001F8
000003F8
000003F8
000007F0
00001FE0
00007FC0
00FFFF00
00FFFC00
00FFF800
00FFFF80
00FFFFE0
00003FF0
000007F8
000001FC
000000FE
000000FE
0000007E
0000007F
0000007F
0000007F
0000007F
0000007F
0000007F
0000007E
000000FE
000000FE
800001FC
E00003FC
FC000FF8
FFFFFFF0
FFFFFFE0
FFFFFFC0
7FFFFF00
0FFFFC00
000C0000
ENDCHAR
STARTCHAR 0034
ENCODING 52
SWIDTH 600 0
DWIDTH 42 0
BBX 36 50 3 0
BITMAP
000007F000
00000FF000
00000FF000
00001FF000
00003FF000
00003FF000
00007FF000
00007DF000
0000FDF000
0001FBF000
0001FBF000
0003F3F000
0003F3F000
0007E3F000
000FC3F000
000FC3F000
001F83F000
001F83F000
003F03F000
007E03F000
007E03F000
00FC03F000
00FC03F000
01F803F000
03F003F000
03F003F000
07E003F000
07C003F000
0FC003F000
1F8003F000
1F8003F000
3F0003F000
7E0003F000
7E0003F000
FFFFFFFFF0
FFFFFFFFF0
FFFFFFFFF0
FFFFFFFFF0
FFFFFFFFF0
000003F000
000003F000
000003F000
000003F000
000003F000
000003F000
000003F000
000003F000
000003F000
000003F000
000003F000
ENDCHAR
STARTCHAR 0035
ENCODING 53
SWIDTH 600 0
DWIDTH 42 0
BBX 30 51 6 -1
BITMAP
3FFFFFE0
3FFFFFE0
3FFFFFE0
3FFFFFE0
3FFFFFE0
3F000000
3F000000
3F000000
3F000000
3F000000
3E000000
3E000000
3E000000
7E000000
7E000000
7E000000
7E000000
7E000000
7E000000
7EFFE000
7FFFFC00
7FFFFF00
7FFFFF80
7FFFFFC0
1E00FFE0
00001FF0
00000FF8
000007F8
000003F8
000001FC
000001FC
000001FC
000000FC
000000FC
000000FC
000000FC
000000FC
000000FC
000001FC
000001FC
000001F8
000003F8
800007F0
C0000FF0
F8003FE0
FFFFFFC0
FFFFFF80
FFFFFF00
7FFFFC00
0FFFE000
00180000
ENDCHAR
STARTCHAR 0036
ENCODING 54
SWIDTH 600 0
DWIDTH 42 0
BBX 34 52 4 -1
BITMAP
00003FF800
0003FFFC00
000FFFFC00
003FFFFC00
007FFFFC00
00FFE00C00
01FF000000
03FC000000
07F8000000
0FF0000000
0FE0000000
1FC0000000
1F80000000
1F80000000
3F00000000
3F00000000
3F00000000
7E00000000
7E00000000
7E03FE0000
7E0FFFC000
7E3FFFF000
7E7FFFF800
FEFFFFFC00
FDFC07FE00
FDF000FF00
FFC0007F00
FF80003F80
FF00003F80
FF00001F80
FE00001F80
FE00001FC0
FE00000FC0
FC00000FC0
FC00000FC0
7E00000FC0
7E00000FC0
7E00000FC0
7E00001FC0
3F00001F80
3F00001F80
3F80003F80
1F80003F00
1FC0007F00
0FE000FE00
0FF803FE00
07FFFFFC00
03FFFFF800
00FFFFF000
007FFFC000
001FFF0000
0000400000
ENDCHAR
STARTCHAR 0037
ENCODING 55
SWIDTH 600 0
DWIDTH 42 0
BBX 34 50 4 0
BITMAP
FFFFFFFFC0
FFFFFFFFC0
FFFFFFFFC0
FFFFFFFFC0
FFFFFFFFC0
0000001F80
0000001F80
0000003F80
0000003F00
0000003F00
0000007E00
0000007E00
000000FC00
000000FC00
000001FC00
000001F800
000001F800
000003F000
000003F000
000007F000
000007E000
00000FE000
00000FC000
00000FC000
00001F8000
00001F8000
00003F8000
00003F0000
00007F0000
00007E0000
00007E0000
0000FE0000
0000FC0000
0001FC0000
0001F80000
0003F80000
0003F00000
0003F00000
0007F00000
0007E00000
000FE00000
000FC00000
001FC00000
001FC00000
001F800000
003F800000
003F000000
007F000000
007E000000
00FE000000
ENDCHAR
STARTCHAR 0038
ENCODING 56
SWIDTH 600 0
DWIDTH 42 0
BBX 32 52 5 -1
BITMAP
000FF800
00FFFF00
01FFFF80
07FFFFE0
0FFFFFF0
1FF81FF8
1FC003F8
3F8001FC
3F0000FC
3F0000FC
7F0000FC
7E0000FE
7E0000FE
7F0000FC
3F0000FC
3F0000FC
3F8001FC
1FC003F8
1FE007F8
0FF00FF0
07FC3FE0
03FFFFC0
01FFFF80
00FFFE00
003FF800
00FFFE00
01FFFF80
07FCFFC0
0FF03FE0
1FE00FF8
3FC007F8
3F8001FC
7F0000FE
7E00007E
FE00007F
FC00003F
FC00003F
FC00003F
FC00003F
FC00003F
FC00003F
FE00007F
FE00007E
7F0000FE
7F8001FE
3FC007FC
1FFFFFF8
0FFFFFF0
07FFFFE0
03FFFF80
007FFE00
00038000
ENDCHAR
STARTCHAR 0039
ENCODING 57
SWIDTH 600 0
DWIDTH 42 0
BBX 34 52 4 -1
BITMAP
000FF80000
007FFF0000
01FFFFC000
03FFFFE000
07FFFFF000
0FF81FF800
1FE003FC00
3F8001FC00
3F8000FE00
7F00007E00
7E00003F00
7E00003F00
7E00001F80
FC00001F80
FC00001F80
FC00001F80
FC00000F80
FC00000F80
FC00001FC0
FC00001FC0
FE00001FC0
7E00001FC0
7E00003FC0
7F00003FC0
7F00007FC0
3F8000FFC0
1FC003FFC0
1FF81FEFC0
0FFFFFDFC0
07FFFF9F80
03FFFF1F80
00FFFC1F80
001FF01F80
0000001F80
0000003F80
0000003F00
0000003F00
0000007F00
0000007E00
000000FE00
000000FC00
000001FC00
000003F800
000007F800
00001FF000
00007FE000
07FFFFC000
07FFFF8000
07FFFE0000
07FFF80000
07FFE00000
0030000000
ENDCHAR
STARTCHAR 003A
ENCODING 58
SWIDTH 600 0
DWIDTH 42 0
BBX 8 39 17 -1
BITMAP
08
7E
FF
FF
FF
FF
FF
FF
7E
08
00
00
00
00
00
00
00
00
00
00
00
00
00
00
00
00
00
00
00
10
7E
FF
FF
FF
FF
FF
FF
7E
10
ENDCHAR
STARTCHAR 003B
ENCODING 59
SWIDTH 600 0
DWIDTH 42 0
BBX 12 48 15 -10
BITMAP
0100
07E0
0FE0
1FF0
1FF0
1FF0
1FF0
0FE0
07E0
0100
0000
0000
0000
0000
0000
0000
0000
0000
0000
0000
0000
0000
0000
0000
0000
0000
0000
0000
0000
1FF0
1FE0
1FE0
1FE0
1FE0
1FC0
3FC0
3FC0
3F80
3F80
3F00
7F00
7F00
7E00
7E00
7C00
FC00
FC00
F800
ENDCHAR
STARTCHAR 003C
ENCODING 60
SWIDTH 600 0
DWIDTH 42 0
BBX 30 35 6 8
BITMAP
00000004
0000000C
0000003C
000000FC
000003FC
000007FC
00001FF8
00007FE0
0001FF80
0003FE00
000FF800
003FF000
00FFC000
03FF0000
07FC0000
1FF00000
7FC00000
FF800000
FE000000
FF800000
7FE00000
1FF80000
07FE0000
01FF8000
007FE000
001FFC00
0007FF00
0001FFC0
00007FF0
00001FFC
000007FC
000001FC
0000007C
0000001C
00000004
ENDCHAR
STARTCHAR 003D
ENCODING 61
SWIDTH 600 0
DWIDTH 42 0
BBX 32 19 5 15
BITMAP
FFFFFFFF
FFFFFFFF
FFFFFFFF
FFFFFFFF
FFFFFFFF
00000000
00000000
00000000
00000000
00000000
00000000
00000000
00000000
00000000
FFFFFFFF
FFFFFFFF
FFFFFFFF
FFFFFFFF
FFFFFFFF
ENDCHAR
STARTCHAR 003E
ENCODING 62
SWIDTH 600 0
DWIDTH 42 0
BBX 30 35 6 8
BITMAP
80000000
C0000000
F0000000
FC000000
FF000000
FF800000
7FE00000
1FF80000
07FE0000
01FF0000
007FC000
003FF000
000FFC00
0003FF00
0000FF80
00003FE0
00000FF8
000007FC
000001FC
000007FC
00001FF8
00007FE0
0001FF80
0007FE00
001FF800
00FFE000
03FF8000
0FFE0000
3FF80000
FFE00000
FF800000
FE000000
F8000000
E0000000
80000000
ENDCHAR
STARTCHAR 003F
ENCODING 63
SWIDTH 600 0
DWIDTH 42 0
BBX 30 52 6 -1
BITMAP
00FFF000
07FFFE00
3FFFFF00
FFFFFFC0
7FFFFFE0
7FC03FF0
3E0007F0
300003F8
000001F8
000001F8
000001FC
000000FC
000000FC
000000FC
000000FC
000001FC
000001F8
000001F8
000003F8
000003F0
000007F0
00000FE0
00003FC0
00007F80
0000FF00
0001FE00
0003FC00
0007F800
000FE000
001FC000
001F8000
001F8000
003F0000
003F0000
003F0000
003F0000
003F0000
00000000
00000000
00000000
00000000
00000000
00040000
003F0000
007F8000
007F8000
007F8000
007F8000
007F8000
007F8000
003F0000
00040000
ENDCHAR
STARTCHAR 0040
ENCODING 64
SWIDTH 600 0
DWIDTH 42 0
BBX 40 57 1 -7
BITMAP
00007FC000
0003FFF800
000FFFFC00
003FFFFF00
007FFFFF80
00FFC0FFC0
01FE001FE0
03F80007F0
07F00003F0
07E00001F8
0FC00001F8
0F800000FC
1F8000007C
1F0000007C
3F003FE03E
3E00FFFC3E
3E03FFFC3E
3C07FFFC3E
7C0FE0FC1F
7C0FC07C1F
7C1F807C1F
7C1F007C1F
783F00FC1F
F83F00FC1F
F83E00FC1F
F83E00FC1F
F83E00FC1F
F87E00FC1F
F87E00FC1F
F87E00F81F
F87E00F81F
F83E00F81E
F83E00F81E
F83E01F81E
F83E01F83E
F83F01FC3C
F81F03FC3C
7C1F87DE7C
7C0FFF9FF8
7C0FFF1FF8
7C03FE0FF0
3E01F807C0
3E00000000
3F00000000
1F00000000
1F80000000
0FC0000000
0FC0000000
07E0000000
07F8000040
03FC0003C0
01FF801FC0
00FFFFFFC0
007FFFFFC0
001FFFFF80
0007FFFE00
0000FFE000
ENDCHAR
STARTCHAR 0041
ENCODING 65
SWIDTH 600 0
DWIDTH 42 0
BBX 40 50 1 0
BITMAP
0000FE0000
0000FF0000
0000FF0000
0001FF0000
0001FF8000
0001FF8000
0001FF8000
0003FFC000
0003FFC000
0003E7C000
0007E7E000
0007E7E000
0007C7E000
000FC3F000
000FC3F000
000FC3F000
001F81F800
001F81F800
001F81F800
003F00FC00
003F00FC00
003F00FC00
007E007E00
007E007E00
007E007E00
00FC003F00
00FC003F00
00FC003F00
01F8003F80
01FFFFFF80
01FFFFFF80
03FFFFFFC0
03FFFFFFC0
03FFFFFFC0
07E00007E0
07E00007E0
07E00007E0
0FE00007F0
0FC00003F0
0FC00003F0
1FC00003F8
1F800001F8
1F800001F8
3F800001F8
3F000000FC
3F000000FC
3F000000FC
7F000000FE
7E0000007E
FE0000007F
ENDCHAR
STARTCHAR 0042
ENCODING 66
SWIDTH 600 0
DWIDTH 42 0
BBX 31 50 7 0
BITMAP
FFFFE000
FFFFFE00
FFFFFF80
FFFFFFC0
FFFFFFE0
FC007FF0
FC000FF8
FC0003F8
FC0003F8
FC0001F8
FC0001FC
FC0001FC
FC0001FC
FC0001FC
FC0001FC
FC0001FC
FC0001F8
FC0001F8
FC0003F8
FC0007F0
FC000FE0
FC007FC0
FFFFFF80
FFFFFE00
FFFFF800
FFFFFF80
FFFFFFE0
FC003FF0
FC0007F8
FC0003FC
FC0001FC
FC0000FE
FC0000FE
FC0000FE
FC00007E
FC00007E
FC00007E
FC00007E
FC0000FE
FC0000FE
FC0000FE
FC0001FC
FC0003FC
FC0007F8
FC003FF0
FFFFFFF0
FFFFFFE0
FFFFFF80
FFFFFE00
FFFFF000
ENDCHAR
STARTCHAR 0043
ENCODING 67
SWIDTH 600 0
DWIDTH 42 0
BBX 34 52 5 -1
BITMAP
0000FFE000
000FFFFE00
003FFFFFC0
007FFFFF80
01FFFFFF80
03FF807F00
07FC000700
07F8000100
0FF0000000
1FE0000000
1FC0000000
3F80000000
3F80000000
3F00000000
7F00000000
7E00000000
7E00000000
FE00000000
FE00000000
FC00000000
FC00000000
FC00000000
FC00000000
FC00000000
FC00000000
FC00000000
FC00000000
FC00000000
FC00000000
FC00000000
FC00000000
FC00000000
FE00000000
FE00000000
FE00000000
7E00000000
7F00000000
7F00000000
3F80000000
3F80000000
3FC0000000
1FE0000000
1FE0000000
0FF8000100
07FE000E00
03FFFFFE00
03FFFFFE00
00FFFFFE00
007FFFFE00
001FFFFE00
0007FFF000
0000180000
ENDCHAR
STARTCHAR 0044
ENCODING 68
SWIDTH 600 0
DWIDTH 42 0
BBX 34 50 5 0
BITMAP
FFFF800000
FFFFF80000
FFFFFE0000
FFFFFF8000
FFFFFFC000
FC01FFE000
FC003FF000
FC000FF800
FC0003FC00
FC0001FC00
FC0000FE00
FC0000FE00
FC00007F00
FC00007F00
FC00003F00
FC00003F80
FC00003F80
FC00001F80
FC00001F80
FC00001FC0
FC00001FC0
FC00001FC0
FC00001FC0
FC00001FC0
FC00001FC0
FC00001FC0
FC00001FC0
FC00001FC0
FC00001FC0
FC00001FC0
FC00001F80
FC00001F80
FC00001F80
FC00003F80
FC00003F80
FC00003F00
FC00007F00
FC00007F00
FC0000FE00
FC0001FE00
FC0001FC00
FC0007F800
FC000FF800
FC003FF000
FC01FFE000
FFFFFFC000
FFFFFF0000
FFFFFC0000
FFFFF00000
FFFF000000
ENDCHAR
STARTCHAR 0045
ENCODING 69
SWIDTH 600 0
DWIDTH 42 0
BBX 29 50 7 0
BITMAP
FFFFFFF8
FFFFFFF8
FFFFFFF8
FFFFFFF8
FFFFFFF8
FC000000
FC000000
FC000000
FC000000
FC000000
FC000000
FC000000
FC000000
FC000000
FC000000
FC000000
FC000000
FC000000
FC000000
FC000000
FC000000
FC000000
FFFFFFF0
FFFFFFF0
FFFFFFF0
FFFFFFF0
FFFFFFF0
FC000000
FC000000
FC000000
FC000000
FC000000
FC000000
FC000000
FC000000
FC000000
FC000000
FC000000
FC000000
FC000000
FC000000
FC000000
FC000000
FC000000
FC000000
FFFFFFF8
FFFFFFF8
FFFFFFF8
FFFFFFF8
FFFFFFF8
ENDCHAR
STARTCHAR 0046
ENCODING 70
SWIDTH 600 0
DWIDTH 42 0
BBX 29 50 7 0
BITMAP
FFFFFFF8
FFFFFFF8
FFFFFFF8
FFFFFFF8
FFFFFFF8
FC000000
FC000000
FC000000
FC000000
FC000000
FC000000
FC000000
FC000000
FC000000
FC000000
FC000000
FC000000
FC000000
FC000000
FC000000
FC000000
FC000000
FC000000
FC000000
FFFFFFF0
FFFFFFF0
FFFFFFF0
FFFFFFF0
FFFFFFF0
FC000000
FC000000
FC000000
FC000000
FC000000
FC000000
FC000000
FC000000
FC000000
FC000000
FC000000
FC000000
FC000000
FC000000
FC000000
FC000000
FC000000
FC000000
FC000000
FC000000
FC000000
ENDCHAR
STARTCHAR 0047
ENCODING 71
SWIDTH 600 0
DWIDTH 42 0
BBX 34 52 3 -1
BITMAP
0000FFE000
0007FFFE00
001FFFFFC0
007FFFFF80
00FFFFFF80
01FFC03F00
03FE000700
07F8000100
07F0000000
0FE0000000
1FC0000000
1FC0000000
3F80000000
3F80000000
3F00000000
7F00000000
7F00000000
7E00000000
7E00000000
7E00000000
FE00000000
FE00000000
FE00000000
FE00000000
FE00000000
FE001FFFC0
FE001FFFC0
FE001FFFC0
FE001FFFC0
FE001FFFC0
FE00000FC0
FE00000FC0
FE00000FC0
7E00000FC0
7E00000FC0
7F00000FC0
7F00000FC0
3F00000FC0
3F80000FC0
3F80000FC0
1FC0000FC0
1FC0000FC0
0FE0000FC0
0FF0000FC0
07FC000FC0
03FF001FC0
01FFFFFFC0
00FFFFFFC0
007FFFFFC0
001FFFFF80
0007FFF800
00000C0000
ENDCHAR
STARTCHAR 0048
ENCODING 72
SWIDTH 600 0
DWIDTH 42 0
BBX 32 50 5 0
BITMAP
FC00003F
FC00003F
FC00003F
FC00003F
FC00003F
FC00003F
FC00003F
FC00003F
FC00003F
FC00003F
FC00003F
FC00003F
FC00003F
FC00003F
FC00003F
FC00003F
FC00003F
FC00003F
FC00003F
FC00003F
FC00003F
FC00003F
FFFFFFFF
FFFFFFFF
FFFFFFFF
FFFFFFFF
FFFFFFFF
FC00003F
FC00003F
FC00003F
FC00003F
FC00003F
FC00003F
FC00003F
FC00003F
FC00003F
FC00003F
FC00003F
FC00003F
FC00003F
FC00003F
FC00003F
FC00003F
FC00003F
FC00003F
FC00003F
FC00003F
FC00003F
FC00003F
FC00003F
ENDCHAR
STARTCHAR 0049
ENCODING 73
SWIDTH 600 0
DWIDTH 42 0
BBX 26 50 8 0
BITMAP
FFFFFFC0
FFFFFFC0
FFFFFFC0
FFFFFFC0
FFFFFFC0
003F0000
003F0000
003F0000
003F0000
003F0000
003F0000
003F0000
003F0000
003F0000
003F0000
003F0000
003F0000
003F0000
003F0000
003F0000
003F0000
003F0000
003F0000
003F0000
003F0000
003F0000
003F0000
003F0000
003F0000
003F0000
003F0000
003F0000
003F0000
003F0000
003F0000
003F0000
003F0000
003F0000
003F0000
003F0000
003F0000
003F0000
003F0000
003F0000
003F0000
3FFFFF80
FFFFFFC0
FFFFFFC0
FFFFFFC0
FFFFFFC0
ENDCHAR
STARTCHAR 004A
ENCODING 74
SWIDTH 600 0
DWIDTH 42 0
BBX 26 51 7 -1
BITMAP
00001FC0
00001FC0
00001FC0
00001FC0
00001FC0
00001FC0
00001FC0
00001FC0
00001FC0
00001FC0
00001FC0
00001FC0
00001FC0
00001FC0
00001FC0
00001FC0
00001FC0
00001FC0
00001FC0
00001FC0
00001FC0
00001FC0
00001FC0
00001FC0
00001FC0
00001FC0
00001FC0
00001FC0
00001FC0
00001FC0
00001FC0
00001FC0
00001FC0
00001FC0
00001FC0
00001FC0
00001F80
00001F80
00001F80
00003F80
00003F80
00007F80
8000FF00
E001FF00
FFFFFE00
FFFFFC00
FFFFFC00
FFFFF800
FFFFE000
1FFF8000
00200000
ENDCHAR
STARTCHAR 004B
ENCODING 75
SWIDTH 600 0
DWIDTH 42 0
BBX 34 50 5 0
BITMAP
FC00007F80
FC00007F00
FC0000FE00
FC0001FC00
FC0003FC00
FC0003F800
FC0007F000
FC000FE000
FC001FE000
FC001FC000
FC003F8000
FC007F0000
FC00FF0000
FC00FE0000
FC01FC0000
FC03F80000
FC07F80000
FC07F00000
FC0FE00000
FC1FE00000
FC3FC00000
FC3F800000
FC7F000000
FCFF800000
FCFF800000
FDFFC00000
FDFFE00000
FFEFE00000
FFE7F00000
FFC7F00000
FF83F80000
FF01FC0000
FE01FC0000
FC00FE0000
FC007F0000
FC007F0000
FC003F8000
FC003FC000
FC001FC000
FC000FE000
FC000FE000
FC0007F000
FC0003F800
FC0003F800
FC0001FC00
FC0001FE00
FC0000FE00
FC00007F00
FC00007F80
FC00003FC0
ENDCHAR
STARTCHAR 004C
ENCODING 76
SWIDTH 600 0
DWIDTH 42 0
BBX 28 50 8 0
BITMAP
FC000000
FC000000
FC000000
FC000000
FC000000
FC000000
FC000000
FC000000
FC000000
FC000000
FC000000
FC000000
FC000000
FC000000
FC000000
FC000000
FC000000
FC000000
FC000000
FC000000
FC000000
FC000000
FC000000
FC000000
FC000000
FC000000
FC000000
FC000000
FC000000
FC000000
FC000000
FC000000
FC000000
FC000000
FC000000
FC000000
FC000000
FC000000
FC000000
FC000000
FC000000
FC000000
FC000000
FC000000
FFFFFFF0
FFFFFFF0
FFFFFFF0
FFFFFFF0
FFFFFFF0
FFFFFFF0
ENDCHAR
STARTCHAR 004D
ENCODING 77
SWIDTH 600 0
DWIDTH 42 0
BBX 36 50 3 0
BITMAP
FFC0003FF0
FFC0003FF0
FFC0003FF0
FFE0007FF0
FFE0007FF0
FFE0007FF0
FBE0007FF0
FFF000FFF0
FFF000FFF0
FDF000FBF0
FDF801FBF0
FDF801FBF0
FCF801F3F0
FCF801F3F0
FCFC03F3F0
FCFC03E3F0
FC7C03E3F0
FC7C07E3F0
FC7E07E3F0
FC3E07C3F0
FC3E07C3F0
FC3F0FC3F0
FC1F0F83F0
FC1F0F83F0
FC1F1F83F0
FC1F9F03F0
FC0F9F03F0
FC0F9F03F0
FC0FFF03F0
FC07FE03F0
FC07FE03F0
FC07FE03F0
FC03FC03F0
FC03FC03F0
FC03FC03F0
FC03FC03F0
FC01F803F0
FC01F803F0
FC000003F0
FC000003F0
FC000003F0
FC000003F0
FC000003F0
FC000003F0
FC000003F0
FC000003F0
FC000003F0
FC000003F0
FC000003F0
FC000003F0
ENDCHAR
STARTCHAR 004E
ENCODING 78
SWIDTH 600 0
DWIDTH 42 0
BBX 32 50 5 0
BITMAP
FF00003F
FF80003F
FF80003F
FFC0003F
FFC0003F
FFE0003F
FFE0003F
FBF0003F
FBF0003F
F9F0003F
F9F8003F
F9F8003F
FCFC003F
FCFC003F
FC7E003F
FC7E003F
FC3E003F
FC3F003F
FC1F003F
FC1F803F
FC1F803F
FC0FC03F
FC0FC03F
FC07C03F
FC07E03F
FC03E03F
FC03F03F
FC01F03F
FC01F83F
FC01F83F
FC00FC3F
FC00FC3F
FC007C3F
FC007E3F
FC003E3F
FC003F3F
FC001F3F
FC001FBF
FC001FBF
FC000FBF
FC000FDF
FC0007DF
FC0007FF
FC0003FF
FC0003FF
FC0003FF
FC0001FF
FC0001FF
FC0000FF
FC0000FF
ENDCHAR
STARTCHAR 004F
ENCODING 79
SWIDTH 600 0
DWIDTH 42 0
BBX 36 52 3 -1
BITMAP
0007FE0000
001FFF8000
007FFFE000
00FFFFF800
03FFFFFC00
03FE07FC00
07F801FE00
0FE0007F00
0FE0003F00
1FC0003F80
1F80001F80
3F80001FC0
3F00000FC0
3F00000FC0
7F00000FE0
7F00000FE0
7E000007E0
7E000007E0
7E000007E0
FE000007E0
FE000007F0
FE000007F0
FE000007F0
FE000007F0
FE000007F0
FE000007F0
FE000007F0
FE000007F0
FE000007F0
FE000007F0
FE000007F0
FE000007F0
7E000007E0
7E000007E0
7E000007E0
7E000007E0
7F00000FE0
7F00000FC0
3F00000FC0
3F80001FC0
3F80001FC0
1F80001F80
1FC0003F80
0FE0007F00
0FF000FE00
07FC01FE00
03FFFFFC00
01FFFFF800
00FFFFF000
007FFFC000
000FFF0000
0000600000
ENDCHAR
STARTCHAR 0050
ENCODING 80
SWIDTH 600 0
DWIDTH 42 0
BBX 31 50 7 0
BITMAP
FFFFF000
FFFFFE00
FFFFFF80
FFFFFFE0
FFFFFFF0
FC007FF0
FC0007F8
FC0003FC
FC0001FC
FC0000FC
FC0000FE
FC0000FE
FC0000FE
FC00007E
FC00007E
FC00007E
FC00007E
FC00007E
FC0000FE
FC0000FE
FC0000FC
FC0001FC
FC0001FC
FC0007F8
FC000FF0
FC007FF0
FFFFFFE0
FFFFFFC0
FFFFFF00
FFFFFC00
FFFFE000
FC000000
FC000000
FC000000
FC000000
FC000000
FC000000
FC000000
FC000000
FC000000
FC000000
FC000000
FC000000
FC000000
FC000000
FC000000
FC000000
FC000000
FC000000
FC000000
ENDCHAR
STARTCHAR 0051
ENCODING 81
SWIDTH 600 0
DWIDTH 42 0
BBX 36 63 3 -12
BITMAP
0007FE0000
001FFF8000
007FFFE000
00FFFFF800
03FFFFFC00
03FE07FC00
07F801FE00
0FE0007F00
0FE0003F00
1FC0003F80
1F80001F80
3F80001FC0
3F00000FC0
3F00000FC0
7F00000FE0
7F00000FE0
7E000007E0
7E000007E0
7E000007E0
FE000007E0
FE000007F0
FE000007F0
FE000007F0
FE000007F0
FE000007F0
FE000007F0
FE000007F0
FE000007F0
FE000007F0
FE000007F0
FE000007F0
FE000007F0
7E000007E0
7E000007E0
7E000007E0
7E000007E0
7F00000FE0
7F00000FE0
3F00000FC0
3F80001FC0
3F80001FC0
1F80001F80
1FC0003F80
0FE0007F00
0FF000FF00
07FC01FE00
03FFFFFC00
01FFFFF800
00FFFFF000
007FFFE000
000FFFF000
000043F000
000003F800
000001FC00
000001FC00
000000FE00
000000FE00
0000007F00
0000007F00
0000003F80
0000003F80
0000001FC0
0000001FE0
ENDCHAR
STARTCHAR 0052
ENCODING 82
SWIDTH 600 0
DWIDTH 42 0
BBX 33 50 7 0
BITMAP
FFFF800000
FFFFF80000
FFFFFE0000
FFFFFF8000
FFFFFFC000
FC01FFC000
FC001FE000
FC000FF000
FC0007F000
FC0007F000
FC0003F800
FC0003F800
FC0003F800
FC0003F800
FC0003F800
FC0003F800
FC0003F800
FC0003F800
FC0003F000
FC0007F000
FC0007F000
FC000FE000
FC001FC000
FC00FFC000
FFFFFF8000
FFFFFE0000
FFFFFC0000
FFFFF00000
FFFFF00000
FC03F80000
FC01F80000
FC01FC0000
FC00FC0000
FC00FE0000
FC007F0000
FC007F0000
FC003F8000
FC001F8000
FC001FC000
FC000FE000
FC000FE000
FC0007F000
FC0007F000
FC0003F800
FC0001FC00
FC0001FC00
FC0000FE00
FC0000FE00
FC00007F00
FC00003F80
ENDCHAR
STARTCHAR 0053
ENCODING 83
SWIDTH 600 0
DWIDTH 42 0
BBX 31 52 6 -1
BITMAP
000FFE00
007FFFE0
01FFFFFC
07FFFFFC
0FFFFFF8
1FF807F8
1FE00078
3F800010
3F800000
7F000000
7F000000
7F000000
7F000000
7F000000
7F000000
7F000000
7F000000
3F800000
3FC00000
3FE00000
1FF80000
0FFE0000
0FFF8000
03FFF000
01FFFC00
007FFF00
001FFF80
0007FFE0
0001FFF0
00007FF8
00001FF8
000007FC
000003FC
000001FE
000000FE
000000FE
0000007E
0000007E
0000007E
000000FE
000000FE
000000FE
000001FC
800001FC
E00007F8
FC000FF8
FFFFFFF0
FFFFFFE0
FFFFFFC0
7FFFFF00
0FFFF800
000E0000
ENDCHAR
STARTCHAR 0054
ENCODING 84
SWIDTH 600 0
DWIDTH 42 0
BBX 36 50 3 0
BITMAP
FFFFFFFFF0
FFFFFFFFF0
FFFFFFFFF0
FFFFFFFFF0
FFFFFFFFF0
0001F80000
0001F80000
0001F80000
0001F80000
0001F80000
0001F80000
0001F80000
0001F80000
0001F80000
0001F80000
0001F80000
0001F80000
0001F80000
0001F80000
0001F80000
0001F80000
0001F80000
0001F80000
0001F80000
0001F80000
0001F80000
0001F80000
0001F80000
0001F80000
0001F80000
0001F80000
0001F80000
0001F80000
0001F80000
0001F80000
0001F80000
0001F80000
0001F80000
0001F80000
0001F80000
0001F80000
0001F80000
0001F80000
0001F80000
0001F80000
0001F80000
0001F80000
0001F80000
0001F80000
0001F80000
ENDCHAR
STARTCHAR 0055
ENCODING 85
SWIDTH 600 0
DWIDTH 42 0
BBX 32 51 5 -1
BITMAP
FC00003F
FC00003F
FC00003F
FC00003F
FC00003F
FC00003F
FC00003F
FC00003F
FC00003F
FC00003F
FC00003F
FC00003F
FC00003F
FC00003F
FC00003F
FC00003F
FC00003F
FC00003F
FC00003F
FC00003F
FC00003F
FC00003F
FC00003F
FC00003F
FC00003F
FC00003F
FC00003F
FC00003F
FC00003F
FC00003F
FC00003F
FC00003F
FC00003F
FC00003F
FC00003F
FC00003F
FE00007F
FE00007F
FE00007E
7E00007E
7F0000FE
7F0000FE
3F8001FC
3FC003FC
1FE007F8
0FFFFFF0
0FFFFFE0
03FFFFC0
01FFFF80
007FFE00
00018000
ENDCHAR
STARTCHAR 0056
ENCODING 86
SWIDTH 600 0
DWIDTH 42 0
BBX 38 50 2 0
BITMAP
FC000001FC
FE000001FC
7E000001F8
7E000001F8
7F000003F8
3F000003F8
3F000003F0
3F800007F0
3F800007F0
1F800007E0
1F800007E0
1FC0000FE0
0FC0000FC0
0FC0000FC0
0FE0001FC0
07E0001F80
07E0001F80
07F0003F80
03F0003F00
03F0003F00
03F0003F00
01F8007E00
01F8007E00
01F8007E00
00FC00FE00
00FC00FC00
00FC00FC00
007E00FC00
007E01F800
007E01F800
003E01F800
003F03F000
003F03F000
001F03F000
001F83E000
001F87E000
000F87E000
000FC7C000
000FC7C000
000FCFC000
0007CF8000
0007EF8000
0007EF8000
0003FF8000
0003FF0000
0003FF0000
0001FF0000
0001FE0000
0001FE0000
0000FE0000
ENDCHAR
STARTCHAR 0057
ENCODING 87
SWIDTH 600 0
DWIDTH 42 0
BBX 38 50 2 0
BITMAP
FC000000FC
FC000000FC
FC000000FC
FC000000FC
FC000000FC
FC000000FC
FC000000FC
7C000000FC
7C000000F8
7C000000F8
7E000000F8
7E000001F8
7E000001F8
7E00FC01F8
7E00FC01F8
7E01FE01F8
3E01FE01F8
3E01FE01F8
3E01FE01F0
3E01FF01F0
3F03FF01F0
3F03EF01F0
3F03CF03F0
3F03CF83F0
3F07CF83F0
1F07CF83F0
1F07C783F0
1F0787C3E0
1F0F87C3E0
1F0F87C3E0
1F0F83C3E0
1F0F03E3E0
1F9F03E3E0
1F9F03E3E0
0F9F01E3E0
0F9F01E3E0
0F9E01F3E0
0FBE01F7C0
0FBE00F7C0
0FBE00F7C0
0FBC00FFC0
0FBC00FFC0
0FFC007FC0
07FC007FC0
07F8007FC0
07F8007FC0
07F8003FC0
07F8003F80
07F0003F80
07F0003F80
ENDCHAR
STARTCHAR 0058
ENCODING 88
SWIDTH 600 0
DWIDTH 42 0
BBX 38 50 2 0
BITMAP
7F800003F8
3F800007F0
1FC0000FE0
0FC0000FC0
0FE0001FC0
07E0001F80
07F0003F80
03F0003F00
01F8007E00
01FC00FE00
00FC00FC00
00FE01FC00
007E01F800
003F03F000
003F03F000
001F87E000
001F87E000
000FCFC000
0007FFC000
0007FF8000
0003FF0000
0003FF0000
0001FE0000
0000FE0000
0000FC0000
0001FE0000
0001FE0000
0003FF0000
0007FF8000
0007FF8000
000FCFC000
000FCFC000
001F87E000
003F87F000
003F03F000
007F01F800
007E01F800
00FC00FC00
01FC00FE00
01F8007E00
03F8003F00
03F0003F00
07F0001F80
0FE0001FC0
0FC0000FC0
1FC0000FE0
1F800007E0
3F800003F0
7F000003F8
FE000001FC
ENDCHAR
STARTCHAR 0059
ENCODING 89
SWIDTH 600 0
DWIDTH 42 0
BBX 38 50 2 0
BITMAP
FF000001FC
7F000003F8
3F800003F0
3F800007F0
1F800007E0
1FC0000FE0
0FC0000FC0
0FE0001FC0
07E0001F80
07F0003F80
03F0003F00
03F8007F00
01F8007E00
01FC007E00
00FC00FC00
00FE00FC00
007E01F800
007E01F800
003F03F000
003F03F000
001F87E000
001F87E000
000FCFC000
000FCFC000
0007FF8000
0007FF8000
0003FF0000
0003FF0000
0001FE0000
0001FE0000
0000FC0000
0000FC0000
0000FC0000
0000FC0000
0000FC0000
0000FC0000
0000FC0000
0000FC0000
0000FC0000
0000FC0000
0000FC0000
0000FC0000
0000FC0000
0000FC0000
0000FC0000
0000FC0000
0000FC0000
0000FC0000
0000FC0000
0000FC0000
ENDCHAR
STARTCHAR 005A
ENCODING 90
SWIDTH 600 0
DWIDTH 42 0
BBX 28 50 7 0
BITMAP
7FFFFFF0
7FFFFFF0
7FFFFFF0
7FFFFFF0
7FFFFFF0
000003F0
000007E0
000007E0
00000FC0
00001FC0
00001F80
00003F80
00003F00
00007F00
00007E00
0000FC00
0000FC00
0001F800
0003F800
0003F000
0007F000
0007E000
000FE000
000FC000
001FC000
001F8000
003F0000
003F0000
007E0000
00FE0000
00FC0000
01FC0000
01F80000
03F80000
03F00000
07F00000
07E00000
0FC00000
1FC00000
1F800000
3F800000
3F000000
7F000000
7E000000
FE000000
FFFFFFF0
FFFFFFF0
FFFFFFF0
FFFFFFF0
FFFFFFF0
ENDCHAR
STARTCHAR 005B
ENCODING 91
SWIDTH 600 0
DWIDTH 42 0
BBX 16 61 17 -11
BITMAP
FFFF
FFFF
FFFF
FFFF
FFFF
FC00
FC00
FC00
FC00
FC00
FC00
FC00
FC00
FC00
FC00
FC00
FC00
FC00
FC00
FC00
FC00
FC00
FC00
FC00
FC00
FC00
FC00
FC00
FC00
FC00
FC00
FC00
FC00
FC00
FC00
FC00
FC00
FC00
FC00
FC00
FC00
FC00
FC00
FC00
FC00
FC00
FC00
FC00
FC00
FC00
FC00
FC00
FC00
FC00
FC00
FC00
FFFF
FFFF
FFFF
FFFF
FFFF
ENDCHAR
STARTCHAR 005C
ENCODING 92
SWIDTH 600 0
DWIDTH 42 0
BBX 26 50 8 0
BITMAP
FE000000
7E000000
7E000000
3F000000
3F000000
3F800000
1F800000
1F800000
0FC00000
0FC00000
0FC00000
07E00000
07E00000
03F00000
03F00000
03F00000
01F80000
01F80000
01FC0000
00FC0000
00FC0000
007E0000
007E0000
007E0000
003F0000
003F0000
001F8000
001F8000
001F8000
000FC000
000FC000
000FE000
0007E000
0007E000
0003F000
0003F000
0003F000
0001F800
0001F800
0000FC00
0000FC00
0000FC00
00007E00
00007E00
00007F00
00003F00
00003F00
00001F80
00001F80
00001FC0
ENDCHAR
STARTCHAR 005D
ENCODING 93
SWIDTH 600 0
DWIDTH 42 0
BBX 16 61 9 -10
BITMAP
FFFF
FFFF
FFFF
FFFF
FFFF
003F
003F
003F
003F
003F
003F
003F
003F
003F
003F
003F
003F
003F
003F
003F
003F
003F
003F
003F
003F
003F
003F
003F
003F
003F
003F
003F
003F
003F
003F
003F
003F
003F
003F
003F
003F
003F
003F
003F
003F
003F
003F
003F
003F
003F
003F
003F
003F
003F
003F
003F
FFFF
FFFF
FFFF
FFFF
FFFF
ENDCHAR
STARTCHAR 005E
ENCODING 94
SWIDTH 600 0
DWIDTH 42 0
BBX 36 32 3 19
BITMAP
0001E00000
0001F00000
0001F00000
0003F80000
0003F80000
0007FC0000
0007FC0000
000FBE0000
000FBE0000
001F1F0000
001F1F0000
003E0F8000
003E0F8000
007C07C000
007C07C000
00F803E000
00F803E000
01F801F000
01F001F000
03F000F800
03E000F800
07E0007C00
07C0007E00
07C0003E00
0F80003F00
0F80001F00
1F00001F80
1F00000F80
3F00000FC0
3E000007C0
7E000007E0
FC000003F0
ENDCHAR
STARTCHAR 005F
ENCODING 95
SWIDTH 600 0
DWIDTH 42 0
BBX 42 5 0 -11
BITMAP
FFFFFFFFFFC0
FFFFFFFFFFC0
FFFFFFFFFFC0
FFFFFFFFFFC0
FFFFFFFFFFC0
ENDCHAR
STARTCHAR 0060
ENCODING 96
SWIDTH 600 0
DWIDTH 42 0
BBX 14 11 13 42
BITMAP
FF00
7F00
3F80
3FC0
1FC0
0FE0
07F0
03F0
01F8
00FC
003C
ENDCHAR
STARTCHAR 0061
ENCODING 97
SWIDTH 600 0
DWIDTH 42 0
BBX 31 39 5 -1
BITMAP
00010000
00FFFE00
07FFFF80
1FFFFFE0
1FFFFFF0
1FFFFFF8
0FC007F8
0E0003FC
080001FC
000000FC
000000FC
0000007E
0000007E
0000007E
0000007E
0000007E
001FFFFE
01FFFFFE
07FFFFFE
0FFFFFFE
3FF0007E
3F80007E
7F00007E
7E00007E
FC00007E
FC00007E
FC0000FE
FC0000FE
FC0000FE
FC0001FE
FE0003FE
FE0007FE
7F801FFE
7FFFFF7E
3FFFFE7E
1FFFFC7E
0FFFF07E
03FFC03E
00180000
ENDCHAR
STARTCHAR 0062
ENCODING 98
SWIDTH 600 0
DWIDTH 42 0
BBX 32 54 6 -1
BITMAP
FC000000
FC000000
FC000000
FC000000
FC000000
FC000000
FC000000
FC000000
FC000000
FC000000
FC000000
FC000000
FC000000
FC000000
FC000000
FC004000
FC1FFE00
FC3FFF80
FCFFFFC0
FDFFFFE0
FBFFFFF0
FFE00FF8
FFC003FC
FF8001FC
FF0000FE
FE0000FE
FE0000FE
FE00007E
FC00007F
FC00007F
FC00007F
FC00003F
FC00003F
FC00003F
FC00003F
FC00003F
FC00003F
FC00003F
FC00007F
FC00007F
FC00007F
FE00007E
FE0000FE
FE0000FE
FF0000FE
FF8001FC
FFC003F8
FFE00FF8
FBFFFFF0
F9FFFFE0
F8FFFFC0
F87FFF80
F81FFE00
0000C000
ENDCHAR
STARTCHAR 0063
ENCODING 99
SWIDTH 600 0
DWIDTH 42 0
BBX 29 39 6 -1
BITMAP
00002000
001FFFC0
007FFFF0
01FFFFF8
07FFFFF8
0FFFFFF0
0FF800F0
1FE00030
3FC00000
3F800000
7F000000
7F000000
7E000000
7E000000
FE000000
FE000000
FE000000
FC000000
FC000000
FC000000
FC000000
FC000000
FE000000
FE000000
FE000000
FE000000
7E000000
7F000000
7F000000
3F800000
3FC00000
1FE00008
1FF80078
0FFFFFF8
07FFFFF8
03FFFFF8
00FFFFF8
001FFFC0
00004000
ENDCHAR
STARTCHAR 0064
ENCODING 100
SWIDTH 600 0
DWIDTH 42 0
BBX 32 54 4 -1
BITMAP
0000003F
0000003F
0000003F
0000003F
0000003F
0000003F
0000003F
0000003F
0000003F
0000003F
0000003F
0000003F
0000003F
0000003F
0000003F
0001003F
007FF83F
01FFFE3F
03FFFF3F
07FFFFBF
0FFFFFDF
1FF007FF
3FE003FF
3FC001FF
7F8000FF
7F00007F
7F00007F
FE00007F
FE00003F
FE00003F
FE00003F
FC00003F
FC00003F
FC00003F
FC00003F
FC00003F
FC00003F
FC00003F
FC00003F
FE00003F
FE00003F
7E00007F
7E00007F
7F00007F
7F0000FF
3F8001FF
3FC003FF
1FF007FF
0FFFFFDF
07FFFF9F
03FFFF1F
01FFFE1F
007FF81F
00030000
ENDCHAR
STARTCHAR 0065
ENCODING 101
SWIDTH 600 0
DWIDTH 42 0
BBX 34 39 4 -1
BITMAP
0000400000
000FFF0000
007FFFC000
00FFFFF000
03FFFFF800
07FFFFFC00
0FF801FE00
0FE000FE00
1FC0007F00
3F80003F00
3F00003F80
7F00001F80
7E00001F80
7E00001FC0
7E00001FC0
FFFFFFFFC0
FFFFFFFFC0
FFFFFFFFC0
FFFFFFFFC0
FFFFFFFFC0
FE00000000
FE00000000
FE00000000
FE00000000
7E00000000
7E00000000
7F00000000
7F00000000
3F80000000
3F80000000
1FC0000100
1FF0000700
0FFC003F00
07FFFFFF00
03FFFFFF00
00FFFFFF00
003FFFFE00
000FFFF000
0000300000
ENDCHAR
STARTCHAR 0066
ENCODING 102
SWIDTH 600 0
DWIDTH 42 0
BBX 35 53 5 0
BITMAP
000007FE00
00007FFFE0
0000FFFFE0
0001FFFFC0
0003FFFFC0
0007FE03C0
0007F00000
000FE00000
000FE00000
000FE00000
000FC00000
000FC00000
000FC00000
000FC00000
000FC00000
000FC00000
07FFFFFF00
FFFFFFFF00
FFFFFFFF00
FFFFFFFF00
FFFFFFFF00
000FC00000
000FC00000
000FC00000
000FC00000
000FC00000
000FC00000
000FC00000
000FC00000
000FC00000
000FC00000
000FC00000
000FC00000
000FC00000
000FC00000
000FC00000
000FC00000
000FC00000
000FC00000
000FC00000
000FC00000
000FC00000
000FC00000
000FC00000
000FC00000
000FC00000
000FC00000
000FC00000
000FC00000
000FC00000
000FC00000
000FC00000
000FC00000
ENDCHAR
STARTCHAR 0067
ENCODING 103
SWIDTH 600 0
DWIDTH 42 0
BBX 32 55 4 -17
BITMAP
00010000
007FF81F
01FFFE1F
03FFFF1F
07FFFF9F
0FFFFFDF
1FF007FF
1FC001FF
3F8000FF
3F8000FF
7F00007F
7F00007F
7E00003F
FE00003F
FE00003F
FE00003F
FC00001F
FC00001F
FC00001F
FC00001F
FC00001F
FC00001F
FC00001F
FE00001F
FE00003F
FE00003F
7E00003F
7F00003F
7F00007F
3F80007F
3F8000FF
1FC001FF
1FF007FF
0FFFFFDF
07FFFFDF
03FFFF9F
01FFFF1F
007FFC1F
0001001F
0000003F
0000003F
0000003F
0000003F
0000003F
0000007F
0000007F
000000FE
200001FE
3C0003FC
3FC01FFC
3FFFFFF8
3FFFFFF0
3FFFFFC0
07FFFF00
007FF800
ENDCHAR
STARTCHAR 0068
ENCODING 104
SWIDTH 600 0
DWIDTH 42 0
BBX 31 53 6 0
BITMAP
FC000000
FC000000
FC000000
FC000000
FC000000
FC000000
FC000000
FC000000
FC000000
FC000000
FC000000
FC000000
FC000000
FC000000
FC000000
FC004000
FC0FFF00
FC3FFFC0
FC7FFFE0
FCFFFFF0
FDFFFFF8
FDF00FF8
FFC003FC
FF8001FC
FF0001FC
FF0000FC
FE0000FE
FE0000FE
FE0000FE
FC0000FE
FC0000FE
FC0000FE
FC0000FE
FC0000FE
FC0000FE
FC0000FE
FC0000FE
FC0000FE
FC0000FE
FC0000FE
FC0000FE
FC0000FE
FC0000FE
FC0000FE
FC0000FE
FC0000FE
FC0000FE
FC0000FE
FC0000FE
FC0000FE
FC0000FE
FC0000FE
FC0000FE
ENDCHAR
STARTCHAR 0069
ENCODING 105
SWIDTH 600 0
DWIDTH 42 0
BBX 32 53 6 0
BITMAP
0007C000
000FE000
001FF000
001FF000
001FF000
001FF000
001FF000
000FE000
0007C000
00000000
00000000
00000000
00000000
00000000
00000000
00000000
7FFFE000
7FFFE000
7FFFE000
7FFFE000
7FFFE000
0007E000
0007E000
0007E000
0007E000
0007E000
0007E000
0007E000
0007E000
0007E000
0007E000
0007E000
0007E000
0007E000
0007E000
0007E000
0007E000
0007E000
0007E000
0007E000
0007E000
0007E000
0007E000
0007E000
0007E000
0007E000
0007E000
0007E000
0FFFFFE0
FFFFFFFF
FFFFFFFF
FFFFFFFF
FFFFFFFF
ENDCHAR
STARTCHAR 006A
ENCODING 106
SWIDTH 600 0
DWIDTH 42 0
BBX 24 70 4 -17
BITMAP
00003C
0000FE
0000FF
0000FF
0000FF
0000FF
0000FF
0000FE
00003C
000000
000000
000000
000000
000000
000000
000000
07FFFF
07FFFF
07FFFF
07FFFF
07FFFF
0001FF
00007F
00007F
00007F
00007F
00007F
00007F
00007F
00007F
00007F
00007F
00007F
00007F
00007F
00007F
00007F
00007F
00007F
00007F
00007F
00007F
00007F
00007F
00007F
00007F
00007F
00007F
00007F
00007F
00007F
00007F
00007F
00007F
00007F
00007F
00007F
00007F
00007F
00007F
00007E
0000FE
0000FE
8003FC
F00FFC
FFFFF8
FFFFF0
FFFFE0
FFFF80
0FFC00
ENDCHAR
STARTCHAR 006B
ENCODING 107
SWIDTH 600 0
DWIDTH 42 0
BBX 33 53 7 0
BITMAP
FE00000000
FE00000000
FE00000000
FE00000000
FE00000000
FE00000000
FE00000000
FE00000000
FE00000000
FE00000000
FE00000000
FE00000000
FE00000000
FE00000000
FE00000000
FE00000000
FE0000FF00
FE0001FE00
FE0003FC00
FE0007F800
FE000FF000
FE001FE000
FE003FC000
FE003F8000
FE007F0000
FE00FE0000
FE01FC0000
FE03F80000
FE07F00000
FE0FE00000
FE1FE00000
FC3FC00000
FC7F800000
FC7FC00000
FCFFE00000
FDFFF00000
FFF7F00000
FFE3F80000
FFC1FC0000
FF80FE0000
FF00FE0000
FE007F0000
FE003F8000
FE001FC000
FE001FC000
FE000FE000
FE0007F000
FE0003F800
FE0003F800
FE0001FC00
FE0000FE00
FE00007F00
FE00007F80
ENDCHAR
STARTCHAR 006C
ENCODING 108
SWIDTH 600 0
DWIDTH 42 0
BBX 32 53 6 0
BITMAP
FFFFF000
FFFFF000
FFFFF000
FFFFF000
FFFFF000
0007F000
0007F000
0007F000
0007F000
0007F000
0007F000
0007F000
0007F000
0007F000
0007F000
0007F000
0007F000
0007F000
0007F000
0007F000
0007F000
0007F000
0007F000
0007F000
0007F000
0007F000
0007F000
0007F000
0007F000
0007F000
0007F000
0007F000
0007F000
0007F000
0007F000
0007F000
0007F000
0007F000
0007F000
0007F000
0007F000
0007F000
0007F000
0007F000
0007F000
0007F000
0007F000
0007F000
07FFFFF0
FFFFFFFF
FFFFFFFF
FFFFFFFF
FFFFFFFF
ENDCHAR
STARTCHAR 006D
ENCODING 109
SWIDTH 600 0
DWIDTH 42 0
BBX 36 38 3 0
BITMAP
0004001000
F87F80FF00
F8FFC3FF80
F9FFE7FFC0
FFFFE7FFC0
FFFFFFFFE0
FF83FF07E0
FF03FE07E0
FE01FC07E0
FE01FC03E0
FE01FC03E0
FE01FC03E0
FE01F803F0
FC01F803F0
FC01F803F0
FC01F803F0
FC01F803F0
FC01F803F0
FC01F803F0
FC01F803F0
FC01F803F0
FC01F803F0
FC01F803F0
FC01F803F0
FC01F803F0
FC01F803F0
FC01F803F0
FC01F803F0
FC01F803F0
FC01F803F0
FC01F803F0
FC01F803F0
FC01F803F0
FC01F803F0
FC01F803F0
FC01F803F0
FC01F803F0
FC01F803F0
ENDCHAR
STARTCHAR 006E
ENCODING 110
SWIDTH 600 0
DWIDTH 42 0
BBX 31 38 6 0
BITMAP
00002000
F80FFF00
F83FFFC0
F87FFFE0
F8FFFFF0
F9FFFFF8
FBE007F8
FFC003FC
FF8001FC
FF0000FC
FE0000FE
FE0000FE
FE0000FE
FC0000FE
FC0000FE
FC0000FE
FC0000FE
FC0000FE
FC0000FE
FC0000FE
FC0000FE
FC0000FE
FC0000FE
FC0000FE
FC0000FE
FC0000FE
FC0000FE
FC0000FE
FC0000FE
FC0000FE
FC0000FE
FC0000FE
FC0000FE
FC0000FE
FC0000FE
FC0000FE
FC0000FE
FC0000FE
ENDCHAR
STARTCHAR 006F
ENCODING 111
SWIDTH 600 0
DWIDTH 42 0
BBX 34 39 4 -1
BITMAP
0000800000
001FFE0000
00FFFF8000
01FFFFE000
07FFFFF000
0FFFFFF800
0FF003FC00
1FE001FE00
3F8000FF00
3F80007F00
7F00003F80
7F00003F80
7E00001F80
FE00001FC0
FE00001FC0
FC00001FC0
FC00000FC0
FC00000FC0
FC00000FC0
FC00000FC0
FC00000FC0
FC00000FC0
FC00000FC0
FC00001FC0
FE00001FC0
FE00001FC0
7E00001F80
7F00003F80
7F00003F80
3F80007F00
3FC000FF00
1FE001FE00
0FF003FC00
0FFFFFFC00
03FFFFF800
01FFFFE000
00FFFFC000
001FFE0000
0000C00000
ENDCHAR
STARTCHAR 0070
ENCODING 112
SWIDTH 600 0
DWIDTH 42 0
BBX 32 55 6 -17
BITMAP
00004000
F81FFE00
F87FFF80
F8FFFFC0
F9FFFFE0
FBFFFFF0
FFE00FF8
FF8003FC
FF0001FC
FF0000FE
FE0000FE
FE00007E
FC00007E
FC00007F
FC00007F
FC00007F
FC00003F
FC00003F
FC00003F
FC00003F
FC00003F
FC00003F
FC00003F
FC00007F
FC00007F
FC00007F
FE00007E
FE00007E
FE0000FE
FF0000FE
FF8001FC
FF8003FC
FFE00FF8
FBFFFFF0
FDFFFFE0
FCFFFFC0
FC3FFF80
FC1FFE00
FC00C000
FC000000
FC000000
FC000000
FC000000
FC000000
FC000000
FC000000
FC000000
FC000000
FC000000
FC000000
FC000000
FC000000
FC000000
FC000000
FC000000
ENDCHAR
STARTCHAR 0071
ENCODING 113
SWIDTH 600 0
DWIDTH 42 0
BBX 32 55 4 -17
BITMAP
00010000
003FF81F
00FFFC1F
03FFFF1F
07FFFF9F
0FFFFFDF
1FF007FF
1FC003FF
3F8001FF
3F0000FF
7F00007F
7F00007F
7E00007F
FE00003F
FE00003F
FE00003F
FC00003F
FC00003F
FC00003F
FC00003F
FC00003F
FC00003F
FC00003F
FE00003F
FE00003F
FE00003F
7E00007F
7F00007F
7F00007F
3F8000FF
3F8000FF
3FC001FF
1FF007FF
0FFFFFFF
07FFFFBF
03FFFF3F
01FFFE3F
007FF83F
0003003F
0000003F
0000003F
0000003F
0000003F
0000003F
0000003F
0000003F
0000003F
0000003F
0000003F
0000003F
0000003F
0000003F
0000003F
0000003F
0000003F
ENDCHAR
STARTCHAR 0072
ENCODING 114
SWIDTH 600 0
DWIDTH 42 0
BBX 36 38 4 0
BITMAP
0000000800
7FFF80FFE0
7FFF83FFF0
7FFF87FFF0
7FFF8FFFE0
0FFF9FFFE0
000F9F8060
000FFE0020
000FFC0000
000FF80000
000FF00000
000FF00000
000FE00000
000FE00000
000FE00000
000FE00000
000FC00000
000FC00000
000FC00000
000FC00000
000FC00000
000FC00000
000FC00000
000FC00000
000FC00000
000FC00000
000FC00000
000FC00000
000FC00000
000FC00000
000FC00000
000FC00000
000FC00000
0FFFFF8000
FFFFFFF800
FFFFFFF800
FFFFFFF800
FFFFFFF800
ENDCHAR
STARTCHAR 0073
ENCODING 115
SWIDTH 600 0
DWIDTH 42 0
BBX 28 39 7 -1
BITMAP
00010000
00FFFE00
03FFFFC0
0FFFFFE0
1FFFFFC0
3FFFFFC0
3FC003C0
7F000080
7E000000
7E000000
7E000000
7E000000
7F000000
3F800000
3FE00000
1FF80000
0FFE0000
07FF8000
01FFF000
007FFC00
001FFF00
0007FF80
0001FFC0
00003FE0
00001FE0
000007E0
000007F0
000007F0
000007F0
000007F0
000007E0
E0000FE0
FC001FE0
FFFFFFC0
FFFFFF80
FFFFFF00
7FFFFE00
0FFFF000
00180000
ENDCHAR
STARTCHAR 0074
ENCODING 116
SWIDTH 600 0
DWIDTH 42 0
BBX 32 49 4 -1
BITMAP
001F0000
001F0000
001F0000
001F0000
001F0000
001F0000
001F0000
001F0000
003F0000
003F0000
003F0000
0FFFFFFE
FFFFFFFE
FFFFFFFE
FFFFFFFE
FFFFFFFE
003F0000
003F0000
003F0000
003F0000
003F0000
003F0000
003F0000
003F0000
003F0000
003F0000
003F0000
003F0000
003F0000
003F0000
003F0000
003F0000
003F0000
003F0000
003F0000
003F0000
003F0000
003F8000
003F8000
003F8000
001FC000
001FC000
001FF001
000FFFFF
000FFFFF
0007FFFF
0001FFFF
00007FFF
00000180
ENDCHAR
STARTCHAR 0075
ENCODING 117
SWIDTH 600 0
DWIDTH 42 0
BBX 31 38 5 -1
BITMAP
FE00007E
FE00007E
FE00007E
FE00007E
FE00007E
FE00007E
FE00007E
FE00007E
FE00007E
FE00007E
FE00007E
FE00007E
FE00007E
FE00007E
FE00007E
FE00007E
FE00007E
FE00007E
FE00007E
FE00007E
FE00007E
FE00007E
FE00007E
FE00007E
FE00007E
FE0000FE
FE0000FE
FE0000FE
7E0001FE
7F0003FE
7F8007FE
3FC00FFE
3FFFFFBE
1FFFFF3E
0FFFFE3E
07FFF83E
01FFE03E
000C0000
ENDCHAR
STARTCHAR 0076
ENCODING 118
SWIDTH 600 0
DWIDTH 42 0
BBX 36 37 3 0
BITMAP
FE000007F0
7E000007E0
7E00000FE0
7F00000FC0
3F00000FC0
3F80001FC0
1F80001F80
1F80001F80
1FC0003F80
0FC0003F00
0FC0003F00
0FE0007E00
07E0007E00
07E000FE00
03F000FC00
03F000FC00
03F001FC00
01F801F800
01F801F800
01FC03F000
00FC03F000
00FC03F000
007E07E000
007E07E000
007E07E000
003F0FC000
003F0FC000
003F0F8000
001F9F8000
001F9F8000
000FBF0000
000FFF0000
000FFF0000
0007FE0000
0007FE0000
0007FC0000
0003FC0000
ENDCHAR
STARTCHAR 0077
ENCODING 119
SWIDTH 600 0
DWIDTH 42 0
BBX 40 37 1 0
BITMAP
FC0000003F
FC0000003F
7C0000003F
7E0000003E
7E0000007E
7E0000007E
7E0000007E
7E00FF007E
3E00FF007E
3E00FF007C
3F01FF00FC
3F01FF80FC
3F01FF80FC
3F01FF80FC
3F03FFC0FC
1F03E7C0F8
1F03E7C0F8
1F87E7C1F8
1F87C7E1F8
1F87C3E1F8
1F87C3E1F8
0F8FC3F1F0
0F8F83F1F0
0F8F81F1F0
0F8F81F3F0
0FDF81F3F0
0FDF00FBF0
07DF00FBE0
07DF00FBE0
07DE00FBE0
07FE007FE0
07FE007FE0
07FE007FE0
03FC007FC0
03FC003FC0
03FC003FC0
03FC003FC0
ENDCHAR
STARTCHAR 0078
ENCODING 120
SWIDTH 600 0
DWIDTH 42 0
BBX 36 37 3 0
BITMAP
7F00000FE0
3F80001FC0
1FC0003F80
1FC0003F80
0FE0007F00
07F000FE00
03F801FC00
03F801FC00
01FC03F800
00FE07F000
007E07E000
007F0FE000
003F9FC000
001FFF8000
000FFF0000
000FFF0000
0007FE0000
0003FC0000
0003FC0000
0007FE0000
0007FE0000
000FFF0000
001FFF8000
003F9FC000
003F0FC000
007F0FE000
00FE07F000
01FC03F800
01FC03F800
03F801FC00
07F000FE00
0FE0007F00
0FE0007F00
1FC0003F80
3F80001FC0
7F00000FE0
FF00000FF0
ENDCHAR
STARTCHAR 0079
ENCODING 121
SWIDTH 600 0
DWIDTH 42 0
BBX 36 54 3 -17
BITMAP
FE000007F0
7E000007E0
7E00000FE0
3F00000FC0
3F00000FC0
3F80001FC0
1F80001F80
1F80001F80
0FC0003F80
0FC0003F00
07E0003F00
07E0007E00
07E0007E00
03F0007E00
03F000FC00
01F800FC00
01F800FC00
00FC01F800
00FC01F800
00FC01F000
007E03F000
007E03F000
003F03E000
003F07E000
003F07E000
001F87C000
001F8FC000
000F8F8000
000FCF8000
0007DF8000
0007DF0000
0007FF0000
0003FF0000
0003FE0000
0001FE0000
0001FC0000
0000FC0000
0000FC0000
0001F80000
0001F80000
0001F80000
0003F00000
0003F00000
0007E00000
0007E00000
000FE00000
000FC00000
001FC00000
407F800000
7FFF000000
7FFE000000
7FFC000000
7FF8000000
3FE0000000
ENDCHAR
STARTCHAR 007A
ENCODING 122
SWIDTH 600 0
DWIDTH 42 0
BBX 30 37 6 0
BITMAP
7FFFFFF8
7FFFFFF8
7FFFFFF8
7FFFFFF8
7FFFFFF8
000003F8
000007F0
00000FE0
00000FE0
00001FC0
00003F80
00007F00
0000FE00
0000FE00
0001FC00
0003F800
0007F000
0007E000
000FE000
001FC000
003F8000
007F0000
007E0000
00FE0000
01FC0000
03F80000
07F00000
07E00000
0FE00000
1FC00000
3F800000
7F000000
7FFFFFFC
FFFFFFFC
FFFFFFFC
FFFFFFFC
FFFFFFFC
ENDCHAR
STARTCHAR 007B
ENCODING 123
SWIDTH 600 0
DWIDTH 42 0
BBX 22 61 10 -11
BITMAP
00007C
0003FC
0007FC
001FFC
003FFC
003FE0
007F80
007F00
007E00
00FE00
00FE00
00FC00
00FC00
00FC00
00FC00
00FC00
00FC00
00FC00
00FC00
00FC00
00FC00
00FC00
00FC00
00FC00
00FC00
01FC00
03F800
0FF800
FFE000
FF8000
FE0000
FFC000
FFE000
0FF800
03F800
01FC00
00FC00
00FC00
00FC00
00FC00
00FC00
00FC00
00FC00
00FC00
00FC00
00FC00
00FC00
00FC00
00FC00
00FC00
00FC00
00FE00
007E00
007F00
007F80
003FE0
003FFC
001FFC
000FFC
0003FC
00007C
ENDCHAR
STARTCHAR 007C
ENCODING 124
SWIDTH 600 0
DWIDTH 42 0
BBX 6 70 18 -17
BITMAP
FC
FC
FC
FC
FC
FC
FC
FC
FC
FC
FC
FC
FC
FC
FC
FC
FC
FC
FC
FC
FC
FC
FC
FC
FC
FC
FC
FC
FC
FC
FC
FC
FC
FC
FC
FC
FC
FC
FC
FC
FC
FC
FC
FC
FC
FC
FC
FC
FC
FC
FC
FC
FC
FC
FC
FC
FC
FC
FC
FC
FC
FC
FC
FC
FC
FC
FC
FC
FC
FC
ENDCHAR
STARTCHAR 007D
ENCODING 125
SWIDTH 600 0
DWIDTH 42 0
BBX 22 61 10 -11
BITMAP
F80000
FF0000
FFC000
FFE000
FFF000
1FF000
07F800
03F800
01F800
01FC00
01FC00
00FC00
00FC00
00FC00
00FC00
00FC00
00FC00
00FC00
00FC00
00FC00
00FC00
00FC00
00FC00
00FC00
00FC00
00FE00
007F00
007FC0
001FFC
000FFC
0001FC
000FFC
001FFC
007FC0
007F00
00FE00
00FC00
00FC00
00FC00
00FC00
00FC00
00FC00
00FC00
00FC00
00FC00
00FC00
00FC00
00FC00
00FC00
00FC00
01FC00
01FC00
01F800
03F800
07F800
1FF000
FFF000
FFE000
FF8000
FF0000
F80000
ENDCHAR
STARTCHAR 007E
ENCODING 126
SWIDTH 600 0
DWIDTH 42 0
BBX 32 12 5 20
BITMAP
03F0001F
0FFC001E
1FFE001E
3FFF001E
3E1F801E
7C0FE03E
7807F03C
7801F87C
7800FFF8
F8007FF8
F0003FF0
F0000FC0
ENDCHAR
STARTCHAR 00A0
ENCODING 160
SWIDTH 600 0
DWIDTH 42 0
BBX 0 0 0 0
BITMAP
ENDCHAR
STARTCHAR 00A1
ENCODING 161
SWIDTH 600 0
DWIDTH 42 0
BBX 8 51 17 -13
BITMAP
10
7E
FF
FF
FF
FF
FF
FF
7E
10
00
00
00
00
00
7E
7E
7E
7E
7E
7E
7E
7E
7E
7E
7E
7E
7E
7E
7E
7E
7E
7E
7E
7E
7E
7E
7E
7E
FE
FE
FE
FF
FF
FF
FF
FF
FF
FF
FF
FF
ENDCHAR
STARTCHAR 00A2
ENCODING 162
SWIDTH 600 0
DWIDTH 42 0
BBX 30 52 6 -1
BITMAP
0001E000
0001E000
0001E000
0001E000
0001E000
0001E000
0007FF80
003FFFF8
00FFFFFC
01FFFFF8
03FFFFF8
07FE03F0
0FF00030
1FE00000
1FC00000
3F800000
3F000000
7F000000
7F000000
7E000000
7E000000
7E000000
FE000000
FE000000
FE000000
FE000000
FE000000
FE000000
FE000000
FE000000
7E000000
7E000000
7E000000
7F000000
7F000000
3F800000
3FC00000
1FE00000
1FF00018
0FFE01F8
07FFFFF8
03FFFFF8
00FFFFF8
003FFFF0
0007FF80
0001E000
0001E000
0001E000
0001E000
0001E000
0001E000
0001E000
ENDCHAR
STARTCHAR 00A3
ENCODING 163
SWIDTH 600 0
DWIDTH 42 0
BBX 31 51 6 0
BITMAP
0000FF80
0007FFF0
000FFFFC
003FFFFC
007FFFF8
007F81F8
00FF0030
00FC0010
01FC0000
01FC0000
01F80000
01F80000
01F80000
01F80000
01F80000
01F80000
01F80000
01F80000
01F80000
01F80000
01F80000
01F80000
01F80000
01F80000
7FFFFF80
7FFFFF80
7FFFFF80
7FFFFF80
7FFFFF80
01F80000
01F80000
01F80000
01F80000
01F80000
01F80000
01F80000
01F80000
01F80000
01F80000
01F80000
03F00000
03F00000
07E00000
07E00000
0FC00000
3F800000
FFFFFFFE
FFFFFFFE
FFFFFFFE
FFFFFFFE
FFFFFFFE
ENDCHAR
STARTCHAR 00A4
ENCODING 164
SWIDTH 600 0
DWIDTH 42 0
BBX 32 32 5 9
BITMAP
10000008
3800001C
7C07F03E
FE3FFC7F
7FFFFFFE
3FFFFFFC
1FFFFFFC
1FF81FF8
0FE007F0
0FC001F0
0F8000F8
1F0000F8
1E000078
3E00007C
3E00007C
3E00007C
3E00007C
3E00007C
3E00007C
1E00007C
1F0000F8
1F0000F8
0F8001F0
0FE007F0
0FF81FF0
1FFFFFF8
3FFFFFFC
7FFFFFFE
FE3FFC7F
7C07F03E
3800001C
10000008
ENDCHAR
STARTCHAR 00A5
ENCODING 165
SWIDTH 600 0
DWIDTH 42 0
BBX 38 50 2 0
BITMAP
FE000001FC
7F000003F8
3F000003F0
3F800007F0
1F800007E0
1FC0000FE0
0FC0000FC0
0FE0001FC0
07E0001F80
07E0003F80
03F0003F00
03F0003F00
01F8007E00
01F8007E00
00FC00FC00
00FC00FC00
007E01F800
007E01F800
003F03F000
003F03F000
001F87E000
001F87E000
000FCFC000
000FCFC000
0007FF8000
0007FF8000
0003FF0000
03FFFFFF00
03FFFFFF00
03FFFFFF00
03FFFFFF00
0000FC0000
0000FC0000
0000FC0000
0000FC0000
0000FC0000
0000FC0000
03FFFFFF00
03FFFFFF00
03FFFFFF00
03FFFFFF00
0000FC0000
0000FC0000
0000FC0000
0000FC0000
0000FC0000
0000FC0000
0000FC0000
0000FC0000
0000FC0000
ENDCHAR
STARTCHAR 00A6
ENCODING 166
SWIDTH 600 0
DWIDTH 42 0
BBX 6 70 18 -17
BITMAP
FC
FC
FC
FC
FC
FC
FC
FC
FC
FC
FC
FC
FC
FC
FC
FC
FC
FC
FC
FC
FC
FC
FC
FC
FC
FC
FC
00
00
00
00
00
00
00
00
00
00
00
00
00
00
00
00
FC
FC
FC
FC
FC
FC
FC
FC
FC
FC
FC
FC
FC
FC
FC
FC
FC
FC
FC
FC
FC
FC
FC
FC
FC
FC
FC
ENDCHAR
STARTCHAR 00A7
ENCODING 167
SWIDTH 600 0
DWIDTH 42 0
BBX 26 54 8 -1
BITMAP
007FF000
03FFFE00
0FFFFFC0
1FFFFF80
3FFFFF80
7FC03F80
7E000300
7E000000
FC000000
FC000000
FC000000
7E000000
7F000000
7F800000
3FE00000
1FFC0000
0FFF0000
03FFE000
0FFFF000
1FFFFC00
3F07FE00
7E01FF00
7C007F80
FC001FC0
F8000FC0
F80007C0
F80007C0
FC0007C0
FC0007C0
7E0007C0
7F0007C0
3FC00F80
1FF01F80
0FFC3F00
03FFFE00
01FFFC00
003FFC00
000FFE00
0001FF00
00007F80
00003FC0
00001FC0
00000FC0
00000FC0
00000FC0
00000FC0
00000FC0
C0001F80
F8003F80
FFFFFF00
FFFFFE00
FFFFF800
3FFFE000
00300000
ENDCHAR
STARTCHAR 00A8
ENCODING 168
SWIDTH 600 0
DWIDTH 42 0
BBX 24 8 9 43
BITMAP
3C003C
7E007E
FF00FF
FF00FF
FF00FF
FF00FF
7E007E
3C003C
ENDCHAR
STARTCHAR 00A9
ENCODING 169
SWIDTH 600 0
DWIDTH 42 0
BBX 36 35 3 7
BITMAP
0007FE0000
003FFFC000
00FFFFF000
01FC03FC00
07E0007E00
0F80001F00
0F01FC0F80
1E07FF8780
3C0FFF83C0
3C1FFF03C0
783F0301E0
783E0001E0
703C0000E0
F07C0000F0
F0780000F0
F0780000F0
F0780000F0
F0780000F0
F0780000F0
F0780000F0
F0780000F0
F07C0000F0
703C0000E0
783E0001E0
781F0301E0
3C0FFF03C0
3C07FF03C0
1E01FE0780
1F00000F00
0F80001F00
07E0007E00
03FC03F800
00FFFFF000
003FFFC000
0007FE0000
ENDCHAR
STARTCHAR 00AA
ENCODING 170
SWIDTH 600 0
DWIDTH 42 0
BBX 19 23 11 27
BITMAP
07FC00
7FFF00
7FFF80
3C0FC0
2003E0
0003E0
0001E0
0001E0
0001E0
07FFE0
1FFFE0
7FFFE0
7E01E0
F801E0
F801E0
F003E0
F003E0
F003E0
F807E0
FC1FE0
7FFDE0
3FF9E0
0FE0E0
ENDCHAR
STARTCHAR 00AB
ENCODING 171
SWIDTH 600 0
DWIDTH 42 0
BBX 30 29 6 4
BITMAP
00180060
003C00F0
003F01FC
007F01F8
00FE03F0
01FC07E0
03F80FE0
03F01FC0
07E03F80
0FE03F00
1FC07E00
3F80FE00
3F01FC00
7E03F800
FE03F000
7E03F800
7F01FC00
3F80FE00
1FC07E00
0FE03F00
07E03F80
03F01FC0
03F80FE0
01FC07E0
00FC03F0
007E03F8
003F01FC
003E00F0
00180060
ENDCHAR
STARTCHAR 00AC
ENCODING 172
SWIDTH 600 0
DWIDTH 42 0
BBX 31 18 5 9
BITMAP
FFFFFFFE
FFFFFFFE
FFFFFFFE
FFFFFFFE
FFFFFFFE
0000003E
0000003E
0000003E
0000003E
0000003E
0000003E
0000003E
0000003E
0000003E
0000003E
0000003E
0000003E
0000003E
ENDCHAR
STARTCHAR 00AD
ENCODING 173
SWIDTH 600 0
DWIDTH 42 0
BBX 22 5 10 16
BITMAP
FFFFFC
FFFFFC
FFFFFC
FFFFFC
FFFFFC
ENDCHAR
STARTCHAR 00AE
ENCODING 174
SWIDTH 600 0
DWIDTH 42 0
BBX 36 35 3 7
BITMAP
0007FE0000
003FFFC000
00FFFFF000
01FC03FC00
07E0007E00
0F80001F00
0F0FF80F80
1E0FFE0780
3C0FFF03C0
3C0E0F83C0
780E0781E0
780E0381E0
700E03C0E0
F00E03C0F0
F00E0380F0
F00E0780F0
F00E0F80F0
F00FFF00F0
F00FFE00F0
F00FFC00F0
F00E1E00F0
F00E1E00F0
700E0F00E0
780E0F01E0
780E0781E0
3C0E03C3C0
3C0E03C3C0
1E0E01E780
1F00000F00
0F80001F00
07E0007E00
03FC03F800
00FFFFF000
003FFFC000
0007FE0000
ENDCHAR
STARTCHAR 00AF
ENCODING 175
SWIDTH 600 0
DWIDTH 42 0
BBX 20 5 11 43
BITMAP
FFFFF0
FFFFF0
FFFFF0
FFFFF0
FFFFF0
ENDCHAR
STARTCHAR 00B0
ENCODING 176
SWIDTH 600 0
DWIDTH 42 0
BBX 22 21 10 29
BITMAP
00FC00
07FF80
0FFFC0
1FFFE0
3F03F0
3E01F0
7C00F8
780078
780078
F8007C
F8007C
F8007C
780078
780078
7C00F8
3E01F0
3F83F0
1FFFE0
0FFFC0
07FF80
00FC00
ENDCHAR
STARTCHAR 00B1
ENCODING 177
SWIDTH 600 0
DWIDTH 42 0
BBX 31 41 5 0
BITMAP
0007C000
0007C000
0007C000
0007C000
0007C000
0007C000
0007C000
0007C000
0007C000
0007C000
0007C000
0007C000
0007C000
0007C000
FFFFFFFE
FFFFFFFE
FFFFFFFE
FFFFFFFE
FFFFFFFE
0007C000
0007C000
0007C000
0007C000
0007C000
0007C000
0007C000
0007C000
0007C000
0007C000
0007C000
0007C000
0007C000
00000000
00000000
00000000
00000000
7FFFFFFE
7FFFFFFE
7FFFFFFE
7FFFFFFE
7FFFFFFE
ENDCHAR
STARTCHAR 00B2
ENCODING 178
SWIDTH 600 0
DWIDTH 42 0
BBX 21 31 11 29
BITMAP
03FC00
0FFF00
3FFF80
7FFFC0
FE0FE0
7803E0
3001F0
0001F0
0001F0
0001F0
0001F0
0001E0
0003E0
0007E0
0007C0
000F80
001F00
003E00
007E00
00F800
01F000
03E000
07C000
0F8000
1F0000
3E0000
7C0000
FFFFF8
FFFFF8
FFFFF8
FFFFF8
ENDCHAR
STARTCHAR 00B3
ENCODING 179
SWIDTH 600 0
DWIDTH 42 0
BBX 20 31 11 29
BITMAP
07FC00
1FFF00
7FFF80
FFFFC0
7E0FE0
3807E0
2003E0
0003E0
0003E0
0003E0
0003E0
0007C0
001FC0
0FFF80
0FFE00
0FFF00
0FFFC0
000FE0
0003E0
0001F0
0001F0
0001F0
0001F0
0001F0
0003F0
C003E0
FC0FE0
FFFFC0
FFFF80
7FFF00
0FF800
ENDCHAR
STARTCHAR 00B4
ENCODING 180
SWIDTH 600 0
DWIDTH 42 0
BBX 14 11 17 42
BITMAP
01FC
03FC
07F8
07F0
0FE0
0FC0
1F80
3F00
7E00
7C00
F800
ENDCHAR
STARTCHAR 00B5
ENCODING 181
SWIDTH 600 0
DWIDTH 42 0
BBX 31 54 5 -17
BITMAP
FE00007E
FE00007E
FE00007E
FE00007E
FE00007E
FE00007E
FE00007E
FE00007E
FE00007E
FE00007E
FE00007E
FE00007E
FE00007E
FE00007E
FE00007E
FE00007E
FE00007E
FE00007E
FE00007E
FE00007E
FE00007E
FE00007E
FE00007E
FE00007E
FE00007E
FE0000FE
FE0000FE
FE0000FE
FE0001FE
FF0003FE
FF8007FE
FFC00FFE
FFFFFFBE
FFFFFF3E
FFFFFE3E
FFFFF83E
FFFFE03E
FE0C0000
FE000000
FE000000
FE000000
FE000000
FE000000
FE000000
FE000000
FE000000
FE000000
FE000000
FE000000
FE000000
FE000000
FE000000
FE000000
FE000000
ENDCHAR
STARTCHAR 00B6
ENCODING 182
SWIDTH 600 0
DWIDTH 42 0
BBX 35 62 3 -9
BITMAP
003FFFFFE0
00FFFFFFE0
03FFFFFFE0
07FFFFFFE0
0FFFFF01E0
1FFFFF01E0
1FFFFF01E0
3FFFFF01E0
3FFFFF01E0
7FFFFF01E0
7FFFFF01E0
7FFFFF01E0
7FFFFF01E0
7FFFFF01E0
7FFFFF01E0
7FFFFF01E0
FFFFFF01E0
FFFFFF01E0
FFFFFF01E0
7FFFFF01E0
7FFFFF01E0
7FFFFF01E0
7FFFFF01E0
7FFFFF01E0
7FFFFF01E0
7FFFFF01E0
3FFFFF01E0
3FFFFF01E0
3FFFFF01E0
1FFFFF01E0
0FFFFF01E0
07FFFF01E0
03FFFF01E0
00FFFF01E0
000F9F01E0
00001F01E0
00001F01E0
00001F01E0
00001F01E0
00001F01E0
00001F01E0
00001F01E0
00001F01E0
00001F01E0
00001F01E0
00001F01E0
00001F01E0
00001F01E0
00001F01E0
00001F01E0
00001F01E0
00001F01E0
00001F01E0
00001F01E0
00001F01E0
00001F01E0
00001F01E0
00001F01E0
00001F01E0
00001F01E0
00001F01E0
00001F01E0
ENDCHAR
STARTCHAR 00B7
ENCODING 183
SWIDTH 600 0
DWIDTH 42 0
BBX 8 10 17 19
BITMAP
10
7E
FF
FF
FF
FF
FF
FF
7E
10
ENDCHAR
STARTCHAR 00B8
ENCODING 184
SWIDTH 600 0
DWIDTH 42 0
BBX 14 17 14 -17
BITMAP
07C0
0780
0F00
0F00
1F80
1FE0
2FF8
01F8
00FC
007C
007C
00FC
01F8
FFF8
FFF0
FFE0
FF00
ENDCHAR
STARTCHAR 00B9
ENCODING 185
SWIDTH 600 0
DWIDTH 42 0
BBX 22 30 10 29
BITMAP
007C00
01FC00
07FC00
0FFC00
3FFC00
FFBC00
7F3C00
3C3C00
303C00
003C00
003C00
003C00
003C00
003C00
003C00
003C00
003C00
003C00
003C00
003C00
003C00
003C00
003C00
003C00
003C00
003C00
1FFFFC
1FFFFC
1FFFFC
1FFFFC
ENDCHAR
STARTCHAR 00BA
ENCODING 186
SWIDTH 600 0
DWIDTH 42 0
BBX 20 23 11 27
BITMAP
03FC00
0FFF00
1FFF80
3F0FC0
7C03E0
7801E0
F801F0
F801F0
F000F0
F000F0
F000F0
F000F0
F000F0
F000F0
F001F0
F801F0
F801F0
7801E0
7C03E0
3F0FC0
1FFF80
0FFF00
03F800
ENDCHAR
STARTCHAR 00BB
ENCODING 187
SWIDTH 600 0
DWIDTH 42 0
BBX 30 29 6 4
BITMAP
18006000
3C01F000
FE03F000
7F01F800
3F00FC00
1F80FE00
1FC07F00
0FE03F80
07F01F80
03F80FC0
01F80FE0
01FC07F0
00FE03F8
007F01F8
003F01FC
007F01F8
00FE03F8
01FC07F0
01F80FE0
03F01FC0
07F01F80
0FE03F00
1FC07F00
1F80FE00
3F01FC00
7F01F800
FE03F000
3C00F000
18006000
ENDCHAR
STARTCHAR 00BC
ENCODING 188
SWIDTH 600 0
DWIDTH 42 0
BBX 40 49 0 0
BITMAP
01F00001F8
07F00001F0
1FF00003F0
3FF00003E0
FFF00007E0
7EF00007C0
3CF0000FC0
30F0000F80
00F0001F80
00F0001F00
00F0003F00
00F0003E00
00F0007E00
00F0007C00
00F000F800
00F000F800
00F001F000
00F001F000
00F003E000
00F007E000
3FFFC7C000
3FFFCFC000
3FFFCF8000
3FFFDF8000
00001F0000
00003F00F8
00003E01F8
00007E03F8
00007C07F8
0000FC07F8
0000F80FF8
0001F81FF8
0001F01EF8
0003F03CF8
0003E07CF8
0007E0F8F8
0007C0F0F8
000F81F0F8
000F83E0F8
001F03C0F8
003F07FFFF
003E07FFFF
007E07FFFF
007C07FFFF
00FC0000F8
00F80000F8
01F80000F8
01F00000F8
03F00000F8
ENDCHAR
STARTCHAR 00BD
ENCODING 189
SWIDTH 600 0
DWIDTH 42 0
BBX 40 50 0 0
BITMAP
01F00001F8
07F00001F0
1FF00003F0
3FF00003E0
FFF00007E0
7EF00007C0
3CF0000FC0
30F0000F80
00F0001F80
00F0001F00
00F0003F00
00F0003E00
00F0007E00
00F0007C00
00F000FC00
00F000F800
00F001F800
00F001F000
00F003E000
00F003E000
3FFFC7C000
3FFFC7C000
3FFFCF8000
3FFFCF8000
00001F0000
00003F0FE0
00003E3FF8
00007EFFFC
00007DFFFE
0000FCF87E
0000F8603E
0001F8401F
0001F0001F
0003F0001F
0003E0003E
0007E0003E
0007C0007E
000FC000FC
000F8001F8
001F8003F0
001F0007E0
003F000FC0
003E001F80
007E003F00
007C007E00
00FC00FC00
00F801FFFF
01F801FFFF
01F001FFFF
03E001FFFF
ENDCHAR
STARTCHAR 00BE
ENCODING 190
SWIDTH 600 0
DWIDTH 42 0
BBX 39 50 1 0
BITMAP
07F0000000
3FFC0003F0
FFFE0003E0
7FFF0007E0
3C3F0007C0
101F800FC0
000F800F80
000F801F00
001F001F00
003F003E00
0FFE003E00
0FF8007C00
0FFE007C00
0FFF00F800
003F81F800
000F81F000
000F83F000
000F83E000
000F87E000
400F87C000
703F8FC000
7FFF0F8000
7FFE1F8000
7FFC1F0000
1FF03F0000
00003E0000
00007E03F0
00007C03F0
0000FC07F0
0000F80FF0
0001F80FF0
0001F01FF0
0003F03FF0
0003E07DF0
0007C079F0
0007C0F9F0
000F81F1F0
000F81E1F0
001F03E1F0
001F07C1F0
003E0781F0
007E0FFFFE
007C0FFFFE
00FC0FFFFE
00F80FFFFE
01F80001F0
01F00001F0
03F00001F0
03E00001F0
07E00001F0
ENDCHAR
STARTCHAR 00BF
ENCODING 191
SWIDTH 600 0
DWIDTH 42 0
BBX 29 52 5 -14
BITMAP
00008000
0007E000
000FF000
000FF000
000FF800
000FF800
000FF000
000FF000
0007E000
00008000
00000000
00000000
00000000
00000000
00000000
0003E000
0003E000
0003E000
0007E000
0007E000
0007E000
000FC000
001FC000
003F8000
007F8000
01FF0000
03FE0000
07FC0000
0FF00000
1FE00000
3FC00000
3F800000
7F000000
7E000000
FE000000
FC000000
FC000000
FC000000
FC000000
FC000000
FC000000
FC000000
FC000000
FE000000
7E000060
7F8003F0
3FE01FF0
3FFFFFF0
1FFFFFF8
07FFFFF0
01FFFF80
003FF800
ENDCHAR
STARTCHAR 00C0
ENCODING 192
SWIDTH 600 0
DWIDTH 42 0
BBX 40 65 1 0
BITMAP
001FC00000
001FE00000
000FF00000
0007F00000
0003F80000
0001F80000
0000FC0000
00007E0000
00003F0000
00001F0000
00000F8000
0000000000
0000000000
0000000000
0000000000
0000FE0000
0000FF0000
0000FF0000
0001FF0000
0001FF8000
0001FF8000
0001FF8000
0003FFC000
0003FFC000
0003E7C000
0007E7E000
0007E7E000
0007C7E000
000FC3F000
000FC3F000
000FC3F000
001F81F800
001F81F800
001F81F800
003F00FC00
003F00FC00
003F00FC00
007E007E00
007E007E00
007E007E00
00FC003F00
00FC003F00
00FC003F00
01F8003F80
01FFFFFF80
01FFFFFF80
03FFFFFFC0
03FFFFFFC0
03FFFFFFC0
07E00007E0
07E00007E0
07E00007E0
0FE00007F0
0FC00003F0
0FC00003F0
1FC00003F8
1F800001F8
1F800001F8
3F800001F8
3F000000FC
3F000000FC
3F000000FC
7F000000FE
7E0000007E
FE0000007F
ENDCHAR
STARTCHAR 00C1
ENCODING 193
SWIDTH 600 0
DWIDTH 42 0
BBX 40 65 1 0
BITMAP
000001FE00
000001FE00
000003FC00
000003F800
000007F000
00000FE000
00000FC000
00001F8000
00003F0000
00003E0000
00007C0000
0000000000
0000000000
0000000000
0000000000
0000FE0000
0000FF0000
0000FF0000
0001FF0000
0001FF8000
0001FF8000
0001FF8000
0003FFC000
0003FFC000
0003E7C000
0007E7E000
0007E7E000
0007C7E000
000FC3F000
000FC3F000
000FC3F000
001F81F800
001F81F800
001F81F800
003F00FC00
003F00FC00
003F00FC00
007E007E00
007E007E00
007E007E00
00FC003F00
00FC003F00
00FC003F00
01F8003F80
01FFFFFF80
01FFFFFF80
03FFFFFFC0
03FFFFFFC0
03FFFFFFC0
07E00007E0
07E00007E0
07E00007E0
0FE00007F0
0FC00003F0
0FC00003F0
1FC00003F8
1F800001F8
1F800001F8
3F800001F8
3F000000FC
3F000000FC
3F000000FC
7F000000FE
7E0000007E
FE0000007F
ENDCHAR
STARTCHAR 00C2
ENCODING 194
SWIDTH 600 0
DWIDTH 42 0
BBX 40 65 1 0
BITMAP
0000FE0000
0000FF0000
0001FF8000
0003FFC000
0007FFC000
0007E7E000
000FC3F000
001F81F800
003F00FC00
007C007E00
00F8001F00
0000000000
0000000000
0000000000
0000000000
0000FE0000
0000FF0000
0000FF0000
0001FF0000
0001FF8000
0001FF8000
0001FF8000
0003FFC000
0003FFC000
0003E7C000
0007E7E000
0007E7E000
0007C7E000
000FC3F000
000FC3F000
000FC3F000
001F81F800
001F81F800
001F81F800
003F00FC00
003F00FC00
003F00FC00
007E007E00
007E007E00
007E007E00
00FC003F00
00FC003F00
00FC003F00
01F8003F80
01FFFFFF80
01FFFFFF80
03FFFFFFC0
03FFFFFFC0
03FFFFFFC0
07E00007E0
07E00007E0
07E00007E0
0FE00007F0
0FC00003F0
0FC00003F0
1FC00003F8
1F800001F8
1F800001F8
3F800001F8
3F000000FC
3F000000FC
3F000000FC
7F000000FE
7E0000007E
FE0000007F
ENDCHAR
STARTCHAR 00C3
ENCODING 195
SWIDTH 600 0
DWIDTH 42 0
BBX 40 63 1 0
BITMAP
000FC00780
001FF00700
003FF80F00
007FFE1F00
007FFFFE00
00F87FFE00
00F01FFC00
00E00FF800
01E003F000
0000000000
0000000000
0000000000
0000000000
0000FE0000
0000FF0000
0000FF0000
0001FF0000
0001FF8000
0001FF8000
0001FF8000
0003FFC000
0003FFC000
0003E7C000
0007E7E000
0007E7E000
0007C7E000
000FC3F000
000FC3F000
000FC3F000
001F81F800
001F81F800
001F81F800
003F00FC00
003F00FC00
003F00FC00
007E007E00
007E007E00
007E007E00
00FC003F00
00FC003F00
00FC003F00
01F8003F80
01FFFFFF80
01FFFFFF80
03FFFFFFC0
03FFFFFFC0
03FFFFFFC0
07E00007E0
07E00007E0
07E00007E0
0FE00007F0
0FC00003F0
0FC00003F0
1FC00003F8
1F800001F8
1F800001F8
3F800001F8
3F000000FC
3F000000FC
3F000000FC
7F000000FE
7E0000007E
FE0000007F
ENDCHAR
STARTCHAR 00C4
ENCODING 196
SWIDTH 600 0
DWIDTH 42 0
BBX 40 63 1 0
BITMAP
003C003C00
007E007E00
00FF00FF00
00FF00FF00
00FF00FF00
00FF00FF00
007E007E00
003C003C00
0000000000
0000000000
0000000000
0000000000
0000000000
0000FE0000
0000FF0000
0000FF0000
0001FF0000
0001FF8000
0001FF8000
0001FF8000
0003FFC000
0003FFC000
0003E7C000
0007E7E000
0007E7E000
0007C7E000
000FC3F000
000FC3F000
000FC3F000
001F81F800
001F81F800
001F81F800
003F00FC00
003F00FC00
003F00FC00
007E007E00
007E007E00
007E007E00
00FC003F00
00FC003F00
00FC003F00
01F8003F80
01FFFFFF80
01FFFFFF80
03FFFFFFC0
03FFFFFFC0
03FFFFFFC0
07E00007E0
07E00007E0
07E00007E0
0FE00007F0
0FC00003F0
0FC00003F0
1FC00003F8
1F800001F8
1F800001F8
3F800001F8
3F000000FC
3F000000FC
3F000000FC
7F000000FE
7E0000007E
FE0000007F
ENDCHAR
STARTCHAR 00C5
ENCODING 197
SWIDTH 600 0
DWIDTH 42 0
BBX 40 69 1 0
BITMAP
00007E0000
0001FF8000
0003FFC000
0007FFE000
0007C3E000
000F81F000
000F00F000
000F00F000
000F00F000
000F81E000
0007C3E000
0007FFE000
0003FFC000
0001FF8000
00007E0000
0000000000
0000000000
0000000000
0000000000
0000FE0000
0000FF0000
0000FF0000
0001FF0000
0001FF8000
0001FF8000
0001FF8000
0003FFC000
0003FFC000
0003E7C000
0007E7E000
0007E7E000
0007C7E000
000FC3F000
000FC3F000
000FC3F000
001F81F800
001F81F800
001F81F800
003F00FC00
003F00FC00
003F00FC00
007E007E00
007E007E00
007E007E00
00FC003F00
00FC003F00
00FC003F00
01F8003F80
01FFFFFF80
01FFFFFF80
03FFFFFFC0
03FFFFFFC0
03FFFFFFC0
07E00007E0
07E00007E0
07E00007E0
0FE00007F0
0FC00003F0
0FC00003F0
1FC00003F8
1F800001F8
1F800001F8
3F800001F8
3F000000FC
3F000000FC
3F000000FC
7F000000FE
7E0000007E
FE0000007F
ENDCHAR
STARTCHAR 00C6
ENCODING 198
SWIDTH 600 0
DWIDTH 42 0
BBX 37 50 1 0
BITMAP
001FFFFFF8
001FFFFFF8
001FFFFFF8
001FFFFFF8
001FFFFFF8
003F3F0000
003F3F0000
003E3F0000
003E3F0000
007E3F0000
007E3F0000
007E3F0000
007C3F0000
007C3F0000
00FC3F0000
00FC3F0000
00FC3F0000
00F83F0000
01F83F0000
01F83F0000
01F83F0000
01F83FFFF0
01F03FFFF0
03F03FFFF0
03F03FFFF0
03F03FFFF0
03F03F0000
07E03F0000
07E03F0000
07E03F0000
07FFFF0000
07FFFF0000
0FFFFF0000
0FFFFF0000
0FFFFF0000
0FC03F0000
1F803F0000
1F803F0000
1F803F0000
1F803F0000
1F803F0000
3F003F0000
3F003F0000
3F003F0000
3F003F0000
7E003FFFF8
7E003FFFF8
7E003FFFF8
7E003FFFF8
FE003FFFF8
ENDCHAR
STARTCHAR 00C7
ENCODING 199
SWIDTH 600 0
DWIDTH 42 0
BBX 34 68 5 -17
BITMAP
0000FFE000
000FFFFE00
003FFFFFC0
007FFFFF80
01FFFFFF80
03FF807F00
07FC000700
07F8000100
0FF0000000
1FE0000000
1FC0000000
3F80000000
3F80000000
3F00000000
7F00000000
7E00000000
7E00000000
FE00000000
FE00000000
FC00000000
FC00000000
FC00000000
FC00000000
FC00000000
FC00000000
FC00000000
FC00000000
FC00000000
FC00000000
FC00000000
FC00000000
FC00000000
FE00000000
FE00000000
FE00000000
7E00000000
7F00000000
7F00000000
3F80000000
3F80000000
3FC0000000
1FE0000000
1FE0000000
0FF8000100
07FE000E00
03FFFFFE00
03FFFFFE00
00FFFFFE00
007FFFFE00
001FFFFE00
0007FFF000
00003C0000
0000780000
0000780000
0000F00000
0000FC0000
0001FF0000
0000FF8000
00001FC000
000007C000
000007C000
000007C000
000007C000
00001FC000
000FFF8000
000FFF0000
000FFE0000
000FF80000
ENDCHAR
STARTCHAR 00C8
ENCODING 200
SWIDTH 600 0
DWIDTH 42 0
BBX 29 65 7 0
BITMAP
07F80000
03F80000
01FC0000
01FE0000
00FE0000
007F0000
003F8000
001F8000
000FC000
0007E000
0001E000
00000000
00000000
00000000
00000000
FFFFFFF8
FFFFFFF8
FFFFFFF8
FFFFFFF8
FFFFFFF8
FC000000
FC000000
FC000000
FC000000
FC000000
FC000000
FC000000
FC000000
FC000000
FC000000
FC000000
FC000000
FC000000
FC000000
FC000000
FC000000
FC000000
FFFFFFF0
FFFFFFF0
FFFFFFF0
FFFFFFF0
FFFFFFF0
FC000000
FC000000
FC000000
FC000000
FC000000
FC000000
FC000000
FC000000
FC000000
FC000000
FC000000
FC000000
FC000000
FC000000
FC000000
FC000000
FC000000
FC000000
FFFFFFF8
FFFFFFF8
FFFFFFF8
FFFFFFF8
FFFFFFF8
ENDCHAR
STARTCHAR 00C9
ENCODING 201
SWIDTH 600 0
DWIDTH 42 0
BBX 29 65 7 0
BITMAP
00003FC0
00007F80
00007F00
0000FE00
0000FE00
0001FC00
0003F800
0003F000
0007E000
000F8000
000F0000
00000000
00000000
00000000
00000000
FFFFFFF8
FFFFFFF8
FFFFFFF8
FFFFFFF8
FFFFFFF8
FC000000
FC000000
FC000000
FC000000
FC000000
FC000000
FC000000
FC000000
FC000000
FC000000
FC000000
FC000000
FC000000
FC000000
FC000000
FC000000
FC000000
FFFFFFF0
FFFFFFF0
FFFFFFF0
FFFFFFF0
FFFFFFF0
FC000000
FC000000
FC000000
FC000000
FC000000
FC000000
FC000000
FC000000
FC000000
FC000000
FC000000
FC000000
FC000000
FC000000
FC000000
FC000000
FC000000
FC000000
FFFFFFF8
FFFFFFF8
FFFFFFF8
FFFFFFF8
FFFFFFF8
ENDCHAR
STARTCHAR 00CA
ENCODING 202
SWIDTH 600 0
DWIDTH 42 0
BBX 29 65 7 0
BITMAP
001FC000
003FC000
007FE000
007FF000
00FFF800
01F9FC00
03F0FE00
07E03F00
0FC01F80
1F800F80
1F0007C0
00000000
00000000
00000000
00000000
FFFFFFF8
FFFFFFF8
FFFFFFF8
FFFFFFF8
FFFFFFF8
FC000000
FC000000
FC000000
FC000000
FC000000
FC000000
FC000000
FC000000
FC000000
FC000000
FC000000
FC000000
FC000000
FC000000
FC000000
FC000000
FC000000
FFFFFFF0
FFFFFFF0
FFFFFFF0
FFFFFFF0
FFFFFFF0
FC000000
FC000000
FC000000
FC000000
FC000000
FC000000
FC000000
FC000000
FC000000
FC000000
FC000000
FC000000
FC000000
FC000000
FC000000
FC000000
FC000000
FC000000
FFFFFFF8
FFFFFFF8
FFFFFFF8
FFFFFFF8
FFFFFFF8
ENDCHAR
STARTCHAR 00CB
ENCODING 203
SWIDTH 600 0
DWIDTH 42 0
BBX 29 63 7 0
BITMAP
0F000F80
1FC01FC0
1FC01FC0
1FC01FC0
1FC01FC0
1FC01FC0
1FC01FC0
0F000F00
00000000
00000000
00000000
00000000
00000000
FFFFFFF8
FFFFFFF8
FFFFFFF8
FFFFFFF8
FFFFFFF8
FC000000
FC000000
FC000000
FC000000
FC000000
FC000000
FC000000
FC000000
FC000000
FC000000
FC000000
FC000000
FC000000
FC000000
FC000000
FC000000
FC000000
FFFFFFF0
FFFFFFF0
FFFFFFF0
FFFFFFF0
FFFFFFF0
FC000000
FC000000
FC000000
FC000000
FC000000
FC000000
FC000000
FC000000
FC000000
FC000000
FC000000
FC000000
FC000000
FC000000
FC000000
FC000000
FC000000
FC000000
FFFFFFF8
FFFFFFF8
FFFFFFF8
FFFFFFF8
FFFFFFF8
ENDCHAR
STARTCHAR 00CC
ENCODING 204
SWIDTH 600 0
DWIDTH 42 0
BBX 26 65 8 0
BITMAP
0FE00000
0FF00000
07F80000
03F80000
01FC0000
00FC0000
007E0000
003F0000
001F8000
000F8000
0007C000
00000000
00000000
00000000
00000000
FFFFFFC0
FFFFFFC0
FFFFFFC0
FFFFFFC0
FFFFFFC0
003F0000
003F0000
003F0000
003F0000
003F0000
003F0000
003F0000
003F0000
003F0000
003F0000
003F0000
003F0000
003F0000
003F0000
003F0000
003F0000
003F0000
003F0000
003F0000
003F0000
003F0000
003F0000
003F0000
003F0000
003F0000
003F0000
003F0000
003F0000
003F0000
003F0000
003F0000
003F0000
003F0000
003F0000
003F0000
003F0000
003F0000
003F0000
003F0000
003F0000
3FFFFF80
FFFFFFC0
FFFFFFC0
FFFFFFC0
FFFFFFC0
ENDCHAR
STARTCHAR 00CD
ENCODING 205
SWIDTH 600 0
DWIDTH 42 0
BBX 26 65 8 0
BITMAP
0000FF00
0000FF00
0001FE00
0001FC00
0003F800
0007F000
0007E000
000FC000
001F8000
001F0000
003E0000
00000000
00000000
00000000
00000000
FFFFFFC0
FFFFFFC0
FFFFFFC0
FFFFFFC0
FFFFFFC0
003F0000
003F0000
003F0000
003F0000
003F0000
003F0000
003F0000
003F0000
003F0000
003F0000
003F0000
003F0000
003F0000
003F0000
003F0000
003F0000
003F0000
003F0000
003F0000
003F0000
003F0000
003F0000
003F0000
003F0000
003F0000
003F0000
003F0000
003F0000
003F0000
003F0000
003F0000
003F0000
003F0000
003F0000
003F0000
003F0000
003F0000
003F0000
003F0000
003F0000
3FFFFF80
FFFFFFC0
FFFFFFC0
FFFFFFC0
FFFFFFC0
ENDCHAR
STARTCHAR 00CE
ENCODING 206
SWIDTH 600 0
DWIDTH 42 0
BBX 26 65 8 0
BITMAP
007F0000
007F8000
00FFC000
01FFE000
03FFE000
03F3F000
07E1F800
0FC0FC00
1F807E00
3E003F00
7C000F80
00000000
00000000
00000000
00000000
FFFFFFC0
FFFFFFC0
FFFFFFC0
FFFFFFC0
FFFFFFC0
003F0000
003F0000
003F0000
003F0000
003F0000
003F0000
003F0000
003F0000
003F0000
003F0000
003F0000
003F0000
003F0000
003F0000
003F0000
003F0000
003F0000
003F0000
003F0000
003F0000
003F0000
003F0000
003F0000
003F0000
003F0000
003F0000
003F0000
003F0000
003F0000
003F0000
003F0000
003F0000
003F0000
003F0000
003F0000
003F0000
003F0000
003F0000
003F0000
003F0000
3FFFFF80
FFFFFFC0
FFFFFFC0
FFFFFFC0
FFFFFFC0
ENDCHAR
STARTCHAR 00CF
ENCODING 207
SWIDTH 600 0
DWIDTH 42 0
BBX 26 63 8 0
BITMAP
1E001E00
3F003F00
7F807F80
7F807F80
7F807F80
7F807F80
3F003F00
1E001E00
00000000
00000000
00000000
00000000
00000000
FFFFFFC0
FFFFFFC0
FFFFFFC0
FFFFFFC0
FFFFFFC0
003F0000
003F0000
003F0000
003F0000
003F0000
003F0000
003F0000
003F0000
003F0000
003F0000
003F0000
003F0000
003F0000
003F0000
003F0000
003F0000
003F0000
003F0000
003F0000
003F0000
003F0000
003F0000
003F0000
003F0000
003F0000
003F0000
003F0000
003F0000
003F0000
003F0000
003F0000
003F0000
003F0000
003F0000
003F0000
003F0000
003F0000
003F0000
003F0000
003F0000
3FFFFF80
FFFFFFC0
FFFFFFC0
FFFFFFC0
FFFFFFC0
ENDCHAR
STARTCHAR 00D0
ENCODING 208
SWIDTH 600 0
DWIDTH 42 0
BBX 40 50 0 0
BITMAP
03FFFE0000
03FFFFC000
03FFFFF800
03FFFFFC00
03FFFFFF00
03F007FF80
03F000FFC0
03F0003FE0
03F0001FE0
03F0000FF0
03F00007F8
03F00003F8
03F00001FC
03F00001FC
03F00000FC
03F00000FC
03F00000FE
03F00000FE
03F000007E
03F000007E
03F000007E
03F000007E
03F000007E
FFFFF0007F
FFFFF0007F
FFFFF0007F
FFFFF0007E
FFFFF0007E
03F000007E
03F000007E
03F000007E
03F00000FE
03F00000FE
03F00000FE
03F00000FC
03F00001FC
03F00001FC
03F00003F8
03F00003F8
03F00007F0
03F0000FF0
03F0001FE0
03F0003FC0
03F000FFC0
03F00FFF00
03FFFFFE00
03FFFFFC00
03FFFFF000
03FFFFC000
03FFFC0000
ENDCHAR
STARTCHAR 00D1
ENCODING 209
SWIDTH 600 0
DWIDTH 42 0
BBX 32 63 5 0
BITMAP
007C0078
01FF0078
03FFC0F0
07FFF1F0
07FFFFF0
0F87FFE0
0F01FFE0
0F007FC0
0E001F00
00000000
00000000
00000000
00000000
FF00003F
FF80003F
FF80003F
FFC0003F
FFC0003F
FFE0003F
FFE0003F
FBF0003F
FBF0003F
F9F0003F
F9F8003F
F9F8003F
FCFC003F
FCFC003F
FC7E003F
FC7E003F
FC3E003F
FC3F003F
FC1F003F
FC1F803F
FC1F803F
FC0FC03F
FC0FC03F
FC07C03F
FC07E03F
FC03E03F
FC03F03F
FC01F03F
FC01F83F
FC01F83F
FC00FC3F
FC00FC3F
FC007C3F
FC007E3F
FC003E3F
FC003F3F
FC001F3F
FC001FBF
FC001FBF
FC000FBF
FC000FDF
FC0007DF
FC0007FF
FC0003FF
FC0003FF
FC0003FF
FC0001FF
FC0001FF
FC0000FF
FC0000FF
ENDCHAR
STARTCHAR 00D2
ENCODING 210
SWIDTH 600 0
DWIDTH 42 0
BBX 36 66 3 -1
BITMAP
007F000000
007F800000
003FC00000
001FC00000
000FE00000
0007E00000
0003F00000
0001F80000
0000FC0000
00007C0000
00003E0000
0000000000
0000000000
0000000000
0007FE0000
001FFF8000
007FFFE000
00FFFFF800
03FFFFFC00
03FE07FC00
07F801FE00
0FE0007F00
0FE0003F00
1FC0003F80
1F80001F80
3F80001FC0
3F00000FC0
3F00000FC0
7F00000FE0
7F00000FE0
7E000007E0
7E000007E0
7E000007E0
FE000007E0
FE000007F0
FE000007F0
FE000007F0
FE000007F0
FE000007F0
FE000007F0
FE000007F0
FE000007F0
FE000007F0
FE000007F0
FE000007F0
FE000007F0
7E000007E0
7E000007E0
7E000007E0
7E000007E0
7F00000FE0
7F00000FC0
3F00000FC0
3F80001FC0
3F80001FC0
1F80001F80
1FC0003F80
0FE0007F00
0FF000FE00
07FC01FE00
03FFFFFC00
01FFFFF800
00FFFFF000
007FFFC000
000FFF0000
0000600000
ENDCHAR
STARTCHAR 00D3
ENCODING 211
SWIDTH 600 0
DWIDTH 42 0
BBX 36 66 3 -1
BITMAP
000007F800
000007F800
00000FF000
00000FE000
00001FC000
00003F8000
00003F0000
00007E0000
0000FC0000
0000F80000
0001F00000
0000000000
0000000000
0000000000
0007FE0000
001FFF8000
007FFFE000
00FFFFF800
03FFFFFC00
03FE07FC00
07F801FE00
0FE0007F00
0FE0003F00
1FC0003F80
1F80001F80
3F80001FC0
3F00000FC0
3F00000FC0
7F00000FE0
7F00000FE0
7E000007E0
7E000007E0
7E000007E0
FE000007E0
FE000007F0
FE000007F0
FE000007F0
FE000007F0
FE000007F0
FE000007F0
FE000007F0
FE000007F0
FE000007F0
FE000007F0
FE000007F0
FE000007F0
7E000007E0
7E000007E0
7E000007E0
7E000007E0
7F00000FE0
7F00000FC0
3F00000FC0
3F80001FC0
3F80001FC0
1F80001F80
1FC0003F80
0FE0007F00
0FF000FE00
07FC01FE00
03FFFFFC00
01FFFFF800
00FFFFF000
007FFFC000
000FFF0000
0000600000
ENDCHAR
STARTCHAR 00D4
ENCODING 212
SWIDTH 600 0
DWIDTH 42 0
BBX 36 66 3 -1
BITMAP
0003F80000
0003FC0000
0007FE0000
000FFF0000
001FFF0000
001F9F8000
003F0FC000
007E07E000
00FC03F000
01F001F800
03E0007C00
0000000000
0000000000
0000000000
0007FE0000
001FFF8000
007FFFE000
00FFFFF800
03FFFFFC00
03FE07FC00
07F801FE00
0FE0007F00
0FE0003F00
1FC0003F80
1F80001F80
3F80001FC0
3F00000FC0
3F00000FC0
7F00000FE0
7F00000FE0
7E000007E0
7E000007E0
7E000007E0
FE000007E0
FE000007F0
FE000007F0
FE000007F0
FE000007F0
FE000007F0
FE000007F0
FE000007F0
FE000007F0
FE000007F0
FE000007F0
FE000007F0
FE000007F0
7E000007E0
7E000007E0
7E000007E0
7E000007E0
7F00000FE0
7F00000FC0
3F00000FC0
3F80001FC0
3F80001FC0
1F80001F80
1FC0003F80
0FE0007F00
0FF000FE00
07FC01FE00
03FFFFFC00
01FFFFF800
00FFFFF000
007FFFC000
000FFF0000
0000600000
ENDCHAR
STARTCHAR 00D5
ENCODING 213
SWIDTH 600 0
DWIDTH 42 0
BBX 36 64 3 -1
BITMAP
003F001E00
007FC01C00
00FFE03C00
01FFF87C00
01FFFFF800
03E1FFF800
03C07FF000
03803FE000
07800FC000
0000000000
0000000000
0000000000
0007FE0000
001FFF8000
007FFFE000
00FFFFF800
03FFFFFC00
03FE07FC00
07F801FE00
0FE0007F00
0FE0003F00
1FC0003F80
1F80001F80
3F80001FC0
3F00000FC0
3F00000FC0
7F00000FE0
7F00000FE0
7E000007E0
7E000007E0
7E000007E0
FE000007E0
FE000007F0
FE000007F0
FE000007F0
FE000007F0
FE000007F0
FE000007F0
FE000007F0
FE000007F0
FE000007F0
FE000007F0
FE000007F0
FE000007F0
7E000007E0
7E000007E0
7E000007E0
7E000007E0
7F00000FE0
7F00000FC0
3F00000FC0
3F80001FC0
3F80001FC0
1F80001F80
1FC0003F80
0FE0007F00
0FF000FE00
07FC01FE00
03FFFFFC00
01FFFFF800
00FFFFF000
007FFFC000
000FFF0000
0000600000
ENDCHAR
STARTCHAR 00D6
ENCODING 214
SWIDTH 600 0
DWIDTH 42 0
BBX 36 64 3 -1
BITMAP
00F000F000
01F801F800
03FC03FC00
03FC03FC00
03FC03FC00
03FC03FC00
01F801F800
00F000F000
0000000000
0000000000
0000000000
0000000000
0007FE0000
001FFF8000
007FFFE000
00FFFFF800
03FFFFFC00
03FE07FC00
07F801FE00
0FE0007F00
0FE0003F00
1FC0003F80
1F80001F80
3F80001FC0
3F00000FC0
3F00000FC0
7F00000FE0
7F00000FE0
7E000007E0
7E000007E0
7E000007E0
FE000007E0
FE000007F0
FE000007F0
FE000007F0
FE000007F0
FE000007F0
FE000007F0
FE000007F0
FE000007F0
FE000007F0
FE000007F0
FE000007F0
FE000007F0
7E000007E0
7E000007E0
7E000007E0
7E000007E0
7F00000FE0
7F00000FC0
3F00000FC0
3F80001FC0
3F80001FC0
1F80001F80
1FC0003F80
0FE0007F00
0FF000FE00
07FC01FE00
03FFFFFC00
01FFFFF800
00FFFFF000
007FFFC000
000FFF0000
0000600000
ENDCHAR
STARTCHAR 00D7
ENCODING 215
SWIDTH 600 0
DWIDTH 42 0
BBX 30 30 6 10
BITMAP
10000020
38000070
7C0000F8
FE0001FC
7F0003F8
3F8007F0
1FC00FE0
0FE01FC0
07F03F80
03F87F00
01FCFE00
00FFFC00
007FF800
003FF000
001FE000
001FE000
003FF000
007FF800
00FFFC00
01FCFE00
03F87F00
07F03F80
0FE01FC0
1FC00FE0
3F8007F0
7F0003F8
FE0001FC
7C0000F8
38000070
10000020
ENDCHAR
STARTCHAR 00D8
ENCODING 216
SWIDTH 600 0
DWIDTH 42 0
BBX 36 56 3 -3
BITMAP
0000000100
0000000380
0003FE03F0
001FFFC7E0
007FFFE7E0
00FFFFFFC0
01FFFFFF80
03FE07FF80
07F801FF00
0FE000FF00
0FE0007F00
1FC0007F80
1F8000FF80
3F8000FFC0
3F0001FFC0
3F0003FFC0
7F0003FFE0
7F0007EFE0
7E0007E7E0
7E000FC7E0
7E000FC7E0
FE001F87E0
FE003F07F0
FE003F07F0
FE007E07F0
FE007E07F0
FE00FC07F0
FE00FC07F0
FE01F807F0
FE01F007F0
FE03F007F0
FE07E007F0
FE07E007F0
FE0FC007F0
FE0FC007E0
7E1F8007E0
7E1F8007E0
7E3F0007E0
7F7E000FE0
7F7E000FC0
3FFC000FC0
3FFC001FC0
3FF8001FC0
1FF8001F80
1FF0003F80
0FE0007F00
0FF000FF00
0FFC01FE00
0FFFFFFC00
1FFFFFF800
3FFFFFF000
3F7FFFC000
7E1FFF0000
3E00600000
0C00000000
0400000000
ENDCHAR
STARTCHAR 00D9
ENCODING 217
SWIDTH 600 0
DWIDTH 42 0
BBX 32 66 5 -1
BITMAP
01FC0000
01FE0000
00FF0000
007F0000
003F8000
001F8000
000FC000
0007E000
0003F000
0001F000
0000F800
00000000
00000000
00000000
00000000
FC00003F
FC00003F
FC00003F
FC00003F
FC00003F
FC00003F
FC00003F
FC00003F
FC00003F
FC00003F
FC00003F
FC00003F
FC00003F
FC00003F
FC00003F
FC00003F
FC00003F
FC00003F
FC00003F
FC00003F
FC00003F
FC00003F
FC00003F
FC00003F
FC00003F
FC00003F
FC00003F
FC00003F
FC00003F
FC00003F
FC00003F
FC00003F
FC00003F
FC00003F
FC00003F
FC00003F
FE00007F
FE00007F
FE00007E
7E00007E
7F0000FE
7F0000FE
3F8001FC
3FC003FC
1FE007F8
0FFFFFF0
0FFFFFE0
03FFFFC0
01FFFF80
007FFE00
00018000
ENDCHAR
STARTCHAR 00DA
ENCODING 218
SWIDTH 600 0
DWIDTH 42 0
BBX 32 66 5 -1
BITMAP
00001FE0
00001FE0
00003FC0
00003F80
00007F00
0000FE00
0000FC00
0001F800
0003F000
0003E000
0007C000
00000000
00000000
00000000
00000000
FC00003F
FC00003F
FC00003F
FC00003F
FC00003F
FC00003F
FC00003F
FC00003F
FC00003F
FC00003F
FC00003F
FC00003F
FC00003F
FC00003F
FC00003F
FC00003F
FC00003F
FC00003F
FC00003F
FC00003F
FC00003F
FC00003F
FC00003F
FC00003F
FC00003F
FC00003F
FC00003F
FC00003F
FC00003F
FC00003F
FC00003F
FC00003F
FC00003F
FC00003F
FC00003F
FC00003F
FE00007F
FE00007F
FE00007E
7E00007E
7F0000FE
7F0000FE
3F8001FC
3FC003FC
1FE007F8
0FFFFFF0
0FFFFFE0
03FFFFC0
01FFFF80
007FFE00
00018000
ENDCHAR
STARTCHAR 00DB
ENCODING 219
SWIDTH 600 0
DWIDTH 42 0
BBX 32 66 5 -1
BITMAP
000FE000
000FF000
001FF800
003FFC00
007FFC00
007E7E00
00FC3F00
01F81F80
03F00FC0
07C007E0
0F8001F0
00000000
00000000
00000000
00000000
FC00003F
FC00003F
FC00003F
FC00003F
FC00003F
FC00003F
FC00003F
FC00003F
FC00003F
FC00003F
FC00003F
FC00003F
FC00003F
FC00003F
FC00003F
FC00003F
FC00003F
FC00003F
FC00003F
FC00003F
FC00003F
FC00003F
FC00003F
FC00003F
FC00003F
FC00003F
FC00003F
FC00003F
FC00003F
FC00003F
FC00003F
FC00003F
FC00003F
FC00003F
FC00003F
FC00003F
FE00007F
FE00007F
FE00007E
7E00007E
7F0000FE
7F0000FE
3F8001FC
3FC003FC
1FE007F8
0FFFFFF0
0FFFFFE0
03FFFFC0
01FFFF80
007FFE00
00018000
ENDCHAR
STARTCHAR 00DC
ENCODING 220
SWIDTH 600 0
DWIDTH 42 0
BBX 32 64 5 -1
BITMAP
03C003C0
07E007E0
0FF00FF0
0FF00FF0
0FF00FF0
0FF00FF0
07E007E0
03C003C0
00000000
00000000
00000000
00000000
00000000
FC00003F
FC00003F
FC00003F
FC00003F
FC00003F
FC00003F
FC00003F
FC00003F
FC00003F
FC00003F
FC00003F
FC00003F
FC00003F
FC00003F
FC00003F
FC00003F
FC00003F
FC00003F
FC00003F
FC00003F
FC00003F
FC00003F
FC00003F
FC00003F
FC00003F
FC00003F
FC00003F
FC00003F
FC00003F
FC00003F
FC00003F
FC00003F
FC00003F
FC00003F
FC00003F
FC00003F
FE00007F
FE00007F
FE00007E
7E00007E
7F0000FE
7F0000FE
3F8001FC
3FC003FC
1FE007F8
0FFFFFF0
0FFFFFE0
03FFFFC0
01FFFF80
007FFE00
00018000
ENDCHAR
STARTCHAR 00DD
ENCODING 221
SWIDTH 600 0
DWIDTH 42 0
BBX 38 65 2 0
BITMAP
000003FC00
000003FC00
000007F800
000007F000
00000FE000
00001FC000
00001F8000
00003F0000
00007E0000
00007C0000
0000F80000
0000000000
0000000000
0000000000
0000000000
FF000001FC
7F000003F8
3F800003F0
3F800007F0
1F800007E0
1FC0000FE0
0FC0000FC0
0FE0001FC0
07E0001F80
07F0003F80
03F0003F00
03F8007F00
01F8007E00
01FC007E00
00FC00FC00
00FE00FC00
007E01F800
007E01F800
003F03F000
003F03F000
001F87E000
001F87E000
000FCFC000
000FCFC000
0007FF8000
0007FF8000
0003FF0000
0003FF0000
0001FE0000
0001FE0000
0000FC0000
0000FC0000
0000FC0000
0000FC0000
0000FC0000
0000FC0000
0000FC0000
0000FC0000
0000FC0000
0000FC0000
0000FC0000
0000FC0000
0000FC0000
0000FC0000
0000FC0000
0000FC0000
0000FC0000
0000FC0000
0000FC0000
0000FC0000
ENDCHAR
STARTCHAR 00DE
ENCODING 222
SWIDTH 600 0
DWIDTH 42 0
BBX 31 50 7 0
BITMAP
FC000000
FC000000
FC000000
FC000000
FC000000
FC000000
FC000000
FC000000
FC000000
FC000000
FFFFF000
FFFFFF00
FFFFFFC0
FFFFFFE0
FFFFFFF0
FC003FF8
FC000FF8
FC0003FC
FC0001FC
FC0000FE
FC0000FE
FC0000FE
FC00007E
FC00007E
FC00007E
FC00007E
FC00007E
FC0000FE
FC0000FE
FC0000FC
FC0001FC
FC0001FC
FC0003F8
FC000FF8
FC007FF0
FFFFFFE0
FFFFFFC0
FFFFFF00
FFFFFC00
FFFFE000
FC000000
FC000000
FC000000
FC000000
FC000000
FC000000
FC000000
FC000000
FC000000
FC000000
ENDCHAR
STARTCHAR 00DF
ENCODING 223
SWIDTH 600 0
DWIDTH 42 0
BBX 35 54 5 -1
BITMAP
003FF80000
01FFFF0000
07FFFFC000
0FFFFFF000
1FFFFFF800
3FF01FFC00
7F8003FC00
7F0001FC00
7E0000FE00
FE0000FE00
FE0000FE00
FC0000FE00
FC0000FC00
FC0000FC00
FC0001FC00
FC0003F800
FC000FF000
FC001FE000
FC003FC000
FC007F8000
FC00FF0000
FC00FE0000
FC01FC0000
FC01F80000
FC01F80000
FC01F80000
FC01FC0000
FC01FE0000
FC00FF0000
FC007FC000
FC003FE000
FC001FF800
FC000FFC00
FC0007FE00
FC0001FF00
FC0000FF80
FC00003FC0
FC00001FC0
FC00000FE0
FC000007E0
FC000007E0
FC000007E0
FC000007E0
FC000007E0
FC000007E0
FC00000FE0
FC0C000FE0
FC0F801FC0
FC0FFFFFC0
FC0FFFFF80
FC0FFFFF00
FC0FFFFE00
FC01FFF800
0000060000
ENDCHAR
STARTCHAR 00E0
ENCODING 224
SWIDTH 600 0
DWIDTH 42 0
BBX 31 54 5 -1
BITMAP
01FE0000
00FE0000
00FF0000
007F8000
003F8000
001FC000
000FC000
0007E000
0003F000
0001F800
0000F800
00000000
00000000
00000000
00000000
00010000
00FFFE00
07FFFF80
1FFFFFE0
1FFFFFF0
1FFFFFF8
0FC007F8
0E0003FC
080001FC
000000FC
000000FC
0000007E
0000007E
0000007E
0000007E
0000007E
001FFFFE
01FFFFFE
07FFFFFE
0FFFFFFE
3FF0007E
3F80007E
7F00007E
7E00007E
FC00007E
FC00007E
FC0000FE
FC0000FE
FC0000FE
FC0001FE
FE0003FE
FE0007FE
7F801FFE
7FFFFF7E
3FFFFE7E
1FFFFC7E
0FFFF07E
03FFC03E
00180000
ENDCHAR
STARTCHAR 00E1
ENCODING 225
SWIDTH 600 0
DWIDTH 42 0
BBX 31 54 5 -1
BITMAP
00000FF0
00001FE0
00001FC0
00003F80
00007F00
00007E00
0000FE00
0001FC00
0001F800
0003E000
0007C000
00000000
00000000
00000000
00000000
00010000
00FFFE00
07FFFF80
1FFFFFE0
1FFFFFF0
1FFFFFF8
0FC007F8
0E0003FC
080001FC
000000FC
000000FC
0000007E
0000007E
0000007E
0000007E
0000007E
001FFFFE
01FFFFFE
07FFFFFE
0FFFFFFE
3FF0007E
3F80007E
7F00007E
7E00007E
FC00007E
FC00007E
FC0000FE
FC0000FE
FC0000FE
FC0001FE
FE0003FE
FE0007FE
7F801FFE
7FFFFF7E
3FFFFE7E
1FFFFC7E
0FFFF07E
03FFC03E
00180000
ENDCHAR
STARTCHAR 00E2
ENCODING 226
SWIDTH 600 0
DWIDTH 42 0
BBX 31 54 5 -1
BITMAP
0007F000
000FF000
001FF800
001FFC00
003FFE00
007E7F00
00FC3F80
01F81F80
03F007C0
07E003E0
078001F0
00000000
00000000
00000000
00000000
00010000
00FFFE00
07FFFF80
1FFFFFE0
1FFFFFF0
1FFFFFF8
0FC007F8
0E0003FC
080001FC
000000FC
000000FC
0000007E
0000007E
0000007E
0000007E
0000007E
001FFFFE
01FFFFFE
07FFFFFE
0FFFFFFE
3FF0007E
3F80007E
7F00007E
7E00007E
FC00007E
FC00007E
FC0000FE
FC0000FE
FC0000FE
FC0001FE
FE0003FE
FE0007FE
7F801FFE
7FFFFF7E
3FFFFE7E
1FFFFC7E
0FFFF07E
03FFC03E
00180000
ENDCHAR
STARTCHAR 00E3
ENCODING 227
SWIDTH 600 0
DWIDTH 42 0
BBX 31 52 5 -1
BITMAP
007C0078
01FF0078
03FFC0F0
07FFF1F0
07FFFFF0
0F87FFE0
0F01FFE0
0F007FC0
0E001F00
00000000
00000000
00000000
00000000
00010000
00FFFE00
07FFFF80
1FFFFFE0
1FFFFFF0
1FFFFFF8
0FC007F8
0E0003FC
080001FC
000000FC
000000FC
0000007E
0000007E
0000007E
0000007E
0000007E
001FFFFE
01FFFFFE
07FFFFFE
0FFFFFFE
3FF0007E
3F80007E
7F00007E
7E00007E
FC00007E
FC00007E
FC0000FE
FC0000FE
FC0000FE
FC0001FE
FE0003FE
FE0007FE
7F801FFE
7FFFFF7E
3FFFFE7E
1FFFFC7E
0FFFF07E
03FFC03E
00180000
ENDCHAR
STARTCHAR 00E4
ENCODING 228
SWIDTH 600 0
DWIDTH 42 0
BBX 31 52 5 -1
BITMAP
03C003C0
07F007F0
07F007F0
07F007F0
07F007F0
07F007F0
07E007E0
03C003C0
00000000
00000000
00000000
00000000
00000000
00010000
00FFFE00
07FFFF80
1FFFFFE0
1FFFFFF0
1FFFFFF8
0FC007F8
0E0003FC
080001FC
000000FC
000000FC
0000007E
0000007E
0000007E
0000007E
0000007E
001FFFFE
01FFFFFE
07FFFFFE
0FFFFFFE
3FF0007E
3F80007E
7F00007E
7E00007E
FC00007E
FC00007E
FC0000FE
FC0000FE
FC0000FE
FC0001FE
FE0003FE
FE0007FE
7F801FFE
7FFFFF7E
3FFFFE7E
1FFFFC7E
0FFFF07E
03FFC03E
00180000
ENDCHAR
STARTCHAR 00E5
ENCODING 229
SWIDTH 600 0
DWIDTH 42 0
BBX 31 58 5 -1
BITMAP
0007E000
001FF800
003FFC00
003FFE00
007C3F00
00781F00
00780F00
00780F00
00780F00
00781F00
007C3F00
003FFE00
003FFC00
001FF800
0007E000
00000000
00000000
00000000
00000000
00010000
00FFFE00
07FFFF80
1FFFFFE0
1FFFFFF0
1FFFFFF8
0FC007F8
0E0003FC
080001FC
000000FC
000000FC
0000007E
0000007E
0000007E
0000007E
0000007E
001FFFFE
01FFFFFE
07FFFFFE
0FFFFFFE
3FF0007E
3F80007E
7F00007E
7E00007E
FC00007E
FC00007E
FC0000FE
FC0000FE
FC0000FE
FC0001FE
FE0003FE
FE0007FE
7F801FFE
7FFFFF7E
3FFFFE7E
1FFFFC7E
0FFFF07E
03FFC03E
00180000
ENDCHAR
STARTCHAR 00E6
ENCODING 230
SWIDTH 600 0
DWIDTH 42 0
BBX 40 39 1 -1
BITMAP
0010000400
01FF807FC0
07FFC1FFE0
1FFFE3FFF0
1FFFF3FFF8
0FFFFFFFF8
0F01FFC0FC
0400FF80FC
0000FF007E
00007F007E
00007E007E
00007E003E
00007E003E
00007E003E
00007E003F
00FFFFFFFF
07FFFFFFFF
0FFFFFFFFF
1FFFFFFFFF
3FFFFFFFFF
3FC07C0000
7F007C0000
7E007E0000
7E007E0000
7C007E0000
FC007E0000
FC007E0000
FC00FE0000
FC00FF0000
7C00FF0000
7C01FF8002
7E01FFC006
7F07EFE01E
3FFFC7FFFE
3FFFC3FFFE
1FFF83FFFE
0FFF00FFFC
07FC007FF0
0040000200
ENDCHAR
STARTCHAR 00E7
ENCODING 231
SWIDTH 600 0
DWIDTH 42 0
BBX 29 55 6 -17
BITMAP
00002000
001FFFC0
007FFFF0
01FFFFF8
07FFFFF8
0FFFFFF0
0FF800F0
1FE00030
3FC00000
3F800000
7F000000
7F000000
7E000000
7E000000
FE000000
FE000000
FE000000
FC000000
FC000000
FC000000
FC000000
FC000000
FE000000
FE000000
FE000000
FE000000
7E000000
7F000000
7F000000
3F800000
3FC00000
1FE00008
1FF80078
0FFFFFF8
07FFFFF8
03FFFFF8
00FFFFF8
001FFFC0
0001E000
0001E000
0003C000
0003C000
0007E000
0007F800
000FFE00
00007E00
00003F00
00001F00
00001F00
00003F00
00007E00
003FFE00
003FFC00
003FF800
003FC000
ENDCHAR
STARTCHAR 00E8
ENCODING 232
SWIDTH 600 0
DWIDTH 42 0
BBX 34 54 4 -1
BITMAP
00FF000000
007F000000
007F800000
003F800000
001FC00000
000FE00000
0007E00000
0003F00000
0001F80000
0000FC0000
00007C0000
0000000000
0000000000
0000000000
0000000000
0000400000
000FFF0000
007FFFC000
00FFFFF000
03FFFFF800
07FFFFFC00
0FF801FE00
0FE000FE00
1FC0007F00
3F80003F00
3F00003F80
7F00001F80
7E00001F80
7E00001FC0
7E00001FC0
FFFFFFFFC0
FFFFFFFFC0
FFFFFFFFC0
FFFFFFFFC0
FFFFFFFFC0
FE00000000
FE00000000
FE00000000
FE00000000
7E00000000
7E00000000
7F00000000
7F00000000
3F80000000
3F80000000
1FC0000100
1FF0000700
0FFC003F00
07FFFFFF00
03FFFFFF00
00FFFFFF00
003FFFFE00
000FFFF000
0000300000
ENDCHAR
STARTCHAR 00E9
ENCODING 233
SWIDTH 600 0
DWIDTH 42 0
BBX 34 54 4 -1
BITMAP
000007F000
00000FF000
00000FE000
00001FC000
00003F8000
00003F0000
00007E0000
0000FC0000
0000F80000
0001F00000
0003E00000
0000000000
0000000000
0000000000
0000000000
0000400000
000FFF0000
007FFFC000
00FFFFF000
03FFFFF800
07FFFFFC00
0FF801FE00
0FE000FE00
1FC0007F00
3F80003F00
3F00003F80
7F00001F80
7E00001F80
7E00001FC0
7E00001FC0
FFFFFFFFC0
FFFFFFFFC0
FFFFFFFFC0
FFFFFFFFC0
FFFFFFFFC0
FE00000000
FE00000000
FE00000000
FE00000000
7E00000000
7E00000000
7F00000000
7F00000000
3F80000000
3F80000000
1FC0000100
1FF0000700
0FFC003F00
07FFFFFF00
03FFFFFF00
00FFFFFF00
003FFFFE00
000FFFF000
0000300000
ENDCHAR
STARTCHAR 00EA
ENCODING 234
SWIDTH 600 0
DWIDTH 42 0
BBX 34 54 4 -1
BITMAP
0003F80000
0007F80000
000FFC0000
000FFE0000
001FFF0000
003F3F8000
007E1F8000
00FC0FC000
01F807E000
03F001F000
07C000F800
0000000000
0000000000
0000000000
0000000000
0000400000
000FFF0000
007FFFC000
00FFFFF000
03FFFFF800
07FFFFFC00
0FF801FE00
0FE000FE00
1FC0007F00
3F80003F00
3F00003F80
7F00001F80
7E00001F80
7E00001FC0
7E00001FC0
FFFFFFFFC0
FFFFFFFFC0
FFFFFFFFC0
FFFFFFFFC0
FFFFFFFFC0
FE00000000
FE00000000
FE00000000
FE00000000
7E00000000
7E00000000
7F00000000
7F00000000
3F80000000
3F80000000
1FC0000100
1FF0000700
0FFC003F00
07FFFFFF00
03FFFFFF00
00FFFFFF00
003FFFFE00
000FFFF000
0000300000
ENDCHAR
STARTCHAR 00EB
ENCODING 235
SWIDTH 600 0
DWIDTH 42 0
BBX 34 52 4 -1
BITMAP
01E001E000
03F003F800
03F803F800
07F807F800
07F803F800
03F803F800
03F003F000
01E001E000
0000000000
0000000000
0000000000
0000000000
0000000000
0000400000
000FFF0000
007FFFC000
00FFFFF000
03FFFFF800
07FFFFFC00
0FF801FE00
0FE000FE00
1FC0007F00
3F80003F00
3F00003F80
7F00001F80
7E00001F80
7E00001FC0
7E00001FC0
FFFFFFFFC0
FFFFFFFFC0
FFFFFFFFC0
FFFFFFFFC0
FFFFFFFFC0
FE00000000
FE00000000
FE00000000
FE00000000
7E00000000
7E00000000
7F00000000
7F00000000
3F80000000
3F80000000
1FC0000100
1FF0000700
0FFC003F00
07FFFFFF00
03FFFFFF00
00FFFFFF00
003FFFFE00
000FFFF000
0000300000
ENDCHAR
STARTCHAR 00EC
ENCODING 236
SWIDTH 600 0
DWIDTH 42 0
BBX 32 53 6 0
BITMAP
03F80000
03FC0000
01FE0000
00FE0000
007F0000
003F0000
001F8000
000FC000
0007E000
0003E000
0001F000
00000000
00000000
00000000
00000000
00000000
7FFFE000
7FFFE000
7FFFE000
7FFFE000
7FFFE000
0007E000
0007E000
0007E000
0007E000
0007E000
0007E000
0007E000
0007E000
0007E000
0007E000
0007E000
0007E000
0007E000
0007E000
0007E000
0007E000
0007E000
0007E000
0007E000
0007E000
0007E000
0007E000
0007E000
0007E000
0007E000
0007E000
0007E000
0FFFFFE0
FFFFFFFF
FFFFFFFF
FFFFFFFF
FFFFFFFF
ENDCHAR
STARTCHAR 00ED
ENCODING 237
SWIDTH 600 0
DWIDTH 42 0
BBX 32 53 6 0
BITMAP
00003FC0
00003FC0
00007F80
00007F00
0000FE00
0001FC00
0001F800
0003F000
0007E000
0007C000
000F8000
00000000
00000000
00000000
00000000
00000000
7FFFE000
7FFFE000
7FFFE000
7FFFE000
7FFFE000
0007E000
0007E000
0007E000
0007E000
0007E000
0007E000
0007E000
0007E000
0007E000
0007E000
0007E000
0007E000
0007E000
0007E000
0007E000
0007E000
0007E000
0007E000
0007E000
0007E000
0007E000
0007E000
0007E000
0007E000
0007E000
0007E000
0007E000
0FFFFFE0
FFFFFFFF
FFFFFFFF
FFFFFFFF
FFFFFFFF
ENDCHAR
STARTCHAR 00EE
ENCODING 238
SWIDTH 600 0
DWIDTH 42 0
BBX 32 53 6 0
BITMAP
001FC000
001FE000
003FF000
007FF800
00FFF800
00FCFC00
01F87E00
03F03F00
07E01F80
0F800FC0
1F0003E0
00000000
00000000
00000000
00000000
00000000
7FFFE000
7FFFE000
7FFFE000
7FFFE000
7FFFE000
0007E000
0007E000
0007E000
0007E000
0007E000
0007E000
0007E000
0007E000
0007E000
0007E000
0007E000
0007E000
0007E000
0007E000
0007E000
0007E000
0007E000
0007E000
0007E000
0007E000
0007E000
0007E000
0007E000
0007E000
0007E000
0007E000
0007E000
0FFFFFE0
FFFFFFFF
FFFFFFFF
FFFFFFFF
FFFFFFFF
ENDCHAR
STARTCHAR 00EF
ENCODING 239
SWIDTH 600 0
DWIDTH 42 0
BBX 32 51 6 0
BITMAP
07800780
0FC00FC0
1FE01FE0
1FE01FE0
1FE01FE0
1FE01FE0
0FC00FC0
07800780
00000000
00000000
00000000
00000000
00000000
00000000
7FFFE000
7FFFE000
7FFFE000
7FFFE000
7FFFE000
0007E000
0007E000
0007E000
0007E000
0007E000
0007E000
0007E000
0007E000
0007E000
0007E000
0007E000
0007E000
0007E000
0007E000
0007E000
0007E000
0007E000
0007E000
0007E000
0007E000
0007E000
0007E000
0007E000
0007E000
0007E000
0007E000
0007E000
0FFFFFE0
FFFFFFFF
FFFFFFFF
FFFFFFFF
FFFFFFFF
ENDCHAR
STARTCHAR 00F0
ENCODING 240
SWIDTH 600 0
DWIDTH 42 0
BBX 34 54 4 -1
BITMAP
0018001000
003E007800
007F01FC00
007FC3FE00
003FEFF800
000FFFF000
0007FFC000
0001FF0000
0007FF0000
001FFF8000
007FFF8000
00FF9FC000
01FE0FE000
00FC07F000
007003F000
004001F800
000000FC00
000000FC00
0000007E00
0000003E00
001FF83F00
00FFFF1F00
01FFFFDF00
07FFFFFF80
0FFFFFFF80
1FF807FF80
1FE001FF80
3F80007FC0
7F00003FC0
7F00003FC0
7E00001FC0
FE00001FC0
FE00000FC0
FC00000FC0
FC00000FC0
FC00000FC0
FC00000FC0
FC00000FC0
FC00000FC0
FC00000FC0
FC00001F80
FE00001F80
7E00001F80
7F00003F80
7F00003F00
3F80007F00
1FC000FE00
1FF003FC00
0FFFFFFC00
07FFFFF800
01FFFFE000
00FFFFC000
003FFE0000
0000C00000
ENDCHAR
STARTCHAR 00F1
ENCODING 241
SWIDTH 600 0
DWIDTH 42 0
BBX 31 51 6 0
BITMAP
00FC0070
01FF00F0
03FF80F0
07FFE1F0
0FFFFFE0
0F87FFE0
0F03FFC0
1E00FF80
1E003E00
00000000
00000000
00000000
00000000
00002000
F80FFF00
F83FFFC0
F87FFFE0
F8FFFFF0
F9FFFFF8
FBE007F8
FFC003FC
FF8001FC
FF0000FC
FE0000FE
FE0000FE
FE0000FE
FC0000FE
FC0000FE
FC0000FE
FC0000FE
FC0000FE
FC0000FE
FC0000FE
FC0000FE
FC0000FE
FC0000FE
FC0000FE
FC0000FE
FC0000FE
FC0000FE
FC0000FE
FC0000FE
FC0000FE
FC0000FE
FC0000FE
FC0000FE
FC0000FE
FC0000FE
FC0000FE
FC0000FE
FC0000FE
ENDCHAR
STARTCHAR 00F2
ENCODING 242
SWIDTH 600 0
DWIDTH 42 0
BBX 34 54 4 -1
BITMAP
00FE000000
00FF000000
007F800000
003F800000
001FC00000
000FC00000
0007E00000
0003F00000
0001F80000
0000F80000
00007C0000
0000000000
0000000000
0000000000
0000000000
0000800000
001FFE0000
00FFFF8000
01FFFFE000
07FFFFF000
0FFFFFF800
0FF003FC00
1FE001FE00
3F8000FF00
3F80007F00
7F00003F80
7F00003F80
7E00001F80
FE00001FC0
FE00001FC0
FC00001FC0
FC00000FC0
FC00000FC0
FC00000FC0
FC00000FC0
FC00000FC0
FC00000FC0
FC00000FC0
FC00001FC0
FE00001FC0
FE00001FC0
7E00001F80
7F00003F80
7F00003F80
3F80007F00
3FC000FF00
1FE001FE00
0FF003FC00
0FFFFFFC00
03FFFFF800
01FFFFE000
00FFFFC000
001FFE0000
0000C00000
ENDCHAR
STARTCHAR 00F3
ENCODING 243
SWIDTH 600 0
DWIDTH 42 0
BBX 34 54 4 -1
BITMAP
00000FF000
00000FF000
00001FE000
00001FC000
00003F8000
00007F0000
00007E0000
0000FC0000
0001F80000
0001F00000
0003E00000
0000000000
0000000000
0000000000
0000000000
0000800000
001FFE0000
00FFFF8000
01FFFFE000
07FFFFF000
0FFFFFF800
0FF003FC00
1FE001FE00
3F8000FF00
3F80007F00
7F00003F80
7F00003F80
7E00001F80
FE00001FC0
FE00001FC0
FC00001FC0
FC00000FC0
FC00000FC0
FC00000FC0
FC00000FC0
FC00000FC0
FC00000FC0
FC00000FC0
FC00001FC0
FE00001FC0
FE00001FC0
7E00001F80
7F00003F80
7F00003F80
3F80007F00
3FC000FF00
1FE001FE00
0FF003FC00
0FFFFFFC00
03FFFFF800
01FFFFE000
00FFFFC000
001FFE0000
0000C00000
ENDCHAR
STARTCHAR 00F4
ENCODING 244
SWIDTH 600 0
DWIDTH 42 0
BBX 34 54 4 -1
BITMAP
0007F00000
0007F80000
000FFC0000
001FFE0000
003FFE0000
003F3F0000
007E1F8000
00FC0FC000
01F807E000
03E003F000
07C000F800
0000000000
0000000000
0000000000
0000000000
0000800000
001FFE0000
00FFFF8000
01FFFFE000
07FFFFF000
0FFFFFF800
0FF003FC00
1FE001FE00
3F8000FF00
3F80007F00
7F00003F80
7F00003F80
7E00001F80
FE00001FC0
FE00001FC0
FC00001FC0
FC00000FC0
FC00000FC0
FC00000FC0
FC00000FC0
FC00000FC0
FC00000FC0
FC00000FC0
FC00001FC0
FE00001FC0
FE00001FC0
7E00001F80
7F00003F80
7F00003F80
3F80007F00
3FC000FF00
1FE001FE00
0FF003FC00
0FFFFFFC00
03FFFFF800
01FFFFE000
00FFFFC000
001FFE0000
0000C00000
ENDCHAR
STARTCHAR 00F5
ENCODING 245
SWIDTH 600 0
DWIDTH 42 0
BBX 34 52 4 -1
BITMAP
007E003C00
00FF803800
01FFC07800
03FFF0F800
03FFFFF000
07C3FFF000
0780FFE000
07007FC000
0F001F8000
0000000000
0000000000
0000000000
0000000000
0000800000
001FFE0000
00FFFF8000
01FFFFE000
07FFFFF000
0FFFFFF800
0FF003FC00
1FE001FE00
3F8000FF00
3F80007F00
7F00003F80
7F00003F80
7E00001F80
FE00001FC0
FE00001FC0
FC00001FC0
FC00000FC0
FC00000FC0
FC00000FC0
FC00000FC0
FC00000FC0
FC00000FC0
FC00000FC0
FC00001FC0
FE00001FC0
FE00001FC0
7E00001F80
7F00003F80
7F00003F80
3F80007F00
3FC000FF00
1FE001FE00
0FF003FC00
0FFFFFFC00
03FFFFF800
01FFFFE000
00FFFFC000
001FFE0000
0000C00000
ENDCHAR
STARTCHAR 00F6
ENCODING 246
SWIDTH 600 0
DWIDTH 42 0
BBX 34 52 4 -1
BITMAP
01E001E000
03F003F000
07F807F800
07F807F800
07F807F800
07F807F800
03F003F000
01E001E000
0000000000
0000000000
0000000000
0000000000
0000000000
0000800000
001FFE0000
00FFFF8000
01FFFFE000
07FFFFF000
0FFFFFF800
0FF003FC00
1FE001FE00
3F8000FF00
3F80007F00
7F00003F80
7F00003F80
7E00001F80
FE00001FC0
FE00001FC0
FC00001FC0
FC00000FC0
FC00000FC0
FC00000FC0
FC00000FC0
FC00000FC0
FC00000FC0
FC00000FC0
FC00001FC0
FE00001FC0
FE00001FC0
7E00001F80
7F00003F80
7F00003F80
3F80007F00
3FC000FF00
1FE001FE00
0FF003FC00
0FFFFFFC00
03FFFFF800
01FFFFE000
00FFFFC000
001FFE0000
0000C00000
ENDCHAR
STARTCHAR 00F7
ENCODING 247
SWIDTH 600 0
DWIDTH 42 0
BBX 30 32 6 8
BITMAP
00078000
000FC000
001FE000
001FE000
001FE000
001FE000
000FC000
00078000
00000000
00000000
00000000
00000000
00000000
FFFFFFFC
FFFFFFFC
FFFFFFFC
FFFFFFFC
FFFFFFFC
00000000
00000000
00000000
00000000
00000000
00000000
00078000
000FC000
001FE000
001FE000
001FE000
001FE000
000FC000
00078000
ENDCHAR
STARTCHAR 00F8
ENCODING 248
SWIDTH 600 0
DWIDTH 42 0
BBX 34 41 4 -2
BITMAP
0000000400
0000800E00
001FFE1F80
00FFFFDF80
01FFFFFF00
07FFFFFE00
0FFFFFFE00
0FF007FC00
1FE001FE00
3F8003FF00
3F8003FF00
7F0007FF00
7F000FFF80
7E000FDF80
FE001F9F80
FE003F1FC0
FC007E1FC0
FC007E0FC0
FC00FC0FC0
FC01F80FC0
FC03F00FC0
FC03F00FC0
FC07E00FC0
FC0FC00FC0
FC1F801FC0
FE1F801FC0
FE3F001FC0
7E7E001F80
7FFC003F80
7FFC003F80
3FF8007F00
3FF000FF00
1FE001FE00
0FF003FC00
0FFFFFFC00
1FFFFFF800
1FFFFFE000
3F7FFFC000
7E1FFE0000
1C00C00000
0C00000000
ENDCHAR
STARTCHAR 00F9
ENCODING 249
SWIDTH 600 0
DWIDTH 42 0
BBX 31 54 5 -1
BITMAP
01FC0000
01FE0000
00FF0000
007F0000
003F8000
001F8000
000FC000
0007E000
0003F000
0001F000
0000F800
00000000
00000000
00000000
00000000
00000000
FE00007E
FE00007E
FE00007E
FE00007E
FE00007E
FE00007E
FE00007E
FE00007E
FE00007E
FE00007E
FE00007E
FE00007E
FE00007E
FE00007E
FE00007E
FE00007E
FE00007E
FE00007E
FE00007E
FE00007E
FE00007E
FE00007E
FE00007E
FE00007E
FE00007E
FE0000FE
FE0000FE
FE0000FE
7E0001FE
7F0003FE
7F8007FE
3FC00FFE
3FFFFFBE
1FFFFF3E
0FFFFE3E
07FFF83E
01FFE03E
000C0000
ENDCHAR
STARTCHAR 00FA
ENCODING 250
SWIDTH 600 0
DWIDTH 42 0
BBX 31 54 5 -1
BITMAP
00001FE0
00001FE0
00003FC0
00003F80
00007F00
0000FE00
0000FC00
0001F800
0003F000
0003E000
0007C000
00000000
00000000
00000000
00000000
00000000
FE00007E
FE00007E
FE00007E
FE00007E
FE00007E
FE00007E
FE00007E
FE00007E
FE00007E
FE00007E
FE00007E
FE00007E
FE00007E
FE00007E
FE00007E
FE00007E
FE00007E
FE00007E
FE00007E
FE00007E
FE00007E
FE00007E
FE00007E
FE00007E
FE00007E
FE0000FE
FE0000FE
FE0000FE
7E0001FE
7F0003FE
7F8007FE
3FC00FFE
3FFFFFBE
1FFFFF3E
0FFFFE3E
07FFF83E
01FFE03E
000C0000
ENDCHAR
STARTCHAR 00FB
ENCODING 251
SWIDTH 600 0
DWIDTH 42 0
BBX 31 54 5 -1
BITMAP
000FE000
000FF000
001FF800
003FFC00
007FFC00
007E7E00
00FC3F00
01F81F80
03F00FC0
07C007E0
0F8001F0
00000000
00000000
00000000
00000000
00000000
FE00007E
FE00007E
FE00007E
FE00007E
FE00007E
FE00007E
FE00007E
FE00007E
FE00007E
FE00007E
FE00007E
FE00007E
FE00007E
FE00007E
FE00007E
FE00007E
FE00007E
FE00007E
FE00007E
FE00007E
FE00007E
FE00007E
FE00007E
FE00007E
FE00007E
FE0000FE
FE0000FE
FE0000FE
7E0001FE
7F0003FE
7F8007FE
3FC00FFE
3FFFFFBE
1FFFFF3E
0FFFFE3E
07FFF83E
01FFE03E
000C0000
ENDCHAR
STARTCHAR 00FC
ENCODING 252
SWIDTH 600 0
DWIDTH 42 0
BBX 31 52 5 -1
BITMAP
03C003C0
07E007E0
0FF00FF0
0FF00FF0
0FF00FF0
0FF00FF0
07E007E0
03C003C0
00000000
00000000
00000000
00000000
00000000
00000000
FE00007E
FE00007E
FE00007E
FE00007E
FE00007E
FE00007E
FE00007E
FE00007E
FE00007E
FE00007E
FE00007E
FE00007E
FE00007E
FE00007E
FE00007E
FE00007E
FE00007E
FE00007E
FE00007E
FE00007E
FE00007E
FE00007E
FE00007E
FE00007E
FE00007E
FE0000FE
FE0000FE
FE0000FE
7E0001FE
7F0003FE
7F8007FE
3FC00FFE
3FFFFFBE
1FFFFF3E
0FFFFE3E
07FFF83E
01FFE03E
000C0000
ENDCHAR
STARTCHAR 00FD
ENCODING 253
SWIDTH 600 0
DWIDTH 42 0
BBX 36 70 3 -17
BITMAP
000007F800
000007F800
00000FF000
00000FE000
00001FC000
00003F8000
00003F0000
00007E0000
0000FC0000
0000F80000
0001F00000
0000000000
0000000000
0000000000
0000000000
0000000000
FE000007F0
7E000007E0
7E00000FE0
3F00000FC0
3F00000FC0
3F80001FC0
1F80001F80
1F80001F80
0FC0003F80
0FC0003F00
07E0003F00
07E0007E00
07E0007E00
03F0007E00
03F000FC00
01F800FC00
01F800FC00
00FC01F800
00FC01F800
00FC01F000
007E03F000
007E03F000
003F03E000
003F07E000
003F07E000
001F87C000
001F8FC000
000F8F8000
000FCF8000
0007DF8000
0007DF0000
0007FF0000
0003FF0000
0003FE0000
0001FE0000
0001FC0000
0000FC0000
0000FC0000
0001F80000
0001F80000
0001F80000
0003F00000
0003F00000
0007E00000
0007E00000
000FE00000
000FC00000
001FC00000
407F800000
7FFF000000
7FFE000000
7FFC000000
7FF8000000
3FE0000000
ENDCHAR
STARTCHAR 00FE
ENCODING 254
SWIDTH 600 0
DWIDTH 42 0
BBX 32 70 6 -17
BITMAP
FC000000
FC000000
FC000000
FC000000
FC000000
FC000000
FC000000
FC000000
FC000000
FC000000
FC000000
FC000000
FC000000
FC000000
FC000000
FC004000
FC1FFE00
FC7FFF80
FCFFFFC0
FDFFFFE0
FFFFFFF0
FFE00FF8
FF8003FC
FF0001FC
FF0000FE
FE0000FE
FE00007E
FC00007E
FC00007F
FC00007F
FC00007F
FC00003F
FC00003F
FC00003F
FC00003F
FC00003F
FC00003F
FC00003F
FC00007F
FC00007F
FC00007F
FE00007E
FE00007E
FE0000FE
FF0000FE
FF8001FC
FF8003FC
FFE00FF8
FBFFFFF0
FDFFFFE0
FCFFFFC0
FC3FFF80
FC1FFE00
FC00C000
FC000000
FC000000
FC000000
FC000000
FC000000
FC000000
FC000000
FC000000
FC000000
FC000000
FC000000
FC000000
FC000000
FC000000
FC000000
FC000000
ENDCHAR
STARTCHAR 00FF
ENCODING 255
SWIDTH 600 0
DWIDTH 42 0
BBX 36 68 3 -17
BITMAP
00F000F000
01F801F800
03FC03FC00
03FC03FC00
03FC03FC00
03FC03FC00
01F801F800
00F000F000
0000000000
0000000000
0000000000
0000000000
0000000000
0000000000
FE000007F0
7E000007E0
7E00000FE0
3F00000FC0
3F00000FC0
3F80001FC0
1F80001F80
1F80001F80
0FC0003F80
0FC0003F00
07E0003F00
07E0007E00
07E0007E00
03F0007E00
03F000FC00
01F800FC00
01F800FC00
00FC01F800
00FC01F800
00FC01F000
007E03F000
007E03F000
003F03E000
003F07E000
003F07E000
001F87C000
001F8FC000
000F8F8000
000FCF8000
0007DF8000
0007DF0000
0007FF0000
0003FF0000
0003FE0000
0001FE0000
0001FC0000
0000FC0000
0000FC0000
0001F80000
0001F80000
0001F80000
0003F00000
0003F00000
0007E00000
0007E00000
000FE00000
000FC00000
001FC00000
407F800000
7FFF000000
7FFE000000
7FFC000000
7FF8000000
3FE0000000
ENDCHAR
STARTCHAR 0100
ENCODING 256
SWIDTH 600 0
DWIDTH 42 0
BBX 40 60 1 0
BITMAP
003FFFFC00
003FFFFC00
003FFFFC00
003FFFFC00
003FFFFC00
0000000000
0000000000
0000000000
0000000000
0000000000
0000FE0000
0000FF0000
0000FF0000
0001FF0000
0001FF8000
0001FF8000
0001FF8000
0003FFC000
0003FFC000
0003E7C000
0007E7E000
0007E7E000
0007C7E000
000FC3F000
000FC3F000
000FC3F000
001F81F800
001F81F800
001F81F800
003F00FC00
003F00FC00
003F00FC00
007E007E00
007E007E00
007E007E00
00FC003F00
00FC003F00
00FC003F00
01F8003F80
01FFFFFF80
01FFFFFF80
03FFFFFFC0
03FFFFFFC0
03FFFFFFC0
07E00007E0
07E00007E0
07E00007E0
0FE00007F0
0FC00003F0
0FC00003F0
1FC00003F8
1F800001F8
1F800001F8
3F800001F8
3F000000FC
3F000000FC
3F000000FC
7F000000FE
7E0000007E
FE0000007F
ENDCHAR
STARTCHAR 0101
ENCODING 257
SWIDTH 600 0
DWIDTH 42 0
BBX 31 49 5 -1
BITMAP
03FFFFE0
03FFFFE0
03FFFFE0
03FFFFE0
03FFFFE0
00000000
00000000
00000000
00000000
00000000
00010000
00FFFE00
07FFFF80
1FFFFFE0
1FFFFFF0
1FFFFFF8
0FC007F8
0E0003FC
080001FC
000000FC
000000FC
0000007E
0000007E
0000007E
0000007E
0000007E
001FFFFE
01FFFFFE
07FFFFFE
0FFFFFFE
3FF0007E
3F80007E
7F00007E
7E00007E
FC00007E
FC00007E
FC0000FE
FC0000FE
FC0000FE
FC0001FE
FE0003FE
FE0007FE
7F801FFE
7FFFFF7E
3FFFFE7E
1FFFFC7E
0FFFF07E
03FFC03E
00180000
ENDCHAR
STARTCHAR 0102
ENCODING 258
SWIDTH 600 0
DWIDTH 42 0
BBX 40 64 1 0
BITMAP
0078001E00
0078003E00
007C003E00
003C003C00
003E007C00
003F81F800
001FFFF800
000FFFF000
0007FFC000
0000FF0000
0000000000
0000000000
0000000000
0000000000
0000FE0000
0000FF0000
0000FF0000
0001FF0000
0001FF8000
0001FF8000
0001FF8000
0003FFC000
0003FFC000
0003E7C000
0007E7E000
0007E7E000
0007C7E000
000FC3F000
000FC3F000
000FC3F000
001F81F800
001F81F800
001F81F800
003F00FC00
003F00FC00
003F00FC00
007E007E00
007E007E00
007E007E00
00FC003F00
00FC003F00
00FC003F00
01F8003F80
01FFFFFF80
01FFFFFF80
03FFFFFFC0
03FFFFFFC0
03FFFFFFC0
07E00007E0
07E00007E0
07E00007E0
0FE00007F0
0FC00003F0
0FC00003F0
1FC00003F8
1F800001F8
1F800001F8
3F800001F8
3F000000FC
3F000000FC
3F000000FC
7F000000FE
7E0000007E
FE0000007F
ENDCHAR
STARTCHAR 0103
ENCODING 259
SWIDTH 600 0
DWIDTH 42 0
BBX 31 53 5 -1
BITMAP
078001E0
07C001E0
03C003E0
03E003E0
03F007C0
01F81FC0
00FFFF80
007FFF00
003FFE00
000FF000
00000000
00000000
00000000
00000000
00010000
00FFFE00
07FFFF80
1FFFFFE0
1FFFFFF0
1FFFFFF8
0FC007F8
0E0003FC
080001FC
000000FC
000000FC
0000007E
0000007E
0000007E
0000007E
0000007E
001FFFFE
01FFFFFE
07FFFFFE
0FFFFFFE
3FF0007E
3F80007E
7F00007E
7E00007E
FC00007E
FC00007E
FC0000FE
FC0000FE
FC0000FE
FC0001FE
FE0003FE
FE0007FE
7F801FFE
7FFFFF7E
3FFFFE7E
1FFFFC7E
0FFFF07E
03FFC03E
00180000
ENDCHAR
STARTCHAR 0104
ENCODING 260
SWIDTH 600 0
DWIDTH 42 0
BBX 41 65 1 -15
BITMAP
0000FE000000
0000FF000000
0000FF000000
0001FF000000
0001FF800000
0001FF800000
0001FF800000
0003FFC00000
0003FFC00000
0003E7C00000
0007E7E00000
0007E7E00000
0007C7E00000
000FC3F00000
000FC3F00000
000FC3F00000
001F81F80000
001F81F80000
001F81F80000
003F00FC0000
003F00FC0000
003F00FC0000
007E007E0000
007E007E0000
007E007E0000
00FC003F0000
00FC003F0000
00FC003F0000
01F8003F8000
01FFFFFF8000
01FFFFFF8000
03FFFFFFC000
03FFFFFFC000
03FFFFFFC000
07E00007E000
07E00007E000
07E00007E000
0FE00007F000
0FC00003F000
0FC00003F000
1FC00003F800
1F800001F800
1F800001F800
3F800001F800
3F000000FC00
3F000000FC00
3F000000FC00
7F000000FE00
7E0000007E00
FE0000007F00
000000003E00
000000007C00
00000000F800
00000001F000
00000001F000
00000003E000
00000003E000
00000003E000
00000003E000
00000003E000
00000003F000
00000003FF80
00000001FF80
00000000FF80
000000003F80
ENDCHAR
STARTCHAR 0105
ENCODING 261
SWIDTH 600 0
DWIDTH 42 0
BBX 32 53 5 -15
BITMAP
00010000
00FFFE00
07FFFF80
1FFFFFE0
1FFFFFF0
1FFFFFF8
0FC007F8
0E0003FC
080001FC
000000FC
000000FC
0000007E
0000007E
0000007E
0000007E
0000007E
001FFFFE
01FFFFFE
07FFFFFE
0FFFFFFE
3FF0007E
3F80007E
7F00007E
7E00007E
FC00007E
FC00007E
FC0000FE
FC0000FE
FC0000FE
FC0001FE
FE0003FE
FE0007FE
7F801FFE
7FFFFF7E
3FFFFE7E
1FFFFC7E
0FFFF07E
03FFC03E
0018007C
000000F8
000001F0
000003E0
000003C0
000007C0
000007C0
000007C0
00000FC0
00000FC0
000007E0
000007FF
000003FF
000003FF
000000FF
ENDCHAR
STARTCHAR 0106
ENCODING 262
SWIDTH 600 0
DWIDTH 42 0
BBX 34 66 5 -1
BITMAP
000000FE00
000001FE00
000003FC00
000003F800
000007F000
000007E000
00000FC000
00001F8000
00003F0000
00003E0000
00007C0000
0000000000
0000000000
0000000000
0000FFE000
000FFFFE00
003FFFFFC0
007FFFFF80
01FFFFFF80
03FF807F00
07FC000700
07F8000100
0FF0000000
1FE0000000
1FC0000000
3F80000000
3F80000000
3F00000000
7F00000000
7E00000000
7E00000000
FE00000000
FE00000000
FC00000000
FC00000000
FC00000000
FC00000000
FC00000000
FC00000000
FC00000000
FC00000000
FC00000000
FC00000000
FC00000000
FC00000000
FC00000000
FE00000000
FE00000000
FE00000000
7E00000000
7F00000000
7F00000000
3F80000000
3F80000000
3FC0000000
1FE0000000
1FE0000000
0FF8000100
07FE000E00
03FFFFFE00
03FFFFFE00
00FFFFFE00
007FFFFE00
001FFFFE00
0007FFF000
0000180000
ENDCHAR
STARTCHAR 0107
ENCODING 263
SWIDTH 600 0
DWIDTH 42 0
BBX 29 54 6 -1
BITMAP
00000FF0
00000FF0
00001FE0
00001FC0
00003F80
00007F00
00007E00
0000FC00
0001F800
0001F000
0003E000
00000000
00000000
00000000
00000000
00002000
001FFFC0
007FFFF0
01FFFFF8
07FFFFF8
0FFFFFF0
0FF800F0
1FE00030
3FC00000
3F800000
7F000000
7F000000
7E000000
7E000000
FE000000
FE000000
FE000000
FC000000
FC000000
FC000000
FC000000
FC000000
FE000000
FE000000
FE000000
FE000000
7E000000
7F000000
7F000000
3F800000
3FC00000
1FE00008
1FF80078
0FFFFFF8
07FFFFF8
03FFFFF8
00FFFFF8
001FFFC0
00004000
ENDCHAR
STARTCHAR 0108
ENCODING 264
SWIDTH 600 0
DWIDTH 42 0
BBX 34 66 5 -1
BITMAP
00007E0000
0000FF0000
0001FF8000
0003FFC000
0003FFE000
0007E7E000
000FC3F000
001F81F800
003F00FC00
007E007E00
00F8001F00
0000000000
0000000000
0000000000
0000FFE000
000FFFFE00
003FFFFFC0
007FFFFF80
01FFFFFF80
03FF807F00
07FC000700
07F8000100
0FF0000000
1FE0000000
1FC0000000
3F80000000
3F80000000
3F00000000
7F00000000
7E00000000
7E00000000
FE00000000
FE00000000
FC00000000
FC00000000
FC00000000
FC00000000
FC00000000
FC00000000
FC00000000
FC00000000
FC00000000
FC00000000
FC00000000
FC00000000
FC00000000
FE00000000
FE00000000
FE00000000
7E00000000
7F00000000
7F00000000
3F80000000
3F80000000
3FC0000000
1FE0000000
1FE0000000
0FF8000100
07FE000E00
03FFFFFE00
03FFFFFE00
00FFFFFE00
007FFFFE00
001FFFFE00
0007FFF000
0000180000
ENDCHAR
STARTCHAR 0109
ENCODING 265
SWIDTH 600 0
DWIDTH 42 0
BBX 29 54 6 -1
BITMAP
0007F000
0007F800
000FFC00
001FFE00
003FFE00
003F3F00
007E1F80
00FC0FC0
01F807E0
03E003F0
07C000F8
00000000
00000000
00000000
00000000
00002000
001FFFC0
007FFFF0
01FFFFF8
07FFFFF8
0FFFFFF0
0FF800F0
1FE00030
3FC00000
3F800000
7F000000
7F000000
7E000000
7E000000
FE000000
FE000000
FE000000
FC000000
FC000000
FC000000
FC000000
FC000000
FE000000
FE000000
FE000000
FE000000
7E000000
7F000000
7F000000
3F800000
3FC00000
1FE00008
1FF80078
0FFFFFF8
07FFFFF8
03FFFFF8
00FFFFF8
001FFFC0
00004000
ENDCHAR
STARTCHAR 010A
ENCODING 266
SWIDTH 600 0
DWIDTH 42 0
BBX 34 66 5 -1
BITMAP
00003C0000
00007F0000
0000FF0000
0000FF0000
0000FF0000
0000FF0000
0000FF0000
00007F0000
00003C0000
0000000000
0000000000
0000000000
0000000000
0000000000
0000FFE000
000FFFFE00
003FFFFFC0
007FFFFF80
01FFFFFF80
03FF807F00
07FC000700
07F8000100
0FF0000000
1FE0000000
1FC0000000
3F80000000
3F80000000
3F00000000
7F00000000
7E00000000
7E00000000
FE00000000
FE00000000
FC00000000
FC00000000
FC00000000
FC00000000
FC00000000
FC00000000
FC00000000
FC00000000
FC00000000
FC00000000
FC00000000
FC00000000
FC00000000
FE00000000
FE00000000
FE00000000
7E00000000
7F00000000
7F00000000
3F80000000
3F80000000
3FC0000000
1FE0000000
1FE0000000
0FF8000100
07FE000E00
03FFFFFE00
03FFFFFE00
00FFFFFE00
007FFFFE00
001FFFFE00
0007FFF000
0000180000
ENDCHAR
STARTCHAR 010B
ENCODING 267
SWIDTH 600 0
DWIDTH 42 0
BBX 29 54 6 -1
BITMAP
0001E000
0007F000
0007F800
0007F800
000FF800
0007F800
0007F800
0007F000
0001E000
00000000
00000000
00000000
00000000
00000000
00000000
00002000
001FFFC0
007FFFF0
01FFFFF8
07FFFFF8
0FFFFFF0
0FF800F0
1FE00030
3FC00000
3F800000
7F000000
7F000000
7E000000
7E000000
FE000000
FE000000
FE000000
FC000000
FC000000
FC000000
FC000000
FC000000
FE000000
FE000000
FE000000
FE000000
7E000000
7F000000
7F000000
3F800000
3FC00000
1FE00008
1FF80078
0FFFFFF8
07FFFFF8
03FFFFF8
00FFFFF8
001FFFC0
00004000
ENDCHAR
STARTCHAR 010C
ENCODING 268
SWIDTH 600 0
DWIDTH 42 0
BBX 34 66 5 -1
BITMAP
00F8001F00
007E007E00
003F00FC00
001F81F800
000FC3F000
0007E7F000
0007FFE000
0003FFC000
0001FF8000
0000FF0000
00007E0000
0000000000
0000000000
0000000000
0000FFE000
000FFFFE00
003FFFFFC0
007FFFFF80
01FFFFFF80
03FF807F00
07FC000700
07F8000100
0FF0000000
1FE0000000
1FC0000000
3F80000000
3F80000000
3F00000000
7F00000000
7E00000000
7E00000000
FE00000000
FE00000000
FC00000000
FC00000000
FC00000000
FC00000000
FC00000000
FC00000000
FC00000000
FC00000000
FC00000000
FC00000000
FC00000000
FC00000000
FC00000000
FE00000000
FE00000000
FE00000000
7E00000000
7F00000000
7F00000000
3F80000000
3F80000000
3FC0000000
1FE0000000
1FE0000000
0FF8000100
07FE000E00
03FFFFFE00
03FFFFFE00
00FFFFFE00
007FFFFE00
001FFFFE00
0007FFF000
0000180000
ENDCHAR
STARTCHAR 010D
ENCODING 269
SWIDTH 600 0
DWIDTH 42 0
BBX 29 54 6 -1
BITMAP
07C000F8
03E003F0
01F807E0
00FC0FC0
00FE1F80
007F3F00
003FFE00
001FFE00
000FFC00
0007F800
0007F000
00000000
00000000
00000000
00000000
00002000
001FFFC0
007FFFF0
01FFFFF8
07FFFFF8
0FFFFFF0
0FF800F0
1FE00030
3FC00000
3F800000
7F000000
7F000000
7E000000
7E000000
FE000000
FE000000
FE000000
FC000000
FC000000
FC000000
FC000000
FC000000
FE000000
FE000000
FE000000
FE000000
7E000000
7F000000
7F000000
3F800000
3FC00000
1FE00008
1FF80078
0FFFFFF8
07FFFFF8
03FFFFF8
00FFFFF8
001FFFC0
00004000
ENDCHAR
STARTCHAR 010E
ENCODING 270
SWIDTH 600 0
DWIDTH 42 0
BBX 34 65 5 0
BITMAP
1F0007C000
1F800FC000
0FC03F8000
07E07F0000
03F0FE0000
01F9FC0000
00FFF80000
007FF00000
007FE00000
003FC00000
001FC00000
0000000000
0000000000
0000000000
0000000000
FFFF800000
FFFFF80000
FFFFFE0000
FFFFFF8000
FFFFFFC000
FC01FFE000
FC003FF000
FC000FF800
FC0003FC00
FC0001FC00
FC0000FE00
FC0000FE00
FC00007F00
FC00007F00
FC00003F00
FC00003F80
FC00003F80
FC00001F80
FC00001F80
FC00001FC0
FC00001FC0
FC00001FC0
FC00001FC0
FC00001FC0
FC00001FC0
FC00001FC0
FC00001FC0
FC00001FC0
FC00001FC0
FC00001FC0
FC00001F80
FC00001F80
FC00001F80
FC00003F80
FC00003F80
FC00003F00
FC00007F00
FC00007F00
FC0000FE00
FC0001FE00
FC0001FC00
FC0007F800
FC000FF800
FC003FF000
FC01FFE000
FFFFFFC000
FFFFFF0000
FFFFFC0000
FFFFF00000
FFFF000000
ENDCHAR
STARTCHAR 010F
ENCODING 271
SWIDTH 600 0
DWIDTH 42 0
BBX 42 54 3 -1
BITMAP
000000FE0FC0
000000FE0FC0
000000FE1F80
000000FE1F80
000000FE1F00
000000FE1F00
000000FE1F00
000000FE3E00
000000FE3C00
000000FE3C00
000000FE3800
000000FE0000
000000FE0000
000000FE0000
000000FE0000
000200FE0000
007FF0FE0000
01FFF8FE0000
03FFFC7E0000
0FFFFE7E0000
0FFFFF7E0000
1FF01FFE0000
3FC007FE0000
3F8003FE0000
3F8003FE0000
7F0001FE0000
7F0001FE0000
7E0000FE0000
7E0000FE0000
FE0000FE0000
FE0000FE0000
FE0000FE0000
FE0000FE0000
FE0000FE0000
FE0000FE0000
FE0000FE0000
FE0000FE0000
FE0000FE0000
FE0000FE0000
FE0000FE0000
7E0000FE0000
7E0000FE0000
7F0001FE0000
7F0001FE0000
3F0003FE0000
3F8003FE0000
3FC007FE0000
1FE01FFE0000
0FFFFF7E0000
07FFFE7E0000
03FFFC7E0000
01FFF87E0000
007FE07E0000
000600000000
ENDCHAR
STARTCHAR 0110
ENCODING 272
SWIDTH 600 0
DWIDTH 42 0
BBX 40 50 0 0
BITMAP
03FFFE0000
03FFFFC000
03FFFFF800
03FFFFFC00
03FFFFFF00
03F007FF80
03F000FFC0
03F0003FE0
03F0001FE0
03F0000FF0
03F00007F8
03F00003F8
03F00001FC
03F00001FC
03F00000FC
03F00000FC
03F00000FE
03F00000FE
03F000007E
03F000007E
03F000007E
03F000007E
03F000007E
FFFFF0007F
FFFFF0007F
FFFFF0007F
FFFFF0007E
FFFFF0007E
03F000007E
03F000007E
03F000007E
03F00000FE
03F00000FE
03F00000FE
03F00000FC
03F00001FC
03F00001FC
03F00003F8
03F00003F8
03F00007F0
03F0000FF0
03F0001FE0
03F0003FC0
03F000FFC0
03F00FFF00
03FFFFFE00
03FFFFFC00
03FFFFF000
03FFFFC000
03FFFC0000
ENDCHAR
STARTCHAR 0111
ENCODING 273
SWIDTH 600 0
DWIDTH 42 0
BBX 38 54 4 -1
BITMAP
0000003F00
0000003F00
0000003F00
0000003F00
0000003F00
0000003F00
0003FFFFFC
0003FFFFFC
0003FFFFFC
0003FFFFFC
0003FFFFFC
0000003F00
0000003F00
0000003F00
0000003F00
0000003F00
001FF03F00
00FFFC3F00
03FFFE3F00
07FFFFBF00
0FFFFFBF00
1FF81FDF00
1FE003FF00
3FC001FF00
3F8000FF00
7F0000FF00
7F00007F00
7E00007F00
FE00007F00
FE00003F00
FE00003F00
FC00003F00
FC00003F00
FC00003F00
FC00003F00
FC00003F00
FC00003F00
FC00003F00
FC00003F00
FE00003F00
FE00003F00
7E00007F00
7E00007F00
7F00007F00
7F0000FF00
3F8001FF00
3FC003FF00
1FF007FF00
0FFFFFDF00
07FFFF9F00
03FFFF1F00
01FFFE1F00
007FF81F00
0003000000
ENDCHAR
STARTCHAR 0112
ENCODING 274
SWIDTH 600 0
DWIDTH 42 0
BBX 29 60 7 0
BITMAP
0FFFFF80
0FFFFF80
0FFFFF80
0FFFFF80
0FFFFF80
00000000
00000000
00000000
00000000
00000000
FFFFFFF8
FFFFFFF8
FFFFFFF8
FFFFFFF8
FFFFFFF8
FC000000
FC000000
FC000000
FC000000
FC000000
FC000000
FC000000
FC000000
FC000000
FC000000
FC000000
FC000000
FC000000
FC000000
FC000000
FC000000
FC000000
FFFFFFF0
FFFFFFF0
FFFFFFF0
FFFFFFF0
FFFFFFF0
FC000000
FC000000
FC000000
FC000000
FC000000
FC000000
FC000000
FC000000
FC000000
FC000000
FC000000
FC000000
FC000000
FC000000
FC000000
FC000000
FC000000
FC000000
FFFFFFF8
FFFFFFF8
FFFFFFF8
FFFFFFF8
FFFFFFF8
ENDCHAR
STARTCHAR 0113
ENCODING 275
SWIDTH 600 0
DWIDTH 42 0
BBX 34 49 4 -1
BITMAP
01FFFFF000
01FFFFF000
01FFFFF000
01FFFFF000
01FFFFF000
0000000000
0000000000
0000000000
0000000000
0000000000
0000400000
000FFF0000
007FFFC000
00FFFFF000
03FFFFF800
07FFFFFC00
0FF801FE00
0FE000FE00
1FC0007F00
3F80003F00
3F00003F80
7F00001F80
7E00001F80
7E00001FC0
7E00001FC0
FFFFFFFFC0
FFFFFFFFC0
FFFFFFFFC0
FFFFFFFFC0
FFFFFFFFC0
FE00000000
FE00000000
FE00000000
FE00000000
7E00000000
7E00000000
7F00000000
7F00000000
3F80000000
3F80000000
1FC0000100
1FF0000700
0FFC003F00
07FFFFFF00
03FFFFFF00
00FFFFFF00
003FFFFE00
000FFFF000
0000300000
ENDCHAR
STARTCHAR 0114
ENCODING 276
SWIDTH 600 0
DWIDTH 42 0
BBX 29 64 7 0
BITMAP
0F000780
0F000780
0F000780
0F800F80
0FC01F00
07E07F00
03FFFE00
01FFFC00
00FFF800
003FC000
00000000
00000000
00000000
00000000
FFFFFFF8
FFFFFFF8
FFFFFFF8
FFFFFFF8
FFFFFFF8
FC000000
FC000000
FC000000
FC000000
FC000000
FC000000
FC000000
FC000000
FC000000
FC000000
FC000000
FC000000
FC000000
FC000000
FC000000
FC000000
FC000000
FFFFFFF0
FFFFFFF0
FFFFFFF0
FFFFFFF0
FFFFFFF0
FC000000
FC000000
FC000000
FC000000
FC000000
FC000000
FC000000
FC000000
FC000000
FC000000
FC000000
FC000000
FC000000
FC000000
FC000000
FC000000
FC000000
FC000000
FFFFFFF8
FFFFFFF8
FFFFFFF8
FFFFFFF8
FFFFFFF8
ENDCHAR
STARTCHAR 0115
ENCODING 277
SWIDTH 600 0
DWIDTH 42 0
BBX 34 53 4 -1
BITMAP
03C000F000
03E000F000
01E001F000
01F001F000
01F803E000
00FC0FE000
007FFFC000
007FFF8000
001FFF0000
0007F80000
0000000000
0000000000
0000000000
0000000000
0000400000
000FFF0000
007FFFC000
00FFFFF000
03FFFFF800
07FFFFFC00
0FF801FE00
0FE000FE00
1FC0007F00
3F80003F00
3F00003F80
7F00001F80
7E00001F80
7E00001FC0
7E00001FC0
FFFFFFFFC0
FFFFFFFFC0
FFFFFFFFC0
FFFFFFFFC0
FFFFFFFFC0
FE00000000
FE00000000
FE00000000
FE00000000
7E00000000
7E00000000
7F00000000
7F00000000
3F80000000
3F80000000
1FC0000100
1FF0000700
0FFC003F00
07FFFFFF00
03FFFFFF00
00FFFFFF00
003FFFFE00
000FFFF000
0000300000
ENDCHAR
STARTCHAR 0116
ENCODING 278
SWIDTH 600 0
DWIDTH 42 0
BBX 29 65 7 0
BITMAP
000F8000
001FC000
003FC000
003FE000
003FE000
003FE000
003FC000
001FC000
000F8000
00000000
00000000
00000000
00000000
00000000
00000000
FFFFFFF8
FFFFFFF8
FFFFFFF8
FFFFFFF8
FFFFFFF8
FC000000
FC000000
FC000000
FC000000
FC000000
FC000000
FC000000
FC000000
FC000000
FC000000
FC000000
FC000000
FC000000
FC000000
FC000000
FC000000
FC000000
FFFFFFF0
FFFFFFF0
FFFFFFF0
FFFFFFF0
FFFFFFF0
FC000000
FC000000
FC000000
FC000000
FC000000
FC000000
FC000000
FC000000
FC000000
FC000000
FC000000
FC000000
FC000000
FC000000
FC000000
FC000000
FC000000
FC000000
FFFFFFF8
FFFFFFF8
FFFFFFF8
FFFFFFF8
FFFFFFF8
ENDCHAR
STARTCHAR 0117
ENCODING 279
SWIDTH 600 0
DWIDTH 42 0
BBX 34 54 4 -1
BITMAP
0001E00000
0003F80000
0007F80000
0007FC0000
0007FC0000
0007FC0000
0007F80000
0003F80000
0001E00000
0000000000
0000000000
0000000000
0000000000
0000000000
0000000000
0000400000
000FFF0000
007FFFC000
00FFFFF000
03FFFFF800
07FFFFFC00
0FF801FE00
0FE000FE00
1FC0007F00
3F80003F00
3F00003F80
7F00001F80
7E00001F80
7E00001FC0
7E00001FC0
FFFFFFFFC0
FFFFFFFFC0
FFFFFFFFC0
FFFFFFFFC0
FFFFFFFFC0
FE00000000
FE00000000
FE00000000
FE00000000
7E00000000
7E00000000
7F00000000
7F00000000
3F80000000
3F80000000
1FC0000100
1FF0000700
0FFC003F00
07FFFFFF00
03FFFFFF00
00FFFFFF00
003FFFFE00
000FFFF000
0000300000
ENDCHAR
STARTCHAR 0118
ENCODING 280
SWIDTH 600 0
DWIDTH 42 0
BBX 29 65 7 -15
BITMAP
FFFFFFF8
FFFFFFF8
FFFFFFF8
FFFFFFF8
FFFFFFF8
FC000000
FC000000
FC000000
FC000000
FC000000
FC000000
FC000000
FC000000
FC000000
FC000000
FC000000
FC000000
FC000000
FC000000
FC000000
FC000000
FC000000
FFFFFFF0
FFFFFFF0
FFFFFFF0
FFFFFFF0
FFFFFFF0
FC000000
FC000000
FC000000
FC000000
FC000000
FC000000
FC000000
FC000000
FC000000
FC000000
FC000000
FC000000
FC000000
FC000000
FC000000
FC000000
FC000000
FC000000
FFFFFFF8
FFFFFFF8
FFFFFFF8
FFFFFFF8
FFFFFFF8
00000F80
00001F00
00003E00
00007C00
00007800
0000F800
0000F800
0000F800
0001F800
0001F800
0000FC00
0000FFE0
00007FE0
00007FE0
00001FE0
ENDCHAR
STARTCHAR 0119
ENCODING 281
SWIDTH 600 0
DWIDTH 42 0
BBX 34 53 4 -15
BITMAP
0000400000
000FFF0000
007FFFC000
00FFFFF000
03FFFFF800
07FFFFFC00
0FF801FE00
0FE000FE00
1FC0007F00
3F80003F00
3F00003F80
7F00001F80
7E00001F80
7E00001FC0
7E00001FC0
FFFFFFFFC0
FFFFFFFFC0
FFFFFFFFC0
FFFFFFFFC0
FFFFFFFFC0
FE00000000
FE00000000
FE00000000
FE00000000
7E00000000
7E00000000
7F00000000
7F00000000
3F80000000
3F80000000
1FC0000100
1FF0000700
0FFC003F00
07FFFFFF00
03FFFFFF00
00FFFFFF00
003FFFFE00
000FFFFC00
000038F800
000001F000
000003E000
000007C000
000007C000
00000F8000
00000F8000
00000F8000
00000F8000
00000F8000
00000FC000
000007FE00
000007FE00
000003FE00
000000FE00
ENDCHAR
STARTCHAR 011A
ENCODING 282
SWIDTH 600 0
DWIDTH 42 0
BBX 29 65 7 0
BITMAP
1F0007C0
1F800FC0
0FC01F80
07E07F00
03F0FE00
01F9FC00
00FFF800
007FF000
007FE000
003FC000
001FC000
00000000
00000000
00000000
00000000
FFFFFFF8
FFFFFFF8
FFFFFFF8
FFFFFFF8
FFFFFFF8
FC000000
FC000000
FC000000
FC000000
FC000000
FC000000
FC000000
FC000000
FC000000
FC000000
FC000000
FC000000
FC000000
FC000000
FC000000
FC000000
FC000000
FFFFFFF0
FFFFFFF0
FFFFFFF0
FFFFFFF0
FFFFFFF0
FC000000
FC000000
FC000000
FC000000
FC000000
FC000000
FC000000
FC000000
FC000000
FC000000
FC000000
FC000000
FC000000
FC000000
FC000000
FC000000
FC000000
FC000000
FFFFFFF8
FFFFFFF8
FFFFFFF8
FFFFFFF8
FFFFFFF8
ENDCHAR
STARTCHAR 011B
ENCODING 283
SWIDTH 600 0
DWIDTH 42 0
BBX 34 54 4 -1
BITMAP
07C000F800
03F001F800
01F807F000
00FC0FE000
007E1FC000
003F3F8000
001FFF0000
000FFE0000
000FFC0000
0007F80000
0003F80000
0000000000
0000000000
0000000000
0000000000
0000400000
000FFF0000
007FFFC000
00FFFFF000
03FFFFF800
07FFFFFC00
0FF801FE00
0FE000FE00
1FC0007F00
3F80003F00
3F00003F80
7F00001F80
7E00001F80
7E00001FC0
7E00001FC0
FFFFFFFFC0
FFFFFFFFC0
FFFFFFFFC0
FFFFFFFFC0
FFFFFFFFC0
FE00000000
FE00000000
FE00000000
FE00000000
7E00000000
7E00000000
7F00000000
7F00000000
3F80000000
3F80000000
1FC0000100
1FF0000700
0FFC003F00
07FFFFFF00
03FFFFFF00
00FFFFFF00
003FFFFE00
000FFFF000
0000300000
ENDCHAR
STARTCHAR 011C
ENCODING 284
SWIDTH 600 0
DWIDTH 42 0
BBX 34 66 3 -1
BITMAP
0000FE0000
0001FF0000
0001FF0000
0003FF8000
0007EFC000
000FC7E000
001F83F000
003F01F800
007E00FC00
00FC007E00
00F8003E00
0000000000
0000000000
0000000000
0000FFE000
0007FFFE00
001FFFFFC0
007FFFFF80
00FFFFFF80
01FFC03F00
03FE000700
07F8000100
07F0000000
0FE0000000
1FC0000000
1FC0000000
3F80000000
3F80000000
3F00000000
7F00000000
7F00000000
7E00000000
7E00000000
7E00000000
FE00000000
FE00000000
FE00000000
FE00000000
FE00000000
FE001FFFC0
FE001FFFC0
FE001FFFC0
FE001FFFC0
FE001FFFC0
FE00000FC0
FE00000FC0
FE00000FC0
7E00000FC0
7E00000FC0
7F00000FC0
7F00000FC0
3F00000FC0
3F80000FC0
3F80000FC0
1FC0000FC0
1FC0000FC0
0FE0000FC0
0FF0000FC0
07FC000FC0
03FF001FC0
01FFFFFFC0
00FFFFFFC0
007FFFFFC0
001FFFFF80
0007FFF800
00000C0000
ENDCHAR
STARTCHAR 011D
ENCODING 285
SWIDTH 600 0
DWIDTH 42 0
BBX 32 70 4 -17
BITMAP
0007F000
0007F800
000FFC00
001FFE00
003FFE00
003F3F00
007E1F80
00FC0FC0
01F807E0
03E003F0
07C000F8
00000000
00000000
00000000
00000000
00010000
007FF81F
01FFFE1F
03FFFF1F
07FFFF9F
0FFFFFDF
1FF007FF
1FC001FF
3F8000FF
3F8000FF
7F00007F
7F00007F
7E00003F
FE00003F
FE00003F
FE00003F
FC00001F
FC00001F
FC00001F
FC00001F
FC00001F
FC00001F
FC00001F
FE00001F
FE00003F
FE00003F
7E00003F
7F00003F
7F00007F
3F80007F
3F8000FF
1FC001FF
1FF007FF
0FFFFFDF
07FFFFDF
03FFFF9F
01FFFF1F
007FFC1F
0001001F
0000003F
0000003F
0000003F
0000003F
0000003F
0000007F
0000007F
000000FE
200001FE
3C0003FC
3FC01FFC
3FFFFFF8
3FFFFFF0
3FFFFFC0
07FFFF00
007FF800
ENDCHAR
STARTCHAR 011E
ENCODING 286
SWIDTH 600 0
DWIDTH 42 0
BBX 34 65 3 -1
BITMAP
0078003C00
0078003C00
0078003C00
007C007C00
003E00F800
003F83F800
001FFFF000
000FFFE000
0007FFC000
0001FE0000
0000000000
0000000000
0000000000
0000FFE000
0007FFFE00
001FFFFFC0
007FFFFF80
00FFFFFF80
01FFC03F00
03FE000700
07F8000100
07F0000000
0FE0000000
1FC0000000
1FC0000000
3F80000000
3F80000000
3F00000000
7F00000000
7F00000000
7E00000000
7E00000000
7E00000000
FE00000000
FE00000000
FE00000000
FE00000000
FE00000000
FE001FFFC0
FE001FFFC0
FE001FFFC0
FE001FFFC0
FE001FFFC0
FE00000FC0
FE00000FC0
FE00000FC0
7E00000FC0
7E00000FC0
7F00000FC0
7F00000FC0
3F00000FC0
3F80000FC0
3F80000FC0
1FC0000FC0
1FC0000FC0
0FE0000FC0
0FF0000FC0
07FC000FC0
03FF001FC0
01FFFFFFC0
00FFFFFFC0
007FFFFFC0
001FFFFF80
0007FFF800
00000C0000
ENDCHAR
STARTCHAR 011F
ENCODING 287
SWIDTH 600 0
DWIDTH 42 0
BBX 32 69 4 -17
BITMAP
03C000F0
03C001F0
03E001F0
01E001E0
01F003E0
01FC0FC0
00FFFFC0
007FFF80
003FFE00
0007F800
00000000
00000000
00000000
00000000
00010000
007FF81F
01FFFE1F
03FFFF1F
07FFFF9F
0FFFFFDF
1FF007FF
1FC001FF
3F8000FF
3F8000FF
7F00007F
7F00007F
7E00003F
FE00003F
FE00003F
FE00003F
FC00001F
FC00001F
FC00001F
FC00001F
FC00001F
FC00001F
FC00001F
FE00001F
FE00003F
FE00003F
7E00003F
7F00003F
7F00007F
3F80007F
3F8000FF
1FC001FF
1FF007FF
0FFFFFDF
07FFFFDF
03FFFF9F
01FFFF1F
007FFC1F
0001001F
0000003F
0000003F
0000003F
0000003F
0000003F
0000007F
0000007F
000000FE
200001FE
3C0003FC
3FC01FFC
3FFFFFF8
3FFFFFF0
3FFFFFC0
07FFFF00
007FF800
ENDCHAR
STARTCHAR 0120
ENCODING 288
SWIDTH 600 0
DWIDTH 42 0
BBX 34 66 3 -1
BITMAP
00007C0000
0000FE0000
0001FF0000
0001FF0000
0001FF0000
0001FF0000
0001FF0000
0000FE0000
00007C0000
0000000000
0000000000
0000000000
0000000000
0000000000
0000FFE000
0007FFFE00
001FFFFFC0
007FFFFF80
00FFFFFF80
01FFC03F00
03FE000700
07F8000100
07F0000000
0FE0000000
1FC0000000
1FC0000000
3F80000000
3F80000000
3F00000000
7F00000000
7F00000000
7E00000000
7E00000000
7E00000000
FE00000000
FE00000000
FE00000000
FE00000000
FE00000000
FE001FFFC0
FE001FFFC0
FE001FFFC0
FE001FFFC0
FE001FFFC0
FE00000FC0
FE00000FC0
FE00000FC0
7E00000FC0
7E00000FC0
7F00000FC0
7F00000FC0
3F00000FC0
3F80000FC0
3F80000FC0
1FC0000FC0
1FC0000FC0
0FE0000FC0
0FF0000FC0
07FC000FC0
03FF001FC0
01FFFFFFC0
00FFFFFFC0
007FFFFFC0
001FFFFF80
0007FFF800
00000C0000
ENDCHAR
STARTCHAR 0121
ENCODING 289
SWIDTH 600 0
DWIDTH 42 0
BBX 32 70 4 -17
BITMAP
0001E000
0007F000
0007F800
0007F800
0007F800
0007F800
0007F800
0007F000
0001E000
00000000
00000000
00000000
00000000
00000000
00000000
00010000
007FF81F
01FFFE1F
03FFFF1F
07FFFF9F
0FFFFFDF
1FF007FF
1FC001FF
3F8000FF
3F8000FF
7F00007F
7F00007F
7E00003F
FE00003F
FE00003F
FE00003F
FC00001F
FC00001F
FC00001F
FC00001F
FC00001F
FC00001F
FC00001F
FE00001F
FE00003F
FE00003F
7E00003F
7F00003F
7F00007F
3F80007F
3F8000FF
1FC001FF
1FF007FF
0FFFFFDF
07FFFFDF
03FFFF9F
01FFFF1F
007FFC1F
0001001F
0000003F
0000003F
0000003F
0000003F
0000003F
0000007F
0000007F
000000FE
200001FE
3C0003FC
3FC01FFC
3FFFFFF8
3FFFFFF0
3FFFFFC0
07FFFF00
007FF800
ENDCHAR
STARTCHAR 0122
ENCODING 290
SWIDTH 600 0
DWIDTH 42 0
BBX 34 66 3 -15
BITMAP
0000FFE000
0007FFFE00
001FFFFFC0
007FFFFF80
00FFFFFF80
01FFC03F00
03FE000700
07F8000100
07F0000000
0FE0000000
1FC0000000
1FC0000000
3F80000000
3F80000000
3F00000000
7F00000000
7F00000000
7E00000000
7E00000000
7E00000000
FE00000000
FE00000000
FE00000000
FE00000000
FE00000000
FE001FFFC0
FE001FFFC0
FE001FFFC0
FE001FFFC0
FE001FFFC0
FE00000FC0
FE00000FC0
FE00000FC0
7E00000FC0
7E00000FC0
7F00000FC0
7F00000FC0
3F00000FC0
3F80000FC0
3F80000FC0
1FC0000FC0
1FC0000FC0
0FE0000FC0
0FF0000FC0
07FC000FC0
03FF001FC0
01FFFFFFC0
00FFFFFFC0
007FFFFFC0
001FFFFF80
0007FFF800
00000C0000
0000000000
0000000000
0000000000
00003F0000
00007E0000
00007E0000
00007E0000
00007C0000
0000FC0000
0000F80000
0000F80000
0001F00000
0001E00000
0001E00000
ENDCHAR
STARTCHAR 0123
ENCODING 291
SWIDTH 600 0
DWIDTH 42 0
BBX 32 70 4 -17
BITMAP
00003800
00007800
0000F800
0000F000
0001F000
0001F000
0003F000
0003E000
0007E000
0007E000
000FE000
00000000
00000000
00000000
00000000
00010000
007FF81F
01FFFE1F
03FFFF1F
07FFFF9F
0FFFFFDF
1FF007FF
1FC001FF
3F8000FF
3F8000FF
7F00007F
7F00007F
7E00003F
FE00003F
FE00003F
FE00003F
FC00001F
FC00001F
FC00001F
FC00001F
FC00001F
FC00001F
FC00001F
FE00001F
FE00003F
FE00003F
7E00003F
7F00003F
7F00007F
3F80007F
3F8000FF
1FC001FF
1FF007FF
0FFFFFDF
07FFFFDF
03FFFF9F
01FFFF1F
007FFC1F
0001001F
0000003F
0000003F
0000003F
0000003F
0000003F
0000007F
0000007F
000000FE
200001FE
3C0003FC
3FC01FFC
3FFFFFF8
3FFFFFF0
3FFFFFC0
07FFFF00
007FF800
ENDCHAR
STARTCHAR 0124
ENCODING 292
SWIDTH 600 0
DWIDTH 42 0
BBX 32 65 5 0
BITMAP
000FE000
000FF000
001FF800
003FFC00
007FFC00
007E7E00
00FC3F00
01F81F80
03F00FC0
07C007E0
0F8001F0
00000000
00000000
00000000
00000000
FC00003F
FC00003F
FC00003F
FC00003F
FC00003F
FC00003F
FC00003F
FC00003F
FC00003F
FC00003F
FC00003F
FC00003F
FC00003F
FC00003F
FC00003F
FC00003F
FC00003F
FC00003F
FC00003F
FC00003F
FC00003F
FC00003F
FFFFFFFF
FFFFFFFF
FFFFFFFF
FFFFFFFF
FFFFFFFF
FC00003F
FC00003F
FC00003F
FC00003F
FC00003F
FC00003F
FC00003F
FC00003F
FC00003F
FC00003F
FC00003F
FC00003F
FC00003F
FC00003F
FC00003F
FC00003F
FC00003F
FC00003F
FC00003F
FC00003F
FC00003F
FC00003F
FC00003F
ENDCHAR
STARTCHAR 0125
ENCODING 293
SWIDTH 600 0
DWIDTH 42 0
BBX 40 69 -3 0
BITMAP
00FE000000
00FF000000
01FF800000
03FF800000
07FFC00000
0FE7E00000
1F83F00000
1F01F80000
3E00FC0000
7C007E0000
F8001F0000
0000000000
0000000000
0000000000
0000000000
0000000000
007E000000
007E000000
007E000000
007E000000
007E000000
007E000000
007E000000
007E000000
007E000000
007E000000
007E000000
007E000000
007E000000
007E000000
007E000000
007E002000
007E07FF80
007E1FFFE0
007E3FFFF0
007E7FFFF8
007EFFFFFC
007EF807FC
007FE001FE
007FC000FE
007F8000FE
007F80007E
007F00007F
007F00007F
007F00007F
007E00007F
007E00007F
007E00007F
007E00007F
007E00007F
007E00007F
007E00007F
007E00007F
007E00007F
007E00007F
007E00007F
007E00007F
007E00007F
007E00007F
007E00007F
007E00007F
007E00007F
007E00007F
007E00007F
007E00007F
007E00007F
007E00007F
007E00007F
007E00007F
ENDCHAR
STARTCHAR 0126
ENCODING 294
SWIDTH 600 0
DWIDTH 42 0
BBX 42 50 0 0
BITMAP
07E00001F800
07E00001F800
07E00001F800
07E00001F800
07E00001F800
07E00001F800
07E00001F800
07E00001F800
07E00001F800
FFFFFFFFFFC0
FFFFFFFFFFC0
FFFFFFFFFFC0
FFFFFFFFFFC0
FFFFFFFFFFC0
07E00001F800
07E00001F800
07E00001F800
07E00001F800
07E00001F800
07E00001F800
07E00001F800
07E00001F800
07FFFFFFF800
07FFFFFFF800
07FFFFFFF800
07FFFFFFF800
07FFFFFFF800
07E00001F800
07E00001F800
07E00001F800
07E00001F800
07E00001F800
07E00001F800
07E00001F800
07E00001F800
07E00001F800
07E00001F800
07E00001F800
07E00001F800
07E00001F800
07E00001F800
07E00001F800
07E00001F800
07E00001F800
07E00001F800
07E00001F800
07E00001F800
07E00001F800
07E00001F800
07E00001F800
ENDCHAR
STARTCHAR 0127
ENCODING 295
SWIDTH 600 0
DWIDTH 42 0
BBX 37 53 0 0
BITMAP
03F0000000
03F0000000
03F0000000
03F0000000
03F0000000
03F0000000
FFFFFF0000
FFFFFF0000
FFFFFF0000
FFFFFF0000
FFFFFF0000
03F0000000
03F0000000
03F0000000
03F0000000
03F0010000
03F03FFC00
03F0FFFF00
03F1FFFF80
03F3FFFFC0
03F7FFFFE0
03F7C03FE0
03FF000FF0
03FE0007F0
03FC0007F0
03FC0003F0
03F80003F8
03F80003F8
03F80003F8
03F00003F8
03F00003F8
03F00003F8
03F00003F8
03F00003F8
03F00003F8
03F00003F8
03F00003F8
03F00003F8
03F00003F8
03F00003F8
03F00003F8
03F00003F8
03F00003F8
03F00003F8
03F00003F8
03F00003F8
03F00003F8
03F00003F8
03F00003F8
03F00003F8
03F00003F8
03F00003F8
03F00003F8
ENDCHAR
STARTCHAR 0128
ENCODING 296
SWIDTH 600 0
DWIDTH 42 0
BBX 26 63 8 0
BITMAP
07E003C0
0FF80380
1FFC0780
3FFF0F80
3FFFFF00
7C3FFF00
780FFE00
7007FC00
F001F800
00000000
00000000
00000000
00000000
FFFFFFC0
FFFFFFC0
FFFFFFC0
FFFFFFC0
FFFFFFC0
003F0000
003F0000
003F0000
003F0000
003F0000
003F0000
003F0000
003F0000
003F0000
003F0000
003F0000
003F0000
003F0000
003F0000
003F0000
003F0000
003F0000
003F0000
003F0000
003F0000
003F0000
003F0000
003F0000
003F0000
003F0000
003F0000
003F0000
003F0000
003F0000
003F0000
003F0000
003F0000
003F0000
003F0000
003F0000
003F0000
003F0000
003F0000
003F0000
003F0000
3FFFFF80
FFFFFFC0
FFFFFFC0
FFFFFFC0
FFFFFFC0
ENDCHAR
STARTCHAR 0129
ENCODING 297
SWIDTH 600 0
DWIDTH 42 0
BBX 32 51 6 0
BITMAP
01F800F0
03FE00E0
07FF01E0
0FFFC3E0
0FFFFFC0
1F0FFFC0
1E03FF80
1C01FF00
3C007E00
00000000
00000000
00000000
00000000
00000000
7FFFE000
7FFFE000
7FFFE000
7FFFE000
7FFFE000
0007E000
0007E000
0007E000
0007E000
0007E000
0007E000
0007E000
0007E000
0007E000
0007E000
0007E000
0007E000
0007E000
0007E000
0007E000
0007E000
0007E000
0007E000
0007E000
0007E000
0007E000
0007E000
0007E000
0007E000
0007E000
0007E000
0007E000
0FFFFFE0
FFFFFFFF
FFFFFFFF
FFFFFFFF
FFFFFFFF
ENDCHAR
STARTCHAR 012A
ENCODING 298
SWIDTH 600 0
DWIDTH 42 0
BBX 26 60 8 0
BITMAP
1FFFFE00
1FFFFE00
1FFFFE00
1FFFFE00
1FFFFE00
00000000
00000000
00000000
00000000
00000000
FFFFFFC0
FFFFFFC0
FFFFFFC0
FFFFFFC0
FFFFFFC0
003F0000
003F0000
003F0000
003F0000
003F0000
003F0000
003F0000
003F0000
003F0000
003F0000
003F0000
003F0000
003F0000
003F0000
003F0000
003F0000
003F0000
003F0000
003F0000
003F0000
003F0000
003F0000
003F0000
003F0000
003F0000
003F0000
003F0000
003F0000
003F0000
003F0000
003F0000
003F0000
003F0000
003F0000
003F0000
003F0000
003F0000
003F0000
003F0000
003F0000
3FFFFF80
FFFFFFC0
FFFFFFC0
FFFFFFC0
FFFFFFC0
ENDCHAR
STARTCHAR 012B
ENCODING 299
SWIDTH 600 0
DWIDTH 42 0
BBX 32 48 6 0
BITMAP
07FFFF80
07FFFF80
07FFFF80
07FFFF80
07FFFF80
00000000
00000000
00000000
00000000
00000000
00000000
7FFFE000
7FFFE000
7FFFE000
7FFFE000
7FFFE000
0007E000
0007E000
0007E000
0007E000
0007E000
0007E000
0007E000
0007E000
0007E000
0007E000
0007E000
0007E000
0007E000
0007E000
0007E000
0007E000
0007E000
0007E000
0007E000
0007E000
0007E000
0007E000
0007E000
0007E000
0007E000
0007E000
0007E000
0FFFFFE0
FFFFFFFF
FFFFFFFF
FFFFFFFF
FFFFFFFF
ENDCHAR
STARTCHAR 012C
ENCODING 300
SWIDTH 600 0
DWIDTH 42 0
BBX 26 64 8 0
BITMAP
3C000F00
3C001F00
3E001F00
1E001E00
1F003E00
1FC0FC00
0FFFFC00
07FFF800
03FFE000
007F8000
00000000
00000000
00000000
00000000
FFFFFFC0
FFFFFFC0
FFFFFFC0
FFFFFFC0
FFFFFFC0
003F0000
003F0000
003F0000
003F0000
003F0000
003F0000
003F0000
003F0000
003F0000
003F0000
003F0000
003F0000
003F0000
003F0000
003F0000
003F0000
003F0000
003F0000
003F0000
003F0000
003F0000
003F0000
003F0000
003F0000
003F0000
003F0000
003F0000
003F0000
003F0000
003F0000
003F0000
003F0000
003F0000
003F0000
003F0000
003F0000
003F0000
003F0000
003F0000
003F0000
3FFFFF80
FFFFFFC0
FFFFFFC0
FFFFFFC0
FFFFFFC0
ENDCHAR
STARTCHAR 012D
ENCODING 301
SWIDTH 600 0
DWIDTH 42 0
BBX 32 52 6 0
BITMAP
0F0003C0
0F0007C0
0F8007C0
07800780
07C00F80
07F03F00
03FFFF00
01FFFE00
00FFF800
001FE000
00000000
00000000
00000000
00000000
00000000
7FFFE000
7FFFE000
7FFFE000
7FFFE000
7FFFE000
0007E000
0007E000
0007E000
0007E000
0007E000
0007E000
0007E000
0007E000
0007E000
0007E000
0007E000
0007E000
0007E000
0007E000
0007E000
0007E000
0007E000
0007E000
0007E000
0007E000
0007E000
0007E000
0007E000
0007E000
0007E000
0007E000
0007E000
0FFFFFE0
FFFFFFFF
FFFFFFFF
FFFFFFFF
FFFFFFFF
ENDCHAR
STARTCHAR 012E
ENCODING 302
SWIDTH 600 0
DWIDTH 42 0
BBX 26 65 8 -15
BITMAP
FFFFFFC0
FFFFFFC0
FFFFFFC0
FFFFFFC0
FFFFFFC0
003F0000
003F0000
003F0000
003F0000
003F0000
003F0000
003F0000
003F0000
003F0000
003F0000
003F0000
003F0000
003F0000
003F0000
003F0000
003F0000
003F0000
003F0000
003F0000
003F0000
003F0000
003F0000
003F0000
003F0000
003F0000
003F0000
003F0000
003F0000
003F0000
003F0000
003F0000
003F0000
003F0000
003F0000
003F0000
003F0000
003F0000
003F0000
003F0000
003F0000
3FFFFF80
FFFFFFC0
FFFFFFC0
FFFFFFC0
FFFFFFC0
00003C00
00007800
0000F000
0001F000
0003E000
0003E000
0007C000
0007C000
0007C000
0007E000
0007F000
0003FF80
0003FF80
0001FF80
00007F00
ENDCHAR
STARTCHAR 012F
ENCODING 303
SWIDTH 600 0
DWIDTH 42 0
BBX 32 68 6 -15
BITMAP
0007C000
000FE000
001FF000
001FF000
001FF000
001FF000
001FF000
000FE000
0007C000
00000000
00000000
00000000
00000000
00000000
00000000
00000000
7FFFE000
7FFFE000
7FFFE000
7FFFE000
7FFFE000
0007E000
0007E000
0007E000
0007E000
0007E000
0007E000
0007E000
0007E000
0007E000
0007E000
0007E000
0007E000
0007E000
0007E000
0007E000
0007E000
0007E000
0007E000
0007E000
0007E000
0007E000
0007E000
0007E000
0007E000
0007E000
0007E000
0007E000
0FFFFFE0
FFFFFFFF
FFFFFFFF
FFFFFFFF
FFFFFFFF
000007C0
00000F80
00001F00
00003E00
00003C00
00007C00
00007C00
00007C00
0000FC00
0000FC00
00007E00
00007FF0
00003FF0
00003FF0
00000FF0
ENDCHAR
STARTCHAR 0130
ENCODING 304
SWIDTH 600 0
DWIDTH 42 0
BBX 26 65 8 0
BITMAP
001E0000
007F0000
007F8000
007F8000
007F8000
007F8000
007F8000
007F0000
001E0000
00000000
00000000
00000000
00000000
00000000
00000000
FFFFFFC0
FFFFFFC0
FFFFFFC0
FFFFFFC0
FFFFFFC0
003F0000
003F0000
003F0000
003F0000
003F0000
003F0000
003F0000
003F0000
003F0000
003F0000
003F0000
003F0000
003F0000
003F0000
003F0000
003F0000
003F0000
003F0000
003F0000
003F0000
003F0000
003F0000
003F0000
003F0000
003F0000
003F0000
003F0000
003F0000
003F0000
003F0000
003F0000
003F0000
003F0000
003F0000
003F0000
003F0000
003F0000
003F0000
003F0000
003F0000
3FFFFF80
FFFFFFC0
FFFFFFC0
FFFFFFC0
FFFFFFC0
ENDCHAR
STARTCHAR 0131
ENCODING 305
SWIDTH 600 0
DWIDTH 42 0
BBX 32 37 6 0
BITMAP
7FFFE000
7FFFE000
7FFFE000
7FFFE000
7FFFE000
0007E000
0007E000
0007E000
0007E000
0007E000
0007E000
0007E000
0007E000
0007E000
0007E000
0007E000
0007E000
0007E000
0007E000
0007E000
0007E000
0007E000
0007E000
0007E000
0007E000
0007E000
0007E000
0007E000
0007E000
0007E000
0007E000
0007E000
0FFFFFE0
FFFFFFFF
FFFFFFFF
FFFFFFFF
FFFFFFFF
ENDCHAR
STARTCHAR 0132
ENCODING 306
SWIDTH 600 0
DWIDTH 42 0
BBX 28 51 7 -1
BITMAP
FC0003F0
FC0003F0
FC0003F0
FC0003F0
FC0003F0
FC0003F0
FC0003F0
FC0003F0
FC0003F0
FC0003F0
FC0003F0
FC0003F0
FC0003F0
FC0003F0
FC0003F0
FC0003F0
FC0003F0
FC0003F0
FC0003F0
FC0003F0
FC0003F0
FC0003F0
FC0003F0
FC0003F0
FC0003F0
FC0003F0
FC0003F0
FC0003F0
FC0003F0
FC0003F0
FC0003F0
FC0003F0
FC0003F0
FC0003F0
FC0003F0
FC0003F0
000007F0
000007F0
000007F0
000007F0
00000FE0
00001FE0
80003FE0
F0007FC0
FFFFFF80
FFFFFF80
FFFFFF00
FFFFFE00
FFFFF800
1FFFE000
00100000
ENDCHAR
STARTCHAR 0133
ENCODING 307
SWIDTH 600 0
DWIDTH 42 0
BBX 28 70 7 -17
BITMAP
3E0007C0
7F000FE0
FF000FF0
FF801FF0
FF801FF0
FF801FF0
FF000FF0
7F000FE0
3E0007C0
00000000
00000000
00000000
00000000
00000000
00000000
00000000
7E0007E0
7E0007E0
7E0007E0
7E0007E0
7E0007E0
7E0007E0
7E0007E0
7E0007E0
7E0007E0
7E0007E0
7E0007E0
7E0007E0
7E0007E0
7E0007E0
7E0007E0
7E0007E0
7E0007E0
7E0007E0
7E0007E0
7E0007E0
7E0007E0
7E0007E0
7E0007E0
7E0007E0
7E0007E0
7E0007E0
7E0007E0
7E0007E0
7E0007E0
7E0007E0
7E0007E0
7E0007E0
7E0007E0
7E0007E0
7E0007E0
7E0007E0
7E0007E0
000007E0
000007E0
000007E0
000007E0
000007E0
000007E0
00000FE0
00000FE0
00001FC0
00001FC0
20007FC0
3E01FF80
3FFFFF00
3FFFFE00
3FFFFC00
3FFFF000
07FF8000
ENDCHAR
STARTCHAR 0134
ENCODING 308
SWIDTH 600 0
DWIDTH 42 0
BBX 34 66 7 -1
BITMAP
00001FC000
00003FC000
00007FE000
00007FF000
0000FFF800
0001F9FC00
0003F0FE00
0007E07F00
000FC01F00
001F800F80
001F0007C0
0000000000
0000000000
0000000000
0000000000
00001FC000
00001FC000
00001FC000
00001FC000
00001FC000
00001FC000
00001FC000
00001FC000
00001FC000
00001FC000
00001FC000
00001FC000
00001FC000
00001FC000
00001FC000
00001FC000
00001FC000
00001FC000
00001FC000
00001FC000
00001FC000
00001FC000
00001FC000
00001FC000
00001FC000
00001FC000
00001FC000
00001FC000
00001FC000
00001FC000
00001FC000
00001FC000
00001FC000
00001FC000
00001FC000
00001FC000
00001F8000
00001F8000
00001F8000
00003F8000
00003F8000
00007F8000
8000FF0000
E001FF0000
FFFFFE0000
FFFFFC0000
FFFFFC0000
FFFFF80000
FFFFE00000
1FFF800000
0020000000
ENDCHAR
STARTCHAR 0135
ENCODING 309
SWIDTH 600 0
DWIDTH 42 0
BBX 32 70 4 -17
BITMAP
0000FE00
0000FF00
0001FF80
0003FF80
0007FFC0
000FC7E0
001F83F0
001F01F8
003E00FC
007C007E
00F8003F
00000000
00000000
00000000
00000000
00000000
07FFFF00
07FFFF00
07FFFF00
07FFFF00
07FFFF00
0001FF00
00007F00
00007F00
00007F00
00007F00
00007F00
00007F00
00007F00
00007F00
00007F00
00007F00
00007F00
00007F00
00007F00
00007F00
00007F00
00007F00
00007F00
00007F00
00007F00
00007F00
00007F00
00007F00
00007F00
00007F00
00007F00
00007F00
00007F00
00007F00
00007F00
00007F00
00007F00
00007F00
00007F00
00007F00
00007F00
00007F00
00007F00
00007F00
00007E00
0000FE00
0000FE00
8003FC00
F00FFC00
FFFFF800
FFFFF000
FFFFE000
FFFF8000
0FFC0000
ENDCHAR
STARTCHAR 0136
ENCODING 310
SWIDTH 600 0
DWIDTH 42 0
BBX 34 65 5 -15
BITMAP
FC00007F80
FC00007F00
FC0000FE00
FC0001FC00
FC0003FC00
FC0003F800
FC0007F000
FC000FE000
FC001FE000
FC001FC000
FC003F8000
FC007F0000
FC00FF0000
FC00FE0000
FC01FC0000
FC03F80000
FC07F80000
FC07F00000
FC0FE00000
FC1FE00000
FC3FC00000
FC3F800000
FC7F000000
FCFF800000
FCFF800000
FDFFC00000
FDFFE00000
FFEFE00000
FFE7F00000
FFC7F00000
FF83F80000
FF01FC0000
FE01FC0000
FC00FE0000
FC007F0000
FC007F0000
FC003F8000
FC003FC000
FC001FC000
FC000FE000
FC000FE000
FC0007F000
FC0003F800
FC0003F800
FC0001FC00
FC0001FE00
FC0000FE00
FC00007F00
FC00007F80
FC00003FC0
0000000000
0000000000
0000000000
0000000000
0003F00000
0003F00000
0007E00000
0007E00000
0007C00000
0007C00000
000F800000
000F800000
000F000000
001E000000
001E000000
ENDCHAR
STARTCHAR 0137
ENCODING 311
SWIDTH 600 0
DWIDTH 42 0
BBX 33 68 7 -15
BITMAP
FE00000000
FE00000000
FE00000000
FE00000000
FE00000000
FE00000000
FE00000000
FE00000000
FE00000000
FE00000000
FE00000000
FE00000000
FE00000000
FE00000000
FE00000000
FE00000000
FE0000FF00
FE0001FE00
FE0003FC00
FE0007F800
FE000FF000
FE001FE000
FE003FC000
FE003F8000
FE007F0000
FE00FE0000
FE01FC0000
FE03F80000
FE07F00000
FE0FE00000
FE1FE00000
FC3FC00000
FC7F800000
FC7FC00000
FCFFE00000
FDFFF00000
FFF7F00000
FFE3F80000
FFC1FC0000
FF80FE0000
FF00FE0000
FE007F0000
FE003F8000
FE001FC000
FE001FC000
FE000FE000
FE0007F000
FE0003F800
FE0003F800
FE0001FC00
FE0000FE00
FE00007F00
FE00007F80
0000000000
0000000000
0000000000
0000000000
0003F00000
0003F00000
0007E00000
0007E00000
0007C00000
0007C00000
000F800000
000F800000
000F000000
001E000000
001E000000
ENDCHAR
STARTCHAR 0138
ENCODING 312
SWIDTH 600 0
DWIDTH 42 0
BBX 33 37 7 0
BITMAP
FE0000FF00
FE0001FE00
FE0003FC00
FE0007F800
FE000FF000
FE001FE000
FE003FC000
FE003F8000
FE007F0000
FE00FE0000
FE01FC0000
FE03F80000
FE07F00000
FE0FE00000
FE1FE00000
FC3FC00000
FC7F800000
FC7FC00000
FCFFE00000
FDFFF00000
FFF7F00000
FFE3F80000
FFC1FC0000
FF80FE0000
FF00FE0000
FE007F0000
FE003F8000
FE001FC000
FE001FC000
FE000FE000
FE0007F000
FE0003F800
FE0003F800
FE0001FC00
FE0000FE00
FE00007F00
FE00007F80
ENDCHAR
STARTCHAR 0139
ENCODING 313
SWIDTH 600 0
DWIDTH 42 0
BBX 28 65 8 0
BITMAP
01FC0000
03FC0000
03F80000
07F00000
0FE00000
0FC00000
1F800000
3F000000
3E000000
7C000000
F8000000
00000000
00000000
00000000
00000000
FC000000
FC000000
FC000000
FC000000
FC000000
FC000000
FC000000
FC000000
FC000000
FC000000
FC000000
FC000000
FC000000
FC000000
FC000000
FC000000
FC000000
FC000000
FC000000
FC000000
FC000000
FC000000
FC000000
FC000000
FC000000
FC000000
FC000000
FC000000
FC000000
FC000000
FC000000
FC000000
FC000000
FC000000
FC000000
FC000000
FC000000
FC000000
FC000000
FC000000
FC000000
FC000000
FC000000
FC000000
FFFFFFF0
FFFFFFF0
FFFFFFF0
FFFFFFF0
FFFFFFF0
FFFFFFF0
ENDCHAR
STARTCHAR 013A
ENCODING 314
SWIDTH 600 0
DWIDTH 42 0
BBX 32 69 6 0
BITMAP
00003FC0
00003FC0
00007F80
00007F00
0000FE00
0001FC00
0001F800
0003F000
0007E000
0007C000
000F8000
00000000
00000000
00000000
00000000
00000000
FFFFF000
FFFFF000
FFFFF000
FFFFF000
FFFFF000
0007F000
0007F000
0007F000
0007F000
0007F000
0007F000
0007F000
0007F000
0007F000
0007F000
0007F000
0007F000
0007F000
0007F000
0007F000
0007F000
0007F000
0007F000
0007F000
0007F000
0007F000
0007F000
0007F000
0007F000
0007F000
0007F000
0007F000
0007F000
0007F000
0007F000
0007F000
0007F000
0007F000
0007F000
0007F000
0007F000
0007F000
0007F000
0007F000
0007F000
0007F000
0007F000
0007F000
07FFFFF0
FFFFFFFF
FFFFFFFF
FFFFFFFF
FFFFFFFF
ENDCHAR
STARTCHAR 013B
ENCODING 315
SWIDTH 600 0
DWIDTH 42 0
BBX 28 65 8 -15
BITMAP
FC000000
FC000000
FC000000
FC000000
FC000000
FC000000
FC000000
FC000000
FC000000
FC000000
FC000000
FC000000
FC000000
FC000000
FC000000
FC000000
FC000000
FC000000
FC000000
FC000000
FC000000
FC000000
FC000000
FC000000
FC000000
FC000000
FC000000
FC000000
FC000000
FC000000
FC000000
FC000000
FC000000
FC000000
FC000000
FC000000
FC000000
FC000000
FC000000
FC000000
FC000000
FC000000
FC000000
FC000000
FFFFFFF0
FFFFFFF0
FFFFFFF0
FFFFFFF0
FFFFFFF0
FFFFFFF0
00000000
00000000
00000000
00000000
000FC000
000FC000
000FC000
001F8000
001F8000
001F0000
001F0000
003E0000
003C0000
003C0000
00780000
ENDCHAR
STARTCHAR 013C
ENCODING 316
SWIDTH 600 0
DWIDTH 42 0
BBX 32 68 6 -15
BITMAP
FFFFF000
FFFFF000
FFFFF000
FFFFF000
FFFFF000
0007F000
0007F000
0007F000
0007F000
0007F000
0007F000
0007F000
0007F000
0007F000
0007F000
0007F000
0007F000
0007F000
0007F000
0007F000
0007F000
0007F000
0007F000
0007F000
0007F000
0007F000
0007F000
0007F000
0007F000
0007F000
0007F000
0007F000
0007F000
0007F000
0007F000
0007F000
0007F000
0007F000
0007F000
0007F000
0007F000
0007F000
0007F000
0007F000
0007F000
0007F000
0007F000
0007F000
07FFFFF0
FFFFFFFF
FFFFFFFF
FFFFFFFF
FFFFFFFF
00000000
00000000
00000000
00000000
0003F000
0007E000
0007E000
0007E000
0007C000
000FC000
000F8000
000F8000
001F0000
001E0000
001C0000
ENDCHAR
STARTCHAR 013D
ENCODING 317
SWIDTH 600 0
DWIDTH 42 0
BBX 28 50 8 0
BITMAP
FC0007E0
FC0007E0
FC0007E0
FC0007C0
FC000FC0
FC000F80
FC000F80
FC000F00
FC001F00
FC001E00
FC001E00
FC000000
FC000000
FC000000
FC000000
FC000000
FC000000
FC000000
FC000000
FC000000
FC000000
FC000000
FC000000
FC000000
FC000000
FC000000
FC000000
FC000000
FC000000
FC000000
FC000000
FC000000
FC000000
FC000000
FC000000
FC000000
FC000000
FC000000
FC000000
FC000000
FC000000
FC000000
FC000000
FC000000
FFFFFFF0
FFFFFFF0
FFFFFFF0
FFFFFFF0
FFFFFFF0
FFFFFFF0
ENDCHAR
STARTCHAR 013E
ENCODING 318
SWIDTH 600 0
DWIDTH 42 0
BBX 33 53 6 0
BITMAP
FFFFF01F80
FFFFF01F80
FFFFF01F80
FFFFF01F00
FFFFF01F00
0007F03F00
0007F03E00
0007F03C00
0007F03C00
0007F07800
0007F07800
0007F00000
0007F00000
0007F00000
0007F00000
0007F00000
0007F00000
0007F00000
0007F00000
0007F00000
0007F00000
0007F00000
0007F00000
0007F00000
0007F00000
0007F00000
0007F00000
0007F00000
0007F00000
0007F00000
0007F00000
0007F00000
0007F00000
0007F00000
0007F00000
0007F00000
0007F00000
0007F00000
0007F00000
0007F00000
0007F00000
0007F00000
0007F00000
0007F00000
0007F00000
0007F00000
0007F00000
0007F00000
0FFFFFF000
FFFFFFFF00
FFFFFFFF00
FFFFFFFF00
FFFFFFFF00
ENDCHAR
STARTCHAR 013F
ENCODING 319
SWIDTH 600 0
DWIDTH 42 0
BBX 28 50 8 0
BITMAP
FC000000
FC000000
FC000000
FC000000
FC000000
FC000000
FC000000
FC000000
FC000000
FC000000
FC000000
FC000000
FC000000
FC000000
FC000000
FC000000
FC000000
FC000000
FC000000
FC000100
FC0007E0
FC000FF0
FC001FF0
FC001FF0
FC001FF0
FC000FF0
FC000FF0
FC0007E0
FC000100
FC000000
FC000000
FC000000
FC000000
FC000000
FC000000
FC000000
FC000000
FC000000
FC000000
FC000000
FC000000
FC000000
FC000000
FC000000
FFFFFFF0
FFFFFFF0
FFFFFFF0
FFFFFFF0
FFFFFFF0
FFFFFFF0
ENDCHAR
STARTCHAR 0140
ENCODING 320
SWIDTH 600 0
DWIDTH 42 0
BBX 40 53 6 0
BITMAP
FFFFF00000
FFFFF00000
FFFFF00000
FFFFF00000
FFFFF00000
0007F00000
0007F00000
0007F00000
0007F00000
0007F00000
0007F00000
0007F00000
0007F00000
0007F00000
0007F00000
0007F00000
0007F00000
0007F00000
0007F00000
0007F00010
0007F0007E
0007F000FF
0007F000FF
0007F000FF
0007F000FF
0007F000FF
0007F000FF
0007F0007E
0007F00010
0007F00000
0007F00000
0007F00000
0007F00000
0007F00000
0007F00000
0007F00000
0007F00000
0007F00000
0007F00000
0007F00000
0007F00000
0007F00000
0007F00000
0007F00000
0007F00000
0007F00000
0007F00000
0007F00000
07FFFFF000
FFFFFFFF00
FFFFFFFF00
FFFFFFFF00
FFFFFFFF00
ENDCHAR
STARTCHAR 0141
ENCODING 321
SWIDTH 600 0
DWIDTH 42 0
BBX 35 50 4 0
BITMAP
01F8000000
01F8000000
01F8000000
01F8000000
01F8000000
01F8000000
01F8000000
01F8000000
01F8000000
01F8000000
01F8000000
01F8000000
01F8000000
01F8000000
01F8000000
01F8000000
01F8000000
01F8000000
01F8040000
01F81C0000
01F87E0000
01F8FF0000
01FBFF0000
01FFFC0000
01FFF00000
01FFE00000
01FF800000
07FE000000
0FF8000000
3FF8000000
FFF8000000
FFF8000000
7FF8000000
79F8000000
21F8000000
01F8000000
01F8000000
01F8000000
01F8000000
01F8000000
01F8000000
01F8000000
01F8000000
01F8000000
01FFFFFFE0
01FFFFFFE0
01FFFFFFE0
01FFFFFFE0
01FFFFFFE0
01FFFFFFE0
ENDCHAR
STARTCHAR 0142
ENCODING 322
SWIDTH 600 0
DWIDTH 42 0
BBX 32 53 6 0
BITMAP
FFFFF000
FFFFF000
FFFFF000
FFFFF000
FFFFF000
0007F000
0007F000
0007F000
0007F000
0007F000
0007F000
0007F000
0007F000
0007F000
0007F000
0007F000
0007F000
0007F000
0007F000
0007F000
0007F0C0
0007F1E0
0007F7E0
0007FFF0
0007FFE0
0007FF80
0007FF00
0007FC00
001FF000
007FF000
00FFF000
03FFF000
0FFFF000
07F7F000
07C7F000
0387F000
0207F000
0007F000
0007F000
0007F000
0007F000
0007F000
0007F000
0007F000
0007F000
0007F000
0007F000
0007F000
07FFFFF0
FFFFFFFF
FFFFFFFF
FFFFFFFF
FFFFFFFF
ENDCHAR
STARTCHAR 0143
ENCODING 323
SWIDTH 600 0
DWIDTH 42 0
BBX 32 65 5 0
BITMAP
00000FF0
00001FE0
00001FC0
00003F80
00007F00
00007E00
0000FE00
0001FC00
0001F800
0003E000
0007C000
00000000
00000000
00000000
00000000
FF00003F
FF80003F
FF80003F
FFC0003F
FFC0003F
FFE0003F
FFE0003F
FBF0003F
FBF0003F
F9F0003F
F9F8003F
F9F8003F
FCFC003F
FCFC003F
FC7E003F
FC7E003F
FC3E003F
FC3F003F
FC1F003F
FC1F803F
FC1F803F
FC0FC03F
FC0FC03F
FC07C03F
FC07E03F
FC03E03F
FC03F03F
FC01F03F
FC01F83F
FC01F83F
FC00FC3F
FC00FC3F
FC007C3F
FC007E3F
FC003E3F
FC003F3F
FC001F3F
FC001FBF
FC001FBF
FC000FBF
FC000FDF
FC0007DF
FC0007FF
FC0003FF
FC0003FF
FC0003FF
FC0001FF
FC0001FF
FC0000FF
FC0000FF
ENDCHAR
STARTCHAR 0144
ENCODING 324
SWIDTH 600 0
DWIDTH 42 0
BBX 31 53 6 0
BITMAP
00001FE0
00001FC0
00003FC0
00003F80
00007F00
0000FE00
0000FC00
0001F800
0003F000
0007E000
0007C000
00000000
00000000
00000000
00000000
00002000
F80FFF00
F83FFFC0
F87FFFE0
F8FFFFF0
F9FFFFF8
FBE007F8
FFC003FC
FF8001FC
FF0000FC
FE0000FE
FE0000FE
FE0000FE
FC0000FE
FC0000FE
FC0000FE
FC0000FE
FC0000FE
FC0000FE
FC0000FE
FC0000FE
FC0000FE
FC0000FE
FC0000FE
FC0000FE
FC0000FE
FC0000FE
FC0000FE
FC0000FE
FC0000FE
FC0000FE
FC0000FE
FC0000FE
FC0000FE
FC0000FE
FC0000FE
FC0000FE
FC0000FE
ENDCHAR
STARTCHAR 0145
ENCODING 325
SWIDTH 600 0
DWIDTH 42 0
BBX 32 65 5 -15
BITMAP
FF00003F
FF80003F
FF80003F
FFC0003F
FFC0003F
FFE0003F
FFE0003F
FBF0003F
FBF0003F
F9F0003F
F9F8003F
F9F8003F
FCFC003F
FCFC003F
FC7E003F
FC7E003F
FC3E003F
FC3F003F
FC1F003F
FC1F803F
FC1F803F
FC0FC03F
FC0FC03F
FC07C03F
FC07E03F
FC03E03F
FC03F03F
FC01F03F
FC01F83F
FC01F83F
FC00FC3F
FC00FC3F
FC007C3F
FC007E3F
FC003E3F
FC003F3F
FC001F3F
FC001FBF
FC001FBF
FC000FBF
FC000FDF
FC0007DF
FC0007FF
FC0003FF
FC0003FF
FC0003FF
FC0001FF
FC0001FF
FC0000FF
FC0000FF
00000000
00000000
00000000
00000000
0007E000
0007E000
0007C000
000FC000
000FC000
000F8000
000F8000
001F0000
001E0000
003E0000
003C0000
ENDCHAR
STARTCHAR 0146
ENCODING 326
SWIDTH 600 0
DWIDTH 42 0
BBX 31 53 6 -15
BITMAP
00002000
F80FFF00
F83FFFC0
F87FFFE0
F8FFFFF0
F9FFFFF8
FBE007F8
FFC003FC
FF8001FC
FF0000FC
FE0000FE
FE0000FE
FE0000FE
FC0000FE
FC0000FE
FC0000FE
FC0000FE
FC0000FE
FC0000FE
FC0000FE
FC0000FE
FC0000FE
FC0000FE
FC0000FE
FC0000FE
FC0000FE
FC0000FE
FC0000FE
FC0000FE
FC0000FE
FC0000FE
FC0000FE
FC0000FE
FC0000FE
FC0000FE
FC0000FE
FC0000FE
FC0000FE
00000000
00000000
00000000
00000000
000FE000
000FC000
000FC000
000F8000
000F8000
001F8000
001F0000
001E0000
003E0000
003C0000
00380000
ENDCHAR
STARTCHAR 0147
ENCODING 327
SWIDTH 600 0
DWIDTH 42 0
BBX 32 65 5 0
BITMAP
078001F0
07E003F0
03F00FE0
01F81FC0
00FC3F80
007E7F00
003FFE00
001FFC00
001FF800
000FF000
0007F000
00000000
00000000
00000000
00000000
FF00003F
FF80003F
FF80003F
FFC0003F
FFC0003F
FFE0003F
FFE0003F
FBF0003F
FBF0003F
F9F0003F
F9F8003F
F9F8003F
FCFC003F
FCFC003F
FC7E003F
FC7E003F
FC3E003F
FC3F003F
FC1F003F
FC1F803F
FC1F803F
FC0FC03F
FC0FC03F
FC07C03F
FC07E03F
FC03E03F
FC03F03F
FC01F03F
FC01F83F
FC01F83F
FC00FC3F
FC00FC3F
FC007C3F
FC007E3F
FC003E3F
FC003F3F
FC001F3F
FC001FBF
FC001FBF
FC000FBF
FC000FDF
FC0007DF
FC0007FF
FC0003FF
FC0003FF
FC0003FF
FC0001FF
FC0001FF
FC0000FF
FC0000FF
ENDCHAR
STARTCHAR 0148
ENCODING 328
SWIDTH 600 0
DWIDTH 42 0
BBX 31 53 6 0
BITMAP
0F8001F0
07C007E0
07F00FC0
03F81F80
01FC3F00
00FE7E00
007FFC00
003FF800
001FF800
000FF000
000FE000
00000000
00000000
00000000
00000000
00002000
F80FFF00
F83FFFC0
F87FFFE0
F8FFFFF0
F9FFFFF8
FBE007F8
FFC003FC
FF8001FC
FF0000FC
FE0000FE
FE0000FE
FE0000FE
FC0000FE
FC0000FE
FC0000FE
FC0000FE
FC0000FE
FC0000FE
FC0000FE
FC0000FE
FC0000FE
FC0000FE
FC0000FE
FC0000FE
FC0000FE
FC0000FE
FC0000FE
FC0000FE
FC0000FE
FC0000FE
FC0000FE
FC0000FE
FC0000FE
FC0000FE
FC0000FE
FC0000FE
FC0000FE
ENDCHAR
STARTCHAR 0149
ENCODING 329
SWIDTH 600 0
DWIDTH 42 0
BBX 41 50 -4 0
BITMAP
0FF000000000
0FE000000000
0FE000000000
1FE000000000
1FE000000000
1FC000000000
1FC000000000
1FC000000000
3F8000000000
3F8000000000
3F0000000000
3F0000000000
3F0000080000
7E1F03FFC000
7E1F0FFFF000
7C1F1FFFF800
7C1F3FFFFC00
801F7E03FE00
001FF800FE00
001FF0007F00
001FE0007F00
001FE0003F00
001FC0003F80
001FC0003F80
001FC0003F80
001F80003F80
001F80003F80
001F80003F80
001F80003F80
001F80003F80
001F80003F80
001F80003F80
001F80003F80
001F80003F80
001F80003F80
001F80003F80
001F80003F80
001F80003F80
001F80003F80
001F80003F80
001F80003F80
001F80003F80
001F80003F80
001F80003F80
001F80003F80
001F80003F80
001F80003F80
001F80003F80
001F80003F80
001F80003F80
ENDCHAR
STARTCHAR 014A
ENCODING 330
SWIDTH 600 0
DWIDTH 42 0
BBX 32 63 5 -13
BITMAP
FF00003F
FF80003F
FF80003F
FFC0003F
FFC0003F
FFE0003F
FFE0003F
FBF0003F
FBF0003F
F9F0003F
F9F8003F
F9F8003F
FCFC003F
FCFC003F
FC7E003F
FC7E003F
FC3E003F
FC3F003F
FC1F003F
FC1F803F
FC1F803F
FC0FC03F
FC0FC03F
FC07C03F
FC07E03F
FC03E03F
FC03F03F
FC01F03F
FC01F83F
FC01F83F
FC00FC3F
FC00FC3F
FC007C3F
FC007E3F
FC003E3F
FC003F3F
FC001F3F
FC001FBF
FC001FBF
FC000FBF
FC000FDF
FC0007DF
FC0007FF
FC0003FF
FC0003FF
FC0003FF
FC0001FF
FC0001FF
FC0000FF
FC0000FF
0000003F
0000003F
0000003F
0000003F
0000007E
0000007E
000000FE
000203FC
0003FFFC
0003FFF8
0003FFF0
0003FFC0
0001FE00
ENDCHAR
STARTCHAR 014B
ENCODING 331
SWIDTH 600 0
DWIDTH 42 0
BBX 31 55 6 -17
BITMAP
00002000
F80FFF00
F83FFFC0
F87FFFE0
F8FFFFF0
F9FFFFF8
FBE007F8
FFC003FC
FF8001FC
FF0000FC
FE0000FE
FE0000FE
FE0000FE
FC0000FE
FC0000FE
FC0000FE
FC0000FE
FC0000FE
FC0000FE
FC0000FE
FC0000FE
FC0000FE
FC0000FE
FC0000FE
FC0000FE
FC0000FE
FC0000FE
FC0000FE
FC0000FE
FC0000FE
FC0000FE
FC0000FE
FC0000FE
FC0000FE
FC0000FE
FC0000FE
FC0000FE
FC0000FE
000000FE
000000FE
000000FE
000000FE
000000FE
000000FE
000000FE
000000FE
000000FE
000000FC
000001FC
000083FC
0000FFF8
0000FFF8
0000FFF0
0000FFE0
00007F00
ENDCHAR
STARTCHAR 014C
ENCODING 332
SWIDTH 600 0
DWIDTH 42 0
BBX 36 61 3 -1
BITMAP
00FFFFF000
00FFFFF000
00FFFFF000
00FFFFF000
00FFFFF000
0000000000
0000000000
0000000000
0000000000
0007FE0000
001FFF8000
007FFFE000
00FFFFF800
03FFFFFC00
03FE07FC00
07F801FE00
0FE0007F00
0FE0003F00
1FC0003F80
1F80001F80
3F80001FC0
3F00000FC0
3F00000FC0
7F00000FE0
7F00000FE0
7E000007E0
7E000007E0
7E000007E0
FE000007E0
FE000007F0
FE000007F0
FE000007F0
FE000007F0
FE000007F0
FE000007F0
FE000007F0
FE000007F0
FE000007F0
FE000007F0
FE000007F0
FE000007F0
7E000007E0
7E000007E0
7E000007E0
7E000007E0
7F00000FE0
7F00000FC0
3F00000FC0
3F80001FC0
3F80001FC0
1F80001F80
1FC0003F80
0FE0007F00
0FF000FE00
07FC01FE00
03FFFFFC00
01FFFFF800
00FFFFF000
007FFFC000
000FFF0000
0000600000
ENDCHAR
STARTCHAR 014D
ENCODING 333
SWIDTH 600 0
DWIDTH 42 0
BBX 34 49 4 -1
BITMAP
01FFFFE000
01FFFFE000
01FFFFE000
01FFFFE000
01FFFFE000
0000000000
0000000000
0000000000
0000000000
0000000000
0000800000
001FFE0000
00FFFF8000
01FFFFE000
07FFFFF000
0FFFFFF800
0FF003FC00
1FE001FE00
3F8000FF00
3F80007F00
7F00003F80
7F00003F80
7E00001F80
FE00001FC0
FE00001FC0
FC00001FC0
FC00000FC0
FC00000FC0
FC00000FC0
FC00000FC0
FC00000FC0
FC00000FC0
FC00000FC0
FC00001FC0
FE00001FC0
FE00001FC0
7E00001F80
7F00003F80
7F00003F80
3F80007F00
3FC000FF00
1FE001FE00
0FF003FC00
0FFFFFFC00
03FFFFF800
01FFFFE000
00FFFFC000
001FFE0000
0000C00000
ENDCHAR
STARTCHAR 014E
ENCODING 334
SWIDTH 600 0
DWIDTH 42 0
BBX 36 65 3 -1
BITMAP
01E0007800
01E000F800
01F000F800
00F000F000
00F801F000
00FE07E000
007FFFE000
003FFFC000
001FFF0000
0003FC0000
0000000000
0000000000
0000000000
0007FE0000
001FFF8000
007FFFE000
00FFFFF800
03FFFFFC00
03FE07FC00
07F801FE00
0FE0007F00
0FE0003F00
1FC0003F80
1F80001F80
3F80001FC0
3F00000FC0
3F00000FC0
7F00000FE0
7F00000FE0
7E000007E0
7E000007E0
7E000007E0
FE000007E0
FE000007F0
FE000007F0
FE000007F0
FE000007F0
FE000007F0
FE000007F0
FE000007F0
FE000007F0
FE000007F0
FE000007F0
FE000007F0
FE000007F0
7E000007E0
7E000007E0
7E000007E0
7E000007E0
7F00000FE0
7F00000FC0
3F00000FC0
3F80001FC0
3F80001FC0
1F80001F80
1FC0003F80
0FE0007F00
0FF000FE00
07FC01FE00
03FFFFFC00
01FFFFF800
00FFFFF000
007FFFC000
000FFF0000
0000600000
ENDCHAR
STARTCHAR 014F
ENCODING 335
SWIDTH 600 0
DWIDTH 42 0
BBX 34 53 4 -1
BITMAP
03C000F000
03C001F000
03E001F000
01E001E000
01F003E000
01FC0FC000
00FFFFC000
007FFF8000
003FFE0000
0007F80000
0000000000
0000000000
0000000000
0000000000
0000800000
001FFE0000
00FFFF8000
01FFFFE000
07FFFFF000
0FFFFFF800
0FF003FC00
1FE001FE00
3F8000FF00
3F80007F00
7F00003F80
7F00003F80
7E00001F80
FE00001FC0
FE00001FC0
FC00001FC0
FC00000FC0
FC00000FC0
FC00000FC0
FC00000FC0
FC00000FC0
FC00000FC0
FC00000FC0
FC00001FC0
FE00001FC0
FE00001FC0
7E00001F80
7F00003F80
7F00003F80
3F80007F00
3FC000FF00
1FE001FE00
0FF003FC00
0FFFFFFC00
03FFFFF800
01FFFFE000
00FFFFC000
001FFE0000
0000C00000
ENDCHAR
STARTCHAR 0150
ENCODING 336
SWIDTH 600 0
DWIDTH 42 0
BBX 36 66 3 -1
BITMAP
0007F07F00
000FE0FE00
000FC0FE00
001FC1FC00
003F81F800
003F03F000
007E03E000
007C07C000
00F80F8000
01F00F0000
01E01E0000
0000000000
0000000000
0000000000
0007FE0000
001FFF8000
007FFFE000
00FFFFF800
03FFFFFC00
03FE07FC00
07F801FE00
0FE0007F00
0FE0003F00
1FC0003F80
1F80001F80
3F80001FC0
3F00000FC0
3F00000FC0
7F00000FE0
7F00000FE0
7E000007E0
7E000007E0
7E000007E0
FE000007E0
FE000007F0
FE000007F0
FE000007F0
FE000007F0
FE000007F0
FE000007F0
FE000007F0
FE000007F0
FE000007F0
FE000007F0
FE000007F0
FE000007F0
7E000007E0
7E000007E0
7E000007E0
7E000007E0
7F00000FE0
7F00000FC0
3F00000FC0
3F80001FC0
3F80001FC0
1F80001F80
1FC0003F80
0FE0007F00
0FF000FE00
07FC01FE00
03FFFFFC00
01FFFFF800
00FFFFF000
007FFFC000
000FFF0000
0000600000
ENDCHAR
STARTCHAR 0151
ENCODING 337
SWIDTH 600 0
DWIDTH 42 0
BBX 34 54 4 -1
BITMAP
000FE0FE00
001FC1FC00
001F81FC00
003F83F800
007F03F000
007E07E000
00FC07C000
00F80F8000
01F01F0000
03E01E0000
03C03C0000
0000000000
0000000000
0000000000
0000000000
0000800000
001FFE0000
00FFFF8000
01FFFFE000
07FFFFF000
0FFFFFF800
0FF003FC00
1FE001FE00
3F8000FF00
3F80007F00
7F00003F80
7F00003F80
7E00001F80
FE00001FC0
FE00001FC0
FC00001FC0
FC00000FC0
FC00000FC0
FC00000FC0
FC00000FC0
FC00000FC0
FC00000FC0
FC00000FC0
FC00001FC0
FE00001FC0
FE00001FC0
7E00001F80
7F00003F80
7F00003F80
3F80007F00
3FC000FF00
1FE001FE00
0FF003FC00
0FFFFFFC00
03FFFFF800
01FFFFE000
00FFFFC000
001FFE0000
0000C00000
ENDCHAR
STARTCHAR 0152
ENCODING 338
SWIDTH 600 0
DWIDTH 42 0
BBX 37 52 3 -1
BITMAP
001FC00000
00FFFFFFF8
01FFFFFFF8
03FFFFFFF8
07FFFFFFF8
0FF07FFFF8
1FE01F8000
1FC01F8000
3F801F8000
3F001F8000
3F001F8000
7F001F8000
7F001F8000
7E001F8000
7E001F8000
7E001F8000
FE001F8000
FE001F8000
FE001F8000
FC001F8000
FC001F8000
FC001F8000
FC001FFFF0
FC001FFFF0
FC001FFFF0
FC001FFFF0
FC001FFFF0
FC001F8000
FC001F8000
FC001F8000
FC001F8000
FC001F8000
FC001F8000
FE001F8000
FE001F8000
FE001F8000
7E001F8000
7E001F8000
7E001F8000
7F001F8000
3F001F8000
3F001F8000
3F801F8000
1F801F8000
1FC01F8000
0FE01F8000
0FFFFFFFF8
07FFFFFFF8
03FFFFFFF8
01FFFFFFF8
007FFFFFF8
0004000000
ENDCHAR
STARTCHAR 0153
ENCODING 339
SWIDTH 600 0
DWIDTH 42 0
BBX 39 39 2 -1
BITMAP
0010000800
01FF007F80
07FF81FFC0
0FFFC3FFE0
1FFFE3FFF0
3FFFE7FFF8
3F83FFC1F8
7F01FF80F8
7E00FF00FC
7C00FF007C
FC00FF007C
FC007E007C
FC007E007C
FC007E007C
F8007E007E
F8007E007E
F8007FFFFE
F8007FFFFE
F8007FFFFE
F8007FFFFE
F8007E0000
F8007E0000
F8007E0000
F8007E0000
F8007E0000
FC007E0000
FC007F0000
FC007F0000
7C00FF0000
7E00FF0000
7E00FF8000
3F01FFC008
3F83F7E038
1FFFE7FFF8
1FFFE3FFF8
0FFFC1FFF8
07FF80FFF0
01FF007FC0
0010000400
ENDCHAR
STARTCHAR 0154
ENCODING 340
SWIDTH 600 0
DWIDTH 42 0
BBX 33 65 7 0
BITMAP
00007F8000
00007F8000
0000FF0000
0000FE0000
0001FC0000
0003F80000
0003F00000
0007E00000
000FC00000
000F800000
001F000000
0000000000
0000000000
0000000000
0000000000
FFFF800000
FFFFF80000
FFFFFE0000
FFFFFF8000
FFFFFFC000
FC01FFC000
FC001FE000
FC000FF000
FC0007F000
FC0007F000
FC0003F800
FC0003F800
FC0003F800
FC0003F800
FC0003F800
FC0003F800
FC0003F800
FC0003F800
FC0003F000
FC0007F000
FC0007F000
FC000FE000
FC001FC000
FC00FFC000
FFFFFF8000
FFFFFE0000
FFFFFC0000
FFFFF00000
FFFFF00000
FC03F80000
FC01F80000
FC01FC0000
FC00FC0000
FC00FE0000
FC007F0000
FC007F0000
FC003F8000
FC001F8000
FC001FC000
FC000FE000
FC000FE000
FC0007F000
FC0007F000
FC0003F800
FC0001FC00
FC0001FC00
FC0000FE00
FC0000FE00
FC00007F00
FC00003F80
ENDCHAR
STARTCHAR 0155
ENCODING 341
SWIDTH 600 0
DWIDTH 42 0
BBX 36 53 4 0
BITMAP
000001FE00
000001FC00
000003FC00
000003F800
000007F000
00000FE000
00000FC000
00001F8000
00003F0000
00007E0000
00007C0000
0000000000
0000000000
0000000000
0000000000
0000000800
7FFF80FFE0
7FFF83FFF0
7FFF87FFF0
7FFF8FFFE0
0FFF9FFFE0
000F9F8060
000FFE0020
000FFC0000
000FF80000
000FF00000
000FF00000
000FE00000
000FE00000
000FE00000
000FE00000
000FC00000
000FC00000
000FC00000
000FC00000
000FC00000
000FC00000
000FC00000
000FC00000
000FC00000
000FC00000
000FC00000
000FC00000
000FC00000
000FC00000
000FC00000
000FC00000
000FC00000
0FFFFF8000
FFFFFFF800
FFFFFFF800
FFFFFFF800
FFFFFFF800
ENDCHAR
STARTCHAR 0156
ENCODING 342
SWIDTH 600 0
DWIDTH 42 0
BBX 33 65 7 -15
BITMAP
FFFF800000
FFFFF80000
FFFFFE0000
FFFFFF8000
FFFFFFC000
FC01FFC000
FC001FE000
FC000FF000
FC0007F000
FC0007F000
FC0003F800
FC0003F800
FC0003F800
FC0003F800
FC0003F800
FC0003F800
FC0003F800
FC0003F800
FC0003F000
FC0007F000
FC0007F000
FC000FE000
FC001FC000
FC00FFC000
FFFFFF8000
FFFFFE0000
FFFFFC0000
FFFFF00000
FFFFF00000
FC03F80000
FC01F80000
FC01FC0000
FC00FC0000
FC00FE0000
FC007F0000
FC007F0000
FC003F8000
FC001F8000
FC001FC000
FC000FE000
FC000FE000
FC0007F000
FC0007F000
FC0003F800
FC0001FC00
FC0001FC00
FC0000FE00
FC0000FE00
FC00007F00
FC00003F80
0000000000
0000000000
0000000000
0000000000
0007E00000
0007E00000
0007E00000
000FC00000
000FC00000
000F800000
000F800000
001F000000
001E000000
001E000000
003C000000
ENDCHAR
STARTCHAR 0157
ENCODING 343
SWIDTH 600 0
DWIDTH 42 0
BBX 36 53 4 -15
BITMAP
0000000800
7FFF80FFE0
7FFF83FFF0
7FFF87FFF0
7FFF8FFFE0
0FFF9FFFE0
000F9F8060
000FFE0020
000FFC0000
000FF80000
000FF00000
000FF00000
000FE00000
000FE00000
000FE00000
000FE00000
000FC00000
000FC00000
000FC00000
000FC00000
000FC00000
000FC00000
000FC00000
000FC00000
000FC00000
000FC00000
000FC00000
000FC00000
000FC00000
000FC00000
000FC00000
000FC00000
000FC00000
0FFFFF8000
FFFFFFF800
FFFFFFF800
FFFFFFF800
FFFFFFF800
0000000000
0000000000
0000000000
0000000000
000FC00000
000FC00000
000F800000
001F800000
001F800000
001F000000
001F000000
003E000000
003C000000
007C000000
0078000000
ENDCHAR
STARTCHAR 0158
ENCODING 344
SWIDTH 600 0
DWIDTH 42 0
BBX 33 65 7 0
BITMAP
3E0007C000
1F801F8000
0FC03F0000
07E07E0000
03F0FC0000
03F9F80000
01FFF00000
00FFF00000
007FE00000
003FC00000
003F800000
0000000000
0000000000
0000000000
0000000000
FFFF800000
FFFFF80000
FFFFFE0000
FFFFFF8000
FFFFFFC000
FC01FFC000
FC001FE000
FC000FF000
FC0007F000
FC0007F000
FC0003F800
FC0003F800
FC0003F800
FC0003F800
FC0003F800
FC0003F800
FC0003F800
FC0003F800
FC0003F000
FC0007F000
FC0007F000
FC000FE000
FC001FC000
FC00FFC000
FFFFFF8000
FFFFFE0000
FFFFFC0000
FFFFF00000
FFFFF00000
FC03F80000
FC01F80000
FC01FC0000
FC00FC0000
FC00FE0000
FC007F0000
FC007F0000
FC003F8000
FC001F8000
FC001FC000
FC000FE000
FC000FE000
FC0007F000
FC0007F000
FC0003F800
FC0001FC00
FC0001FC00
FC0000FE00
FC0000FE00
FC00007F00
FC00003F80
ENDCHAR
STARTCHAR 0159
ENCODING 345
SWIDTH 600 0
DWIDTH 42 0
BBX 36 53 4 0
BITMAP
00F8001F00
00FC007E00
007F00FC00
003F81F800
001FC3F000
000FE7E000
0007FFC000
0003FF8000
0001FF8000
0000FF0000
0000FE0000
0000000000
0000000000
0000000000
0000000000
0000000800
7FFF80FFE0
7FFF83FFF0
7FFF87FFF0
7FFF8FFFE0
0FFF9FFFE0
000F9F8060
000FFE0020
000FFC0000
000FF80000
000FF00000
000FF00000
000FE00000
000FE00000
000FE00000
000FE00000
000FC00000
000FC00000
000FC00000
000FC00000
000FC00000
000FC00000
000FC00000
000FC00000
000FC00000
000FC00000
000FC00000
000FC00000
000FC00000
000FC00000
000FC00000
000FC00000
000FC00000
0FFFFF8000
FFFFFFF800
FFFFFFF800
FFFFFFF800
FFFFFFF800
ENDCHAR
STARTCHAR 015A
ENCODING 346
SWIDTH 600 0
DWIDTH 42 0
BBX 31 66 6 -1
BITMAP
00000FF0
00001FE0
00001FC0
00003F80
00007F00
00007E00
0000FE00
0001F800
0001F000
0003E000
0007C000
00000000
00000000
00000000
000FFE00
007FFFE0
01FFFFFC
07FFFFFC
0FFFFFF8
1FF807F8
1FE00078
3F800010
3F800000
7F000000
7F000000
7F000000
7F000000
7F000000
7F000000
7F000000
7F000000
3F800000
3FC00000
3FE00000
1FF80000
0FFE0000
0FFF8000
03FFF000
01FFFC00
007FFF00
001FFF80
0007FFE0
0001FFF0
00007FF8
00001FF8
000007FC
000003FC
000001FE
000000FE
000000FE
0000007E
0000007E
0000007E
000000FE
000000FE
000000FE
000001FC
800001FC
E00007F8
FC000FF8
FFFFFFF0
FFFFFFE0
FFFFFFC0
7FFFFF00
0FFFF800
000E0000
ENDCHAR
STARTCHAR 015B
ENCODING 347
SWIDTH 600 0
DWIDTH 42 0
BBX 28 54 7 -1
BITMAP
00003FC0
00007F80
00007F00
0000FE00
0001FC00
0001F800
0003F800
0007F000
0007E000
000F8000
001F0000
00000000
00000000
00000000
00000000
00010000
00FFFE00
03FFFFC0
0FFFFFE0
1FFFFFC0
3FFFFFC0
3FC003C0
7F000080
7E000000
7E000000
7E000000
7E000000
7F000000
3F800000
3FE00000
1FF80000
0FFE0000
07FF8000
01FFF000
007FFC00
001FFF00
0007FF80
0001FFC0
00003FE0
00001FE0
000007E0
000007F0
000007F0
000007F0
000007F0
000007E0
E0000FE0
FC001FE0
FFFFFFC0
FFFFFF80
FFFFFF00
7FFFFE00
0FFFF000
00180000
ENDCHAR
STARTCHAR 015C
ENCODING 348
SWIDTH 600 0
DWIDTH 42 0
BBX 31 66 6 -1
BITMAP
0007F000
000FF000
001FF800
001FFC00
003FFE00
007E7F00
00FC3F80
01F81F80
03F00FC0
07E003E0
0F8001F0
00000000
00000000
00000000
000FFE00
007FFFE0
01FFFFFC
07FFFFFC
0FFFFFF8
1FF807F8
1FE00078
3F800010
3F800000
7F000000
7F000000
7F000000
7F000000
7F000000
7F000000
7F000000
7F000000
3F800000
3FC00000
3FE00000
1FF80000
0FFE0000
0FFF8000
03FFF000
01FFFC00
007FFF00
001FFF80
0007FFE0
0001FFF0
00007FF8
00001FF8
000007FC
000003FC
000001FE
000000FE
000000FE
0000007E
0000007E
0000007E
000000FE
000000FE
000000FE
000001FC
800001FC
E00007F8
FC000FF8
FFFFFFF0
FFFFFFE0
FFFFFFC0
7FFFFF00
0FFFF800
000E0000
ENDCHAR
STARTCHAR 015D
ENCODING 349
SWIDTH 600 0
DWIDTH 42 0
BBX 28 54 7 -1
BITMAP
001FC000
003FC000
007FE000
007FF000
00FFF800
01F9FC00
03F0FE00
07E07E00
0FC01F00
1F800F80
1E0007C0
00000000
00000000
00000000
00000000
00010000
00FFFE00
03FFFFC0
0FFFFFE0
1FFFFFC0
3FFFFFC0
3FC003C0
7F000080
7E000000
7E000000
7E000000
7E000000
7F000000
3F800000
3FE00000
1FF80000
0FFE0000
07FF8000
01FFF000
007FFC00
001FFF00
0007FF80
0001FFC0
00003FE0
00001FE0
000007E0
000007F0
000007F0
000007F0
000007F0
000007E0
E0000FE0
FC001FE0
FFFFFFC0
FFFFFF80
FFFFFF00
7FFFFE00
0FFFF000
00180000
ENDCHAR
STARTCHAR 015E
ENCODING 350
SWIDTH 600 0
DWIDTH 42 0
BBX 31 68 6 -17
BITMAP
000FFE00
007FFFE0
01FFFFFC
07FFFFFC
0FFFFFF8
1FF807F8
1FE00078
3F800010
3F800000
7F000000
7F000000
7F000000
7F000000
7F000000
7F000000
7F000000
7F000000
3F800000
3FC00000
3FE00000
1FF80000
0FFE0000
0FFF8000
03FFF000
01FFFC00
007FFF00
001FFF80
0007FFE0
0001FFF0
00007FF8
00001FF8
000007FC
000003FC
000001FE
000000FE
000000FE
0000007E
0000007E
0000007E
000000FE
000000FE
000000FE
000001FC
800001FC
E00007F8
FC000FF8
FFFFFFF0
FFFFFFE0
FFFFFFC0
7FFFFF00
0FFFF800
000F8000
00078000
000F0000
000F0000
001F8000
001FE000
003FF000
0001F800
0000F800
00007C00
00007C00
0000F800
0001F800
00FFF800
00FFF000
00FFE000
00FF0000
ENDCHAR
STARTCHAR 015F
ENCODING 351
SWIDTH 600 0
DWIDTH 42 0
BBX 28 55 7 -17
BITMAP
00010000
00FFFE00
03FFFFC0
0FFFFFE0
1FFFFFC0
3FFFFFC0
3FC003C0
7F000080
7E000000
7E000000
7E000000
7E000000
7F000000
3F800000
3FE00000
1FF80000
0FFE0000
07FF8000
01FFF000
007FFC00
001FFF00
0007FF80
0001FFC0
00003FE0
00001FE0
000007E0
000007F0
000007F0
000007F0
000007F0
000007E0
E0000FE0
FC001FE0
FFFFFFC0
FFFFFF80
FFFFFF00
7FFFFE00
0FFFF000
001F0000
000F0000
001F0000
001E0000
003F0000
003FC000
001FF000
0003F000
0001F800
0000F800
0000F800
0000F800
0003F800
01FFF000
01FFE000
01FFC000
01FE0000
ENDCHAR
STARTCHAR 0160
ENCODING 352
SWIDTH 600 0
DWIDTH 42 0
BBX 31 66 6 -1
BITMAP
0F8001F0
07E003F0
03F00FE0
01F81FC0
00FC3F80
007E7F00
003FFE00
001FFC00
001FF800
000FF000
0007F000
00000000
00000000
00000000
000FFE00
007FFFE0
01FFFFFC
07FFFFFC
0FFFFFF8
1FF807F8
1FE00078
3F800010
3F800000
7F000000
7F000000
7F000000
7F000000
7F000000
7F000000
7F000000
7F000000
3F800000
3FC00000
3FE00000
1FF80000
0FFE0000
0FFF8000
03FFF000
01FFFC00
007FFF00
001FFF80
0007FFE0
0001FFF0
00007FF8
00001FF8
000007FC
000003FC
000001FE
000000FE
000000FE
0000007E
0000007E
0000007E
000000FE
000000FE
000000FE
000001FC
800001FC
E00007F8
FC000FF8
FFFFFFF0
FFFFFFE0
FFFFFFC0
7FFFFF00
0FFFF800
000E0000
ENDCHAR
STARTCHAR 0161
ENCODING 353
SWIDTH 600 0
DWIDTH 42 0
BBX 28 54 7 -1
BITMAP
1E0007C0
1F800FC0
0FC03F80
07E07F00
03F0FE00
01F9FC00
00FFF800
007FF000
007FE000
003FC000
001FC000
00000000
00000000
00000000
00000000
00010000
00FFFE00
03FFFFC0
0FFFFFE0
1FFFFFC0
3FFFFFC0
3FC003C0
7F000080
7E000000
7E000000
7E000000
7E000000
7F000000
3F800000
3FE00000
1FF80000
0FFE0000
07FF8000
01FFF000
007FFC00
001FFF00
0007FF80
0001FFC0
00003FE0
00001FE0
000007E0
000007F0
000007F0
000007F0
000007F0
000007E0
E0000FE0
FC001FE0
FFFFFFC0
FFFFFF80
FFFFFF00
7FFFFE00
0FFFF000
00180000
ENDCHAR
STARTCHAR 0162
ENCODING 354
SWIDTH 600 0
DWIDTH 42 0
BBX 36 67 3 -17
BITMAP
FFFFFFFFF0
FFFFFFFFF0
FFFFFFFFF0
FFFFFFFFF0
FFFFFFFFF0
0001F80000
0001F80000
0001F80000
0001F80000
0001F80000
0001F80000
0001F80000
0001F80000
0001F80000
0001F80000
0001F80000
0001F80000
0001F80000
0001F80000
0001F80000
0001F80000
0001F80000
0001F80000
0001F80000
0001F80000
0001F80000
0001F80000
0001F80000
0001F80000
0001F80000
0001F80000
0001F80000
0001F80000
0001F80000
0001F80000
0001F80000
0001F80000
0001F80000
0001F80000
0001F80000
0001F80000
0001F80000
0001F80000
0001F80000
0001F80000
0001F80000
0001F80000
0001F80000
0001F80000
0001F80000
0000F00000
0000F00000
0001E00000
0001E00000
0003F00000
0003FC0000
0007FE0000
00003F0000
00001F0000
00000F8000
00000F8000
00001F0000
00003F0000
001FFF0000
001FFE0000
001FFC0000
001FE00000
ENDCHAR
STARTCHAR 0163
ENCODING 355
SWIDTH 600 0
DWIDTH 42 0
BBX 32 65 4 -17
BITMAP
001F0000
001F0000
001F0000
001F0000
001F0000
001F0000
001F0000
001F0000
003F0000
003F0000
003F0000
0FFFFFFE
FFFFFFFE
FFFFFFFE
FFFFFFFE
FFFFFFFE
003F0000
003F0000
003F0000
003F0000
003F0000
003F0000
003F0000
003F0000
003F0000
003F0000
003F0000
003F0000
003F0000
003F0000
003F0000
003F0000
003F0000
003F0000
003F0000
003F0000
003F0000
003F8000
003F8000
003F8000
001FC000
001FC000
001FF001
000FFFFF
000FFFFF
0007FFFF
0001FFFF
00007FFF
00000F80
00000F00
00001E00
00001E00
00003F00
00003FC0
00007FF0
000003F0
000001F8
000000F8
000000F8
000001F8
000003F0
0001FFF0
0001FFE0
0001FFC0
0001FE00
ENDCHAR
STARTCHAR 0164
ENCODING 356
SWIDTH 600 0
DWIDTH 42 0
BBX 36 65 3 0
BITMAP
03E0007C00
01F801F800
00FC03F000
007E07E000
003F0FC000
003F9F8000
001FFF0000
000FFF0000
0007FE0000
0003FC0000
0003F80000
0000000000
0000000000
0000000000
0000000000
FFFFFFFFF0
FFFFFFFFF0
FFFFFFFFF0
FFFFFFFFF0
FFFFFFFFF0
0001F80000
0001F80000
0001F80000
0001F80000
0001F80000
0001F80000
0001F80000
0001F80000
0001F80000
0001F80000
0001F80000
0001F80000
0001F80000
0001F80000
0001F80000
0001F80000
0001F80000
0001F80000
0001F80000
0001F80000
0001F80000
0001F80000
0001F80000
0001F80000
0001F80000
0001F80000
0001F80000
0001F80000
0001F80000
0001F80000
0001F80000
0001F80000
0001F80000
0001F80000
0001F80000
0001F80000
0001F80000
0001F80000
0001F80000
0001F80000
0001F80000
0001F80000
0001F80000
0001F80000
0001F80000
ENDCHAR
STARTCHAR 0165
ENCODING 357
SWIDTH 600 0
DWIDTH 42 0
BBX 32 55 4 -1
BITMAP
0000003F
0000003F
0000007E
0000007E
0000007C
0000007C
001F00F8
001F00F8
001F00F0
001F00F0
001F01E0
001F0000
001F0000
001F0000
003F0000
003F0000
003F0000
0FFFFFFE
FFFFFFFE
FFFFFFFE
FFFFFFFE
FFFFFFFE
003F0000
003F0000
003F0000
003F0000
003F0000
003F0000
003F0000
003F0000
003F0000
003F0000
003F0000
003F0000
003F0000
003F0000
003F0000
003F0000
003F0000
003F0000
003F0000
003F0000
003F0000
003F8000
003F8000
003F8000
001FC000
001FC000
001FF001
000FFFFF
000FFFFF
0007FFFF
0001FFFF
00007FFF
00000180
ENDCHAR
STARTCHAR 0166
ENCODING 358
SWIDTH 600 0
DWIDTH 42 0
BBX 36 50 3 0
BITMAP
FFFFFFFFF0
FFFFFFFFF0
FFFFFFFFF0
FFFFFFFFF0
FFFFFFFFF0
0001F80000
0001F80000
0001F80000
0001F80000
0001F80000
0001F80000
0001F80000
0001F80000
0001F80000
0001F80000
0001F80000
0001F80000
0001F80000
0001F80000
0001F80000
0001F80000
0001F80000
0FFFFFFF00
0FFFFFFF00
0FFFFFFF00
0FFFFFFF00
0FFFFFFF00
0001F80000
0001F80000
0001F80000
0001F80000
0001F80000
0001F80000
0001F80000
0001F80000
0001F80000
0001F80000
0001F80000
0001F80000
0001F80000
0001F80000
0001F80000
0001F80000
0001F80000
0001F80000
0001F80000
0001F80000
0001F80000
0001F80000
0001F80000
ENDCHAR
STARTCHAR 0167
ENCODING 359
SWIDTH 600 0
DWIDTH 42 0
BBX 32 49 4 -1
BITMAP
001F0000
001F0000
001F0000
001F0000
001F0000
001F0000
001F0000
001F0000
003F0000
003F0000
003F0000
0FFFFFFE
FFFFFFFE
FFFFFFFE
FFFFFFFE
FFFFFFFE
003F0000
003F0000
003F0000
003F0000
003F0000
003F0000
003F0000
003F0000
FFFFFFFF
FFFFFFFF
FFFFFFFF
FFFFFFFF
FFFFFFFF
003F0000
003F0000
003F0000
003F0000
003F0000
003F0000
003F0000
003F0000
003F8000
003F8000
003F8000
003F8000
001FC000
001FF001
000FFFFF
000FFFFF
0007FFFF
0001FFFF
00007FFF
00000180
ENDCHAR
STARTCHAR 0168
ENCODING 360
SWIDTH 600 0
DWIDTH 42 0
BBX 32 64 5 -1
BITMAP
00FC0078
01FF0070
03FF80F0
07FFE1F0
07FFFFE0
0F87FFE0
0F01FFC0
0E00FF80
1E003F00
00000000
00000000
00000000
00000000
FC00003F
FC00003F
FC00003F
FC00003F
FC00003F
FC00003F
FC00003F
FC00003F
FC00003F
FC00003F
FC00003F
FC00003F
FC00003F
FC00003F
FC00003F
FC00003F
FC00003F
FC00003F
FC00003F
FC00003F
FC00003F
FC00003F
FC00003F
FC00003F
FC00003F
FC00003F
FC00003F
FC00003F
FC00003F
FC00003F
FC00003F
FC00003F
FC00003F
FC00003F
FC00003F
FC00003F
FE00007F
FE00007F
FE00007E
7E00007E
7F0000FE
7F0000FE
3F8001FC
3FC003FC
1FE007F8
0FFFFFF0
0FFFFFE0
03FFFFC0
01FFFF80
007FFE00
00018000
ENDCHAR
STARTCHAR 0169
ENCODING 361
SWIDTH 600 0
DWIDTH 42 0
BBX 31 52 5 -1
BITMAP
00FC0078
01FF0070
03FF80F0
07FFE1F0
07FFFFE0
0F87FFE0
0F01FFC0
0E00FF80
1E003F00
00000000
00000000
00000000
00000000
00000000
FE00007E
FE00007E
FE00007E
FE00007E
FE00007E
FE00007E
FE00007E
FE00007E
FE00007E
FE00007E
FE00007E
FE00007E
FE00007E
FE00007E
FE00007E
FE00007E
FE00007E
FE00007E
FE00007E
FE00007E
FE00007E
FE00007E
FE00007E
FE00007E
FE00007E
FE0000FE
FE0000FE
FE0000FE
7E0001FE
7F0003FE
7F8007FE
3FC00FFE
3FFFFFBE
1FFFFF3E
0FFFFE3E
07FFF83E
01FFE03E
000C0000
ENDCHAR
STARTCHAR 016A
ENCODING 362
SWIDTH 600 0
DWIDTH 42 0
BBX 32 61 5 -1
BITMAP
03FFFFC0
03FFFFC0
03FFFFC0
03FFFFC0
03FFFFC0
00000000
00000000
00000000
00000000
00000000
FC00003F
FC00003F
FC00003F
FC00003F
FC00003F
FC00003F
FC00003F
FC00003F
FC00003F
FC00003F
FC00003F
FC00003F
FC00003F
FC00003F
FC00003F
FC00003F
FC00003F
FC00003F
FC00003F
FC00003F
FC00003F
FC00003F
FC00003F
FC00003F
FC00003F
FC00003F
FC00003F
FC00003F
FC00003F
FC00003F
FC00003F
FC00003F
FC00003F
FC00003F
FC00003F
FC00003F
FE00007F
FE00007F
FE00007E
7E00007E
7F0000FE
7F0000FE
3F8001FC
3FC003FC
1FE007F8
0FFFFFF0
0FFFFFE0
03FFFFC0
01FFFF80
007FFE00
00018000
ENDCHAR
STARTCHAR 016B
ENCODING 363
SWIDTH 600 0
DWIDTH 42 0
BBX 31 49 5 -1
BITMAP
03FFFFC0
03FFFFC0
03FFFFC0
03FFFFC0
03FFFFC0
00000000
00000000
00000000
00000000
00000000
00000000
FE00007E
FE00007E
FE00007E
FE00007E
FE00007E
FE00007E
FE00007E
FE00007E
FE00007E
FE00007E
FE00007E
FE00007E
FE00007E
FE00007E
FE00007E
FE00007E
FE00007E
FE00007E
FE00007E
FE00007E
FE00007E
FE00007E
FE00007E
FE00007E
FE00007E
FE0000FE
FE0000FE
FE0000FE
7E0001FE
7F0003FE
7F8007FE
3FC00FFE
3FFFFFBE
1FFFFF3E
0FFFFE3E
07FFF83E
01FFE03E
000C0000
ENDCHAR
STARTCHAR 016C
ENCODING 364
SWIDTH 600 0
DWIDTH 42 0
BBX 32 65 5 -1
BITMAP
078001E0
078003E0
07C003E0
03C003C0
03E007C0
03F81F80
01FFFF80
00FFFF00
007FFC00
000FF000
00000000
00000000
00000000
00000000
FC00003F
FC00003F
FC00003F
FC00003F
FC00003F
FC00003F
FC00003F
FC00003F
FC00003F
FC00003F
FC00003F
FC00003F
FC00003F
FC00003F
FC00003F
FC00003F
FC00003F
FC00003F
FC00003F
FC00003F
FC00003F
FC00003F
FC00003F
FC00003F
FC00003F
FC00003F
FC00003F
FC00003F
FC00003F
FC00003F
FC00003F
FC00003F
FC00003F
FC00003F
FC00003F
FC00003F
FE00007F
FE00007F
FE00007E
7E00007E
7F0000FE
7F0000FE
3F8001FC
3FC003FC
1FE007F8
0FFFFFF0
0FFFFFE0
03FFFFC0
01FFFF80
007FFE00
00018000
ENDCHAR
STARTCHAR 016D
ENCODING 365
SWIDTH 600 0
DWIDTH 42 0
BBX 31 53 5 -1
BITMAP
078001E0
078003E0
07C003E0
03C003C0
03E007C0
03F81F80
01FFFF80
00FFFF00
007FFC00
000FF000
00000000
00000000
00000000
00000000
00000000
FE00007E
FE00007E
FE00007E
FE00007E
FE00007E
FE00007E
FE00007E
FE00007E
FE00007E
FE00007E
FE00007E
FE00007E
FE00007E
FE00007E
FE00007E
FE00007E
FE00007E
FE00007E
FE00007E
FE00007E
FE00007E
FE00007E
FE00007E
FE00007E
FE00007E
FE0000FE
FE0000FE
FE0000FE
7E0001FE
7F0003FE
7F8007FE
3FC00FFE
3FFFFFBE
1FFFFF3E
0FFFFE3E
07FFF83E
01FFE03E
000C0000
ENDCHAR
STARTCHAR 016E
ENCODING 366
SWIDTH 600 0
DWIDTH 42 0
BBX 32 70 5 -1
BITMAP
0007E000
001FF800
003FFC00
007FFE00
007C3E00
00F81F00
00F00F00
00F00F00
00F00F00
00F81E00
007C3E00
007FFE00
003FFC00
001FF800
0007E000
00000000
00000000
00000000
00000000
FC00003F
FC00003F
FC00003F
FC00003F
FC00003F
FC00003F
FC00003F
FC00003F
FC00003F
FC00003F
FC00003F
FC00003F
FC00003F
FC00003F
FC00003F
FC00003F
FC00003F
FC00003F
FC00003F
FC00003F
FC00003F
FC00003F
FC00003F
FC00003F
FC00003F
FC00003F
FC00003F
FC00003F
FC00003F
FC00003F
FC00003F
FC00003F
FC00003F
FC00003F
FC00003F
FC00003F
FE00007F
FE00007F
FE00007E
7E00007E
7F0000FE
7F0000FE
3F8001FC
3FC003FC
1FE007F8
0FFFFFF0
0FFFFFE0
03FFFFC0
01FFFF80
007FFE00
00018000
ENDCHAR
STARTCHAR 016F
ENCODING 367
SWIDTH 600 0
DWIDTH 42 0
BBX 31 58 5 -1
BITMAP
0007E000
001FF800
003FFC00
007FFE00
007C3E00
00F81F00
00F00F00
00F00F00
00F00F00
00F81E00
007C3E00
007FFE00
003FFC00
001FF800
0007E000
00000000
00000000
00000000
00000000
00000000
FE00007E
FE00007E
FE00007E
FE00007E
FE00007E
FE00007E
FE00007E
FE00007E
FE00007E
FE00007E
FE00007E
FE00007E
FE00007E
FE00007E
FE00007E
FE00007E
FE00007E
FE00007E
FE00007E
FE00007E
FE00007E
FE00007E
FE00007E
FE00007E
FE00007E
FE0000FE
FE0000FE
FE0000FE
7E0001FE
7F0003FE
7F8007FE
3FC00FFE
3FFFFFBE
1FFFFF3E
0FFFFE3E
07FFF83E
01FFE03E
000C0000
ENDCHAR
STARTCHAR 0170
ENCODING 368
SWIDTH 600 0
DWIDTH 42 0
BBX 32 66 5 -1
BITMAP
001FC1FC
003F83F8
003F03F8
007F07F0
00FE07E0
00FC0FC0
01F80F80
01F01F00
03E03E00
07C03C00
07807800
00000000
00000000
00000000
00000000
FC00003F
FC00003F
FC00003F
FC00003F
FC00003F
FC00003F
FC00003F
FC00003F
FC00003F
FC00003F
FC00003F
FC00003F
FC00003F
FC00003F
FC00003F
FC00003F
FC00003F
FC00003F
FC00003F
FC00003F
FC00003F
FC00003F
FC00003F
FC00003F
FC00003F
FC00003F
FC00003F
FC00003F
FC00003F
FC00003F
FC00003F
FC00003F
FC00003F
FC00003F
FC00003F
FC00003F
FE00007F
FE00007F
FE00007E
7E00007E
7F0000FE
7F0000FE
3F8001FC
3FC003FC
1FE007F8
0FFFFFF0
0FFFFFE0
03FFFFC0
01FFFF80
007FFE00
00018000
ENDCHAR
STARTCHAR 0171
ENCODING 369
SWIDTH 600 0
DWIDTH 42 0
BBX 31 54 5 -1
BITMAP
001FC1FC
003F83F8
003F03F8
007F07F0
00FE07E0
00FC0FC0
01F80F80
01F01F00
03E03E00
07C03C00
07807800
00000000
00000000
00000000
00000000
00000000
FE00007E
FE00007E
FE00007E
FE00007E
FE00007E
FE00007E
FE00007E
FE00007E
FE00007E
FE00007E
FE00007E
FE00007E
FE00007E
FE00007E
FE00007E
FE00007E
FE00007E
FE00007E
FE00007E
FE00007E
FE00007E
FE00007E
FE00007E
FE00007E
FE00007E
FE0000FE
FE0000FE
FE0000FE
7E0001FE
7F0003FE
7F8007FE
3FC00FFE
3FFFFFBE
1FFFFF3E
0FFFFE3E
07FFF83E
01FFE03E
000C0000
ENDCHAR
STARTCHAR 0172
ENCODING 370
SWIDTH 600 0
DWIDTH 42 0
BBX 32 65 5 -15
BITMAP
FC00003F
FC00003F
FC00003F
FC00003F
FC00003F
FC00003F
FC00003F
FC00003F
FC00003F
FC00003F
FC00003F
FC00003F
FC00003F
FC00003F
FC00003F
FC00003F
FC00003F
FC00003F
FC00003F
FC00003F
FC00003F
FC00003F
FC00003F
FC00003F
FC00003F
FC00003F
FC00003F
FC00003F
FC00003F
FC00003F
FC00003F
FC00003F
FC00003F
FC00003F
FC00003F
FC00003F
FE00007F
FE00007F
FE00007E
7E00007E
7F0000FE
7F0000FE
3F8001FC
3FC003FC
1FE007F8
0FFFFFF0
0FFFFFE0
03FFFFC0
01FFFF80
007FFE00
0001F800
0001F000
0003E000
0007C000
000F8000
000F8000
001F0000
001F0000
001F0000
001F8000
000FC000
000FFE00
0007FE00
0007FE00
0001FC00
ENDCHAR
STARTCHAR 0173
ENCODING 371
SWIDTH 600 0
DWIDTH 42 0
BBX 33 52 5 -15
BITMAP
FE00007E00
FE00007E00
FE00007E00
FE00007E00
FE00007E00
FE00007E00
FE00007E00
FE00007E00
FE00007E00
FE00007E00
FE00007E00
FE00007E00
FE00007E00
FE00007E00
FE00007E00
FE00007E00
FE00007E00
FE00007E00
FE00007E00
FE00007E00
FE00007E00
FE00007E00
FE00007E00
FE00007E00
FE00007E00
FE0000FE00
FE0000FE00
FE0000FE00
7E0001FE00
7F0003FE00
7F8007FE00
3FC00FFE00
3FFFFFBE00
1FFFFF3E00
0FFFFE3E00
07FFF83E00
01FFE03E00
000C003C00
0000007800
000000F000
000001F000
000003E000
000003E000
000003C000
000007C000
000007C000
000007E000
000007F000
000003FF80
000003FF80
000001FF80
0000007F00
ENDCHAR
STARTCHAR 0174
ENCODING 372
SWIDTH 600 0
DWIDTH 42 0
BBX 38 65 2 0
BITMAP
0001FC0000
0001FE0000
0003FF0000
0007FF8000
000FFF8000
000FCFC000
001F87E000
003F03F000
007E01F800
00F800FC00
01F0003E00
0000000000
0000000000
0000000000
0000000000
FC000000FC
FC000000FC
FC000000FC
FC000000FC
FC000000FC
FC000000FC
FC000000FC
7C000000FC
7C000000F8
7C000000F8
7E000000F8
7E000001F8
7E000001F8
7E00FC01F8
7E00FC01F8
7E01FE01F8
3E01FE01F8
3E01FE01F8
3E01FE01F0
3E01FF01F0
3F03FF01F0
3F03EF01F0
3F03CF03F0
3F03CF83F0
3F07CF83F0
1F07CF83F0
1F07C783F0
1F0787C3E0
1F0F87C3E0
1F0F87C3E0
1F0F83C3E0
1F0F03E3E0
1F9F03E3E0
1F9F03E3E0
0F9F01E3E0
0F9F01E3E0
0F9E01F3E0
0FBE01F7C0
0FBE00F7C0
0FBE00F7C0
0FBC00FFC0
0FBC00FFC0
0FFC007FC0
07FC007FC0
07F8007FC0
07F8007FC0
07F8003FC0
07F8003F80
07F0003F80
07F0003F80
ENDCHAR
STARTCHAR 0175
ENCODING 373
SWIDTH 600 0
DWIDTH 42 0
BBX 40 53 1 0
BITMAP
00007E0000
0000FF0000
0001FF8000
0003FFC000
0007FFC000
0007E7E000
000FC3F000
001F81F800
003F00FC00
007E007E00
00F8001F00
0000000000
0000000000
0000000000
0000000000
0000000000
FC0000003F
FC0000003F
7C0000003F
7E0000003E
7E0000007E
7E0000007E
7E0000007E
7E00FF007E
3E00FF007E
3E00FF007C
3F01FF00FC
3F01FF80FC
3F01FF80FC
3F01FF80FC
3F03FFC0FC
1F03E7C0F8
1F03E7C0F8
1F87E7C1F8
1F87C7E1F8
1F87C3E1F8
1F87C3E1F8
0F8FC3F1F0
0F8F83F1F0
0F8F81F1F0
0F8F81F3F0
0FDF81F3F0
0FDF00FBF0
07DF00FBE0
07DF00FBE0
07DE00FBE0
07FE007FE0
07FE007FE0
07FE007FE0
03FC007FC0
03FC003FC0
03FC003FC0
03FC003FC0
ENDCHAR
STARTCHAR 0176
ENCODING 374
SWIDTH 600 0
DWIDTH 42 0
BBX 38 65 2 0
BITMAP
0001FC0000
0001FE0000
0003FF0000
0007FF8000
000FFF8000
000FCFC000
001F87E000
003F03F000
007E01F800
00F800FC00
01F0003E00
0000000000
0000000000
0000000000
0000000000
FF000001FC
7F000003F8
3F800003F0
3F800007F0
1F800007E0
1FC0000FE0
0FC0000FC0
0FE0001FC0
07E0001F80
07F0003F80
03F0003F00
03F8007F00
01F8007E00
01FC007E00
00FC00FC00
00FE00FC00
007E01F800
007E01F800
003F03F000
003F03F000
001F87E000
001F87E000
000FCFC000
000FCFC000
0007FF8000
0007FF8000
0003FF0000
0003FF0000
0001FE0000
0001FE0000
0000FC0000
0000FC0000
0000FC0000
0000FC0000
0000FC0000
0000FC0000
0000FC0000
0000FC0000
0000FC0000
0000FC0000
0000FC0000
0000FC0000
0000FC0000
0000FC0000
0000FC0000
0000FC0000
0000FC0000
0000FC0000
0000FC0000
0000FC0000
ENDCHAR
STARTCHAR 0177
ENCODING 375
SWIDTH 600 0
DWIDTH 42 0
BBX 36 70 3 -17
BITMAP
0003F80000
0003FC0000
0007FE0000
000FFF0000
001FFF0000
001F9F8000
003F0FC000
007E07E000
00FC03F000
01F001F800
03E0007C00
0000000000
0000000000
0000000000
0000000000
0000000000
FE000007F0
7E000007E0
7E00000FE0
3F00000FC0
3F00000FC0
3F80001FC0
1F80001F80
1F80001F80
0FC0003F80
0FC0003F00
07E0003F00
07E0007E00
07E0007E00
03F0007E00
03F000FC00
01F800FC00
01F800FC00
00FC01F800
00FC01F800
00FC01F000
007E03F000
007E03F000
003F03E000
003F07E000
003F07E000
001F87C000
001F8FC000
000F8F8000
000FCF8000
0007DF8000
0007DF0000
0007FF0000
0003FF0000
0003FE0000
0001FE0000
0001FC0000
0000FC0000
0000FC0000
0001F80000
0001F80000
0001F80000
0003F00000
0003F00000
0007E00000
0007E00000
000FE00000
000FC00000
001FC00000
407F800000
7FFF000000
7FFE000000
7FFC000000
7FF8000000
3FE0000000
ENDCHAR
STARTCHAR 0178
ENCODING 376
SWIDTH 600 0
DWIDTH 42 0
BBX 38 63 2 0
BITMAP
0078007800
00FC00FC00
01FE01FE00
01FE01FE00
01FE01FE00
01FE01FE00
00FC00FC00
0078007800
0000000000
0000000000
0000000000
0000000000
0000000000
FF000001FC
7F000003F8
3F800003F0
3F800007F0
1F800007E0
1FC0000FE0
0FC0000FC0
0FE0001FC0
07E0001F80
07F0003F80
03F0003F00
03F8007F00
01F8007E00
01FC007E00
00FC00FC00
00FE00FC00
007E01F800
007E01F800
003F03F000
003F03F000
001F87E000
001F87E000
000FCFC000
000FCFC000
0007FF8000
0007FF8000
0003FF0000
0003FF0000
0001FE0000
0001FE0000
0000FC0000
0000FC0000
0000FC0000
0000FC0000
0000FC0000
0000FC0000
0000FC0000
0000FC0000
0000FC0000
0000FC0000
0000FC0000
0000FC0000
0000FC0000
0000FC0000
0000FC0000
0000FC0000
0000FC0000
0000FC0000
0000FC0000
0000FC0000
ENDCHAR
STARTCHAR 0179
ENCODING 377
SWIDTH 600 0
DWIDTH 42 0
BBX 28 65 7 0
BITMAP
00003FC0
00003F80
00007F80
00007F00
0000FE00
0001FC00
0001F800
0003F000
0007E000
000FC000
000F8000
00000000
00000000
00000000
00000000
7FFFFFF0
7FFFFFF0
7FFFFFF0
7FFFFFF0
7FFFFFF0
000003F0
000007E0
000007E0
00000FC0
00001FC0
00001F80
00003F80
00003F00
00007F00
00007E00
0000FC00
0000FC00
0001F800
0003F800
0003F000
0007F000
0007E000
000FE000
000FC000
001FC000
001F8000
003F0000
003F0000
007E0000
00FE0000
00FC0000
01FC0000
01F80000
03F80000
03F00000
07F00000
07E00000
0FC00000
1FC00000
1F800000
3F800000
3F000000
7F000000
7E000000
FE000000
FFFFFFF0
FFFFFFF0
FFFFFFF0
FFFFFFF0
FFFFFFF0
ENDCHAR
STARTCHAR 017A
ENCODING 378
SWIDTH 600 0
DWIDTH 42 0
BBX 30 53 6 0
BITMAP
00001FE0
00001FC0
00003FC0
00007F80
00007F00
0000FE00
0001FC00
0001F800
0003F000
0007E000
0007C000
00000000
00000000
00000000
00000000
00000000
7FFFFFF8
7FFFFFF8
7FFFFFF8
7FFFFFF8
7FFFFFF8
000003F8
000007F0
00000FE0
00000FE0
00001FC0
00003F80
00007F00
0000FE00
0000FE00
0001FC00
0003F800
0007F000
0007E000
000FE000
001FC000
003F8000
007F0000
007E0000
00FE0000
01FC0000
03F80000
07F00000
07E00000
0FE00000
1FC00000
3F800000
7F000000
7FFFFFFC
FFFFFFFC
FFFFFFFC
FFFFFFFC
FFFFFFFC
ENDCHAR
STARTCHAR 017B
ENCODING 379
SWIDTH 600 0
DWIDTH 42 0
BBX 28 65 7 0
BITMAP
00078000
001FC000
001FE000
003FE000
003FE000
003FE000
001FE000
001FC000
00078000
00000000
00000000
00000000
00000000
00000000
00000000
7FFFFFF0
7FFFFFF0
7FFFFFF0
7FFFFFF0
7FFFFFF0
000003F0
000007E0
000007E0
00000FC0
00001FC0
00001F80
00003F80
00003F00
00007F00
00007E00
0000FC00
0000FC00
0001F800
0003F800
0003F000
0007F000
0007E000
000FE000
000FC000
001FC000
001F8000
003F0000
003F0000
007E0000
00FE0000
00FC0000
01FC0000
01F80000
03F80000
03F00000
07F00000
07E00000
0FC00000
1FC00000
1F800000
3F800000
3F000000
7F000000
7E000000
FE000000
FFFFFFF0
FFFFFFF0
FFFFFFF0
FFFFFFF0
FFFFFFF0
ENDCHAR
STARTCHAR 017C
ENCODING 380
SWIDTH 600 0
DWIDTH 42 0
BBX 30 53 6 0
BITMAP
0007C000
000FE000
000FF000
001FF000
001FF000
001FF000
000FF000
000FE000
0007C000
00000000
00000000
00000000
00000000
00000000
00000000
00000000
7FFFFFF8
7FFFFFF8
7FFFFFF8
7FFFFFF8
7FFFFFF8
000003F8
000007F0
00000FE0
00000FE0
00001FC0
00003F80
00007F00
0000FE00
0000FE00
0001FC00
0003F800
0007F000
0007E000
000FE000
001FC000
003F8000
007F0000
007E0000
00FE0000
01FC0000
03F80000
07F00000
07E00000
0FE00000
1FC00000
3F800000
7F000000
7FFFFFFC
FFFFFFFC
FFFFFFFC
FFFFFFFC
FFFFFFFC
ENDCHAR
STARTCHAR 017D
ENCODING 381
SWIDTH 600 0
DWIDTH 42 0
BBX 28 65 7 0
BITMAP
1F0003E0
0F800FC0
0FE01F80
07F03F00
03F87E00
01FCFC00
00FFF800
007FF000
003FF000
001FE000
001FC000
00000000
00000000
00000000
00000000
7FFFFFF0
7FFFFFF0
7FFFFFF0
7FFFFFF0
7FFFFFF0
000003F0
000007E0
000007E0
00000FC0
00001FC0
00001F80
00003F80
00003F00
00007F00
00007E00
0000FC00
0000FC00
0001F800
0003F800
0003F000
0007F000
0007E000
000FE000
000FC000
001FC000
001F8000
003F0000
003F0000
007E0000
00FE0000
00FC0000
01FC0000
01F80000
03F80000
03F00000
07F00000
07E00000
0FC00000
1FC00000
1F800000
3F800000
3F000000
7F000000
7E000000
FE000000
FFFFFFF0
FFFFFFF0
FFFFFFF0
FFFFFFF0
FFFFFFF0
ENDCHAR
STARTCHAR 017E
ENCODING 382
SWIDTH 600 0
DWIDTH 42 0
BBX 30 53 6 0
BITMAP
0F8003F0
0FC007E0
07E00FC0
03F81F80
01FC3F00
00FEFE00
007FFC00
003FF800
001FF000
001FF000
000FE000
00000000
00000000
00000000
00000000
00000000
7FFFFFF8
7FFFFFF8
7FFFFFF8
7FFFFFF8
7FFFFFF8
000003F8
000007F0
00000FE0
00000FE0
00001FC0
00003F80
00007F00
0000FE00
0000FE00
0001FC00
0003F800
0007F000
0007E000
000FE000
001FC000
003F8000
007F0000
007E0000
00FE0000
01FC0000
03F80000
07F00000
07E00000
0FE00000
1FC00000
3F800000
7F000000
7FFFFFFC
FFFFFFFC
FFFFFFFC
FFFFFFFC
FFFFFFFC
ENDCHAR
STARTCHAR 017F
ENCODING 383
SWIDTH 600 0
DWIDTH 42 0
BBX 23 53 15 0
BITMAP
003FF0
01FFFE
07FFFE
0FFFFE
1FFFFC
3FF03C
3F8004
7F0000
7F0000
7E0000
7E0000
FE0000
FE0000
FE0000
FE0000
FE0000
FE0000
FE0000
FE0000
FE0000
FE0000
FE0000
FE0000
FE0000
FE0000
FE0000
FE0000
FE0000
FE0000
FE0000
FE0000
FE0000
FE0000
FE0000
FE0000
FE0000
FE0000
FE0000
FE0000
FE0000
FE0000
FE0000
FE0000
FE0000
FE0000
FE0000
FE0000
FE0000
FE0000
FE0000
FE0000
FE0000
FE0000
ENDCHAR
STARTCHAR 0180
ENCODING 384
SWIDTH 600 0
DWIDTH 42 0
BBX 38 54 0 -1
BITMAP
03F0000000
03F0000000
03F0000000
03F0000000
03F0000000
03F0000000
FFFFFFC000
FFFFFFC000
FFFFFFC000
FFFFFFC000
FFFFFFC000
03F0000000
03F0000000
03F0000000
03F0000000
03F0010000
03F07FF800
03F0FFFE00
03F3FFFF00
03F7FFFF80
03EFFFFFC0
03FF803FE0
03FF000FF0
03FE0007F0
03FC0003F8
03F80003F8
03F80003F8
03F80001F8
03F00001FC
03F00001FC
03F00001FC
03F00000FC
03F00000FC
03F00000FC
03F00000FC
03F00000FC
03F00000FC
03F00000FC
03F00001FC
03F00001FC
03F00001FC
03F80001F8
03F80003F8
03F80003F8
03FC0003F8
03FE0007F0
03FF000FE0
03FF803FE0
03EFFFFFC0
03E7FFFF80
03E3FFFF00
03E1FFFE00
03E07FF800
0000030000
ENDCHAR
STARTCHAR 0181
ENCODING 385
SWIDTH 600 0
DWIDTH 42 0
BBX 39 50 1 0
BITMAP
07FFFFE000
1FFFFFFC00
3FFFFFFF00
7FFFFFFFC0
FFFFFFFFE0
FE3F007FF0
FC3F000FF0
F83F0007F8
F83F0003F8
F83F0003F8
F83F0001F8
FC3F0001F8
FC3F0001F8
003F0001F8
003F0001F8
003F0001F8
003F0001F8
003F0003F8
003F0003F0
003F0007F0
003F000FE0
003F007FC0
003FFFFF80
003FFFFE00
003FFFF800
003FFFFF00
003FFFFFC0
003F003FF0
003F0007F8
003F0003F8
003F0001FC
003F0001FC
003F0000FC
003F0000FE
003F0000FE
003F0000FE
003F0000FE
003F0000FE
003F0000FE
003F0000FC
003F0001FC
003F0001FC
003F0003F8
003F0007F8
003F003FF0
003FFFFFE0
003FFFFFC0
003FFFFF80
003FFFFE00
003FFFF000
ENDCHAR
STARTCHAR 0182
ENCODING 386
SWIDTH 600 0
DWIDTH 42 0
BBX 31 50 7 0
BITMAP
FFFFFFF0
FFFFFFF0
FFFFFFF0
FFFFFFF0
FFFFFFF0
FC000000
FC000000
FC000000
FC000000
FC000000
FC000000
FC000000
FC000000
FC000000
FC000000
FC000000
FC000000
FC000000
FC000000
FC000000
FC000000
FFFFF000
FFFFFF00
FFFFFFC0
FFFFFFE0
FFFFFFF0
FC003FF8
FC0007F8
FC0001FC
FC0001FC
FC0000FE
FC0000FE
FC00007E
FC00007E
FC00007E
FC00007E
FC00007E
FC00007E
FC00007E
FC0000FE
FC0000FC
FC0001FC
FC0003FC
FC0007F8
FC003FF8
FFFFFFF0
FFFFFFE0
FFFFFF80
FFFFFF00
FFFFF000
ENDCHAR
STARTCHAR 0183
ENCODING 387
SWIDTH 600 0
DWIDTH 42 0
BBX 32 54 6 -1
BITMAP
FFFFFFF0
FFFFFFF0
FFFFFFF0
FFFFFFF0
FFFFFFF0
FC000000
FC000000
FC000000
FC000000
FC000000
FC000000
FC000000
FC000000
FC000000
FC000000
FC004000
FC1FFE00
FC3FFF80
FCFFFFC0
FDFFFFE0
FBFFFFF0
FFE00FF8
FFC003FC
FF8001FC
FF0000FE
FE0000FE
FE0000FE
FE00007E
FC00007F
FC00007F
FC00007F
FC00003F
FC00003F
FC00003F
FC00003F
FC00003F
FC00003F
FC00003F
FC00007F
FC00007F
FC00007F
FE00007E
FE0000FE
FE0000FE
FF0000FE
FF8001FC
FFC003F8
FFE00FF8
FBFFFFF0
F9FFFFE0
F8FFFFC0
F87FFF80
F81FFE00
0000C000
ENDCHAR
STARTCHAR 0184
ENCODING 388
SWIDTH 600 0
DWIDTH 42 0
BBX 31 51 7 -1
BITMAP
FC000000
FC000000
FC000000
FC000000
FC000000
FC000000
FC000000
FC000000
FC000000
FC000000
FC000000
FC000000
FC000000
FC000000
FC000000
FC000000
FC000000
FC000000
FC000000
FC000000
FC000000
FFFFF800
FFFFFF00
FFFFFFC0
FFFFFFE0
FFFFFFF0
FC003FF8
FC0007F8
FC0001FC
FC0001FC
FC0000FE
FC0000FE
FC00007E
FC00007E
FC00007E
FC00007E
FC00007E
FC00007E
FC00007E
FC0000FE
FE0000FC
7E0001FC
7F0001FC
7F8003F8
3FE00FF0
1FFFFFF0
1FFFFFE0
0FFFFFC0
03FFFF00
00FFFC00
00030000
ENDCHAR
STARTCHAR 0185
ENCODING 389
SWIDTH 600 0
DWIDTH 42 0
BBX 32 54 6 -1
BITMAP
FC000000
FC000000
FC000000
FC000000
FC000000
FC000000
FC000000
FC000000
FC000000
FC000000
FC000000
FC000000
FC000000
FC000000
FC000000
FC008000
FC1FFE00
FC3FFF80
FCFFFFC0
FDFFFFE0
FBFFFFF0
FFE00FF8
FFC003F8
FF8001FC
FF0000FC
FE0000FE
FE0000FE
FE00007E
FC00007F
FC00007F
FC00007F
FC00003F
FC00003F
FC00003F
FC00003F
FC00003F
FC00003F
FC00003F
FC00007F
FC00007F
FC00007F
FE00007E
7E0000FE
7E0000FE
7F0001FC
3F8001FC
3FC003F8
1FE00FF8
0FFFFFF0
07FFFFE0
03FFFFC0
01FFFF00
007FFC00
00010000
ENDCHAR
STARTCHAR 0186
ENCODING 390
SWIDTH 600 0
DWIDTH 42 0
BBX 34 52 3 -1
BITMAP
01FFC00000
1FFFFC0000
FFFFFF0000
7FFFFF8000
7FFFFFC000
3F807FF000
38000FF000
200007F800
000003FC00
000001FE00
000000FE00
0000007F00
0000007F00
0000003F00
0000003F80
0000001F80
0000001F80
0000001FC0
0000001FC0
0000001FC0
0000000FC0
0000000FC0
0000000FC0
0000000FC0
0000000FC0
0000000FC0
0000000FC0
0000000FC0
0000000FC0
0000000FC0
0000000FC0
0000001FC0
0000001FC0
0000001FC0
0000001FC0
0000001F80
0000003F80
0000003F80
0000007F00
0000007F00
000000FF00
000001FE00
000003FE00
200007FC00
1C001FF800
1FFFFFF000
1FFFFFE000
1FFFFFC000
1FFFFF8000
1FFFFE0000
03FFF80000
0006000000
ENDCHAR
STARTCHAR 0187
ENCODING 391
SWIDTH 600 0
DWIDTH 42 0
BBX 40 61 5 -1
BITMAP
000000007E
00000001FF
00000003FF
00000007FF
00000007FF
00000007E1
0000000FC0
0000000FC0
0000000FC0
0000FFCFC0
000FFFFFC0
003FFFFFC0
007FFFFF80
01FFFFFF80
03FF807F00
07FC000700
07F8000100
0FF0000000
1FE0000000
1FC0000000
3F80000000
3F80000000
3F00000000
7F00000000
7E00000000
7E00000000
FE00000000
FE00000000
FC00000000
FC00000000
FC00000000
FC00000000
FC00000000
FC00000000
FC00000000
FC00000000
FC00000000
FC00000000
FC00000000
FC00000000
FC00000000
FE00000000
FE00000000
FE00000000
7E00000000
7F00000000
7F00000000
3F80000000
3F80000000
3FC0000000
1FE0000000
1FE0000000
0FF8000100
07FE000E00
03FFFFFE00
03FFFFFE00
00FFFFFE00
007FFFFE00
001FFFFE00
0007FFF000
0000180000
ENDCHAR
STARTCHAR 0188
ENCODING 392
SWIDTH 600 0
DWIDTH 42 0
BBX 36 54 6 -1
BITMAP
00000007E0
0000001FF0
0000003FF0
0000007FF0
0000007FF0
000000FE10
000000FC00
000000F800
000000F800
000000F800
000000F800
000000F800
000000F800
000000F800
000000F800
000020F800
001FFFF800
007FFFF800
01FFFFF800
07FFFFF800
0FFFFFF000
0FF800F000
1FE0003000
3FC0000000
3F80000000
7F00000000
7F00000000
7E00000000
7E00000000
FE00000000
FE00000000
FE00000000
FC00000000
FC00000000
FC00000000
FC00000000
FC00000000
FE00000000
FE00000000
FE00000000
FE00000000
7E00000000
7F00000000
7F00000000
3F80000000
3FC0000000
1FE0000800
1FF8007800
0FFFFFF800
07FFFFF800
03FFFFF800
00FFFFF800
001FFFC000
0000400000
ENDCHAR
STARTCHAR 0189
ENCODING 393
SWIDTH 600 0
DWIDTH 42 0
BBX 40 50 0 0
BITMAP
03FFFE0000
03FFFFC000
03FFFFF800
03FFFFFC00
03FFFFFF00
03F007FF80
03F000FFC0
03F0003FE0
03F0001FE0
03F0000FF0
03F00007F8
03F00003F8
03F00001FC
03F00001FC
03F00000FC
03F00000FC
03F00000FE
03F00000FE
03F000007E
03F000007E
03F000007E
03F000007E
03F000007E
FFFFF0007F
FFFFF0007F
FFFFF0007F
FFFFF0007E
FFFFF0007E
03F000007E
03F000007E
03F000007E
03F00000FE
03F00000FE
03F00000FE
03F00000FC
03F00001FC
03F00001FC
03F00003F8
03F00003F8
03F00007F0
03F0000FF0
03F0001FE0
03F0003FC0
03F000FFC0
03F00FFF00
03FFFFFE00
03FFFFFC00
03FFFFF000
03FFFFC000
03FFFC0000
ENDCHAR
STARTCHAR 018A
ENCODING 394
SWIDTH 600 0
DWIDTH 42 0
BBX 38 50 1 0
BITMAP
07FFFF0000
1FFFFFE000
3FFFFFF800
7FFFFFFE00
FFFFFFFF00
FE7F03FF80
FC7F007FC0
F87F001FC0
F87F000FE0
F87F000FE0
F87F0007F0
FC7F0003F0
FC7F0003F8
007F0003F8
007F0001F8
007F0001F8
007F0001FC
007F0001FC
007F0001FC
007F0001FC
007F0000FC
007F0000FC
007F0000FC
007F0000FC
007F0000FC
007F0000FC
007F0000FC
007F0000FC
007F0000FC
007F0000FC
007F0001FC
007F0001FC
007F0001FC
007F0001F8
007F0001F8
007F0001F8
007F0003F8
007F0003F0
007F0007F0
007F0007F0
007F000FE0
007F001FE0
007F003FC0
007F007F80
007F03FF00
007FFFFE00
007FFFFC00
007FFFF000
007FFFC000
007FFE0000
ENDCHAR
STARTCHAR 018B
ENCODING 395
SWIDTH 600 0
DWIDTH 42 0
BBX 31 50 4 0
BITMAP
1FFFFFFE
1FFFFFFE
1FFFFFFE
1FFFFFFE
1FFFFFFE
0000007E
0000007E
0000007E
0000007E
0000007E
0000007E
0000007E
0000007E
0000007E
0000007E
0000007E
0000007E
0000007E
0000007E
0000007E
000FFFFE
007FFFFE
01FFFFFE
07FFFFFE
0FFFFFFE
1FFC007E
3FE0007E
3F80007E
7F00007E
7F00007E
7E00007E
FE00007E
FE00007E
FC00007E
FC00007E
FC00007E
FC00007E
FC00007E
FE00007E
FE00007E
FE00007E
7F00007E
7F80007E
3FC0007E
3FF8007E
1FFFFFFE
0FFFFFFE
03FFFFFE
00FFFFFE
001FFFFE
ENDCHAR
STARTCHAR 018C
ENCODING 396
SWIDTH 600 0
DWIDTH 42 0
BBX 32 54 4 -1
BITMAP
0FFFFFFF
0FFFFFFF
0FFFFFFF
0FFFFFFF
0FFFFFFF
0000003F
0000003F
0000003F
0000003F
0000003F
0000003F
0000003F
0000003F
0000003F
0000003F
0001003F
007FF83F
01FFFE3F
03FFFF3F
07FFFFBF
0FFFFFDF
1FF007FF
3FE003FF
3FC001FF
7F8000FF
7F00007F
7F00007F
FE00007F
FE00003F
FE00003F
FE00003F
FC00003F
FC00003F
FC00003F
FC00003F
FC00003F
FC00003F
FC00003F
FC00003F
FE00003F
FE00003F
7E00007F
7E00007F
7F00007F
7F0000FF
3F8001FF
3FC003FF
1FF007FF
0FFFFFDF
07FFFF9F
03FFFF1F
01FFFE1F
007FF81F
00030000
ENDCHAR
STARTCHAR 018D
ENCODING 397
SWIDTH 600 0
DWIDTH 42 0
BBX 34 54 4 -15
BITMAP
000FFC0000
007FFF8000
01FFFFE000
03FFFFF800
07FFFFFC00
0FFC0FFE00
1FE001FF00
3FC000FF00
3F80007F80
7F00003F80
7E00001F80
FE00001FC0
FE00001FC0
FE00000FC0
FC00000FC0
FC00000FC0
FC00000FC0
FC00000FC0
FC00001FC0
FC00001FC0
FE00001F80
FE00001F80
7E00003F80
7F00007F00
7F00007F00
3F8000FE00
3FC003FC00
1FE007F800
0FF81FF000
07FCFFC000
03FFFF8000
01FFFC0000
007FF00000
003FF80000
000FFE0000
0003FF0000
0001FF8000
00007FC000
00001FE000
00000FE000
000007F000
000003F000
000003F000
000003F000
000003F000
080003F000
1E0007F000
1F8007F000
3FF01FE000
3FFFFFE000
7FFFFFC000
0FFFFF8000
01FFFE0000
003FF00000
ENDCHAR
STARTCHAR 018E
ENCODING 398
SWIDTH 600 0
DWIDTH 42 0
BBX 29 50 6 0
BITMAP
FFFFFFF8
FFFFFFF8
FFFFFFF8
FFFFFFF8
FFFFFFF8
000001F8
000001F8
000001F8
000001F8
000001F8
000001F8
000001F8
000001F8
000001F8
000001F8
000001F8
000001F8
000001F8
000001F8
000001F8
000001F8
000001F8
7FFFFFF8
7FFFFFF8
7FFFFFF8
7FFFFFF8
7FFFFFF8
000001F8
000001F8
000001F8
000001F8
000001F8
000001F8
000001F8
000001F8
000001F8
000001F8
000001F8
000001F8
000001F8
000001F8
000001F8
000001F8
000001F8
000001F8
FFFFFFF8
FFFFFFF8
FFFFFFF8
FFFFFFF8
FFFFFFF8
ENDCHAR
STARTCHAR 018F
ENCODING 399
SWIDTH 600 0
DWIDTH 42 0
BBX 36 52 3 -1
BITMAP
003FF80000
01FFFF8000
0FFFFFE000
1FFFFFF000
1FFFFFF800
1FE01FFC00
1F0003FE00
180000FF00
2000007F00
0000003F80
0000003F80
0000001FC0
0000000FC0
0000000FE0
0000000FE0
00000007E0
00000007E0
00000007E0
00000007F0
00000007F0
00000007F0
00000003F0
00000003F0
00000003F0
FFFFFFFFF0
FFFFFFFFF0
FFFFFFFFF0
FFFFFFFFF0
FFFFFFFFF0
FC000003F0
FC000007F0
FC000007F0
FC000007F0
FC000007E0
FC000007E0
FC000007E0
FC000007E0
7E00000FE0
7E00000FC0
7E00001FC0
3F00001F80
3F00003F80
3F80003F00
1FC0007F00
1FE000FE00
0FF803FE00
07FFFFFC00
03FFFFF800
01FFFFE000
007FFFC000
001FFF0000
0000C00000
ENDCHAR
STARTCHAR 0190
ENCODING 400
SWIDTH 600 0
DWIDTH 42 0
BBX 34 52 4 -1
BITMAP
0007FF0000
007FFFF000
01FFFFFC00
03FFFFFF00
07FFFFFFC0
0FFC03FFC0
1FF0003F80
3FC0000F80
3F80000700
3F00000100
7F00000000
7F00000000
7F00000000
7F00000000
7F00000000
7F00000000
3F00000000
3F80000000
3F80000000
1FC0000000
0FE0000000
07F8000000
03FF800000
00FFFFF800
003FFFF800
000FFFF800
00FFFFF800
03FFFFF800
0FFF000000
1FF0000000
3FC0000000
7F80000000
7F00000000
FE00000000
FE00000000
FC00000000
FC00000000
FC00000000
FC00000000
FE00000000
FE00000000
FE00000000
7F00000000
7F80000040
3FC00001C0
3FF8000FC0
1FFFFFFFC0
0FFFFFFFC0
03FFFFFFC0
00FFFFFF80
003FFFF800
0000780000
ENDCHAR
STARTCHAR 0191
ENCODING 401
SWIDTH 600 0
DWIDTH 42 0
BBX 38 67 2 -17
BITMAP
0003FFFFFC
0003FFFFFC
0003FFFFFC
0003FFFFFC
0003FFFFFC
0003F00000
0003F00000
0003F00000
0003F00000
0003F00000
0003F00000
0003F00000
0003F00000
0003F00000
0003F00000
0003F00000
0003F00000
0003F00000
0003F00000
0003F00000
0003F00000
0003F00000
0003FFFFF0
0003FFFFF0
0003FFFFF0
0003FFFFF0
0003FFFFF0
0003F00000
0003F00000
0003F00000
0003F00000
0003F00000
0003F00000
0003F00000
0003F00000
0003F00000
0003F00000
0003F00000
0003F00000
0003F00000
0003F00000
0003F00000
0003F00000
0003F00000
0003F00000
0003F00000
0003F00000
0003F00000
0003F00000
0003F00000
0003F00000
0003F00000
0003F00000
0003F00000
E003F00000
FC03F00000
FC03F00000
FC03F00000
FC07F00000
FC07F00000
FE0FE00000
FF1FE00000
7FFFC00000
7FFFC00000
3FFF800000
1FFF000000
03F8000000
ENDCHAR
STARTCHAR 0192
ENCODING 402
SWIDTH 600 0
DWIDTH 42 0
BBX 36 70 4 -17
BITMAP
000003FF80
00001FFFF0
00003FFFF0
00007FFFE0
0000FFFFE0
0001FF81E0
0001FE0000
0001FC0000
0003F80000
0003F80000
0003F80000
0003F80000
0003F80000
0003F80000
0003F80000
0003F80000
00FFFFFF80
1FFFFFFF80
1FFFFFFF80
1FFFFFFF80
1FFFFFFF80
0003F80000
0003F80000
0003F80000
0003F80000
0003F80000
0003F80000
0003F80000
0003F80000
0003F80000
0003F80000
0003F80000
0003F80000
0003F80000
0003F80000
0003F80000
0003F80000
0003F80000
0003F80000
0003F80000
0003F80000
0003F80000
0003F80000
0003F80000
0003F80000
0003F80000
0003F80000
0003F80000
0003F80000
0003F80000
0003F80000
0003F80000
0003F80000
0003F80000
0003F80000
0003F80000
0003F80000
C003F80000
FE03F80000
FC03F80000
FC03F00000
FC03F00000
FE03F00000
FE07F00000
7F0FE00000
7FFFE00000
3FFFC00000
1FFF800000
0FFF000000
03FC000000
ENDCHAR
ENDFONT
